<ttFont>
    <TTGlyph name=".notdef" xMin="228" yMin="0" xMax="1644" yMax="1416">
      <contour>
        <pt x="1644" y="1416" on="1"/>
        <pt x="1644" y="0" on="1"/>
        <pt x="228" y="0" on="1"/>
        <pt x="228" y="1416" on="1"/>
      </contour>
      <contour>
        <pt x="933" y="587" on="1"/>
        <pt x="1295" y="219" on="1"/>
        <pt x="1417" y="341" on="1"/>
        <pt x="1054" y="709" on="1"/>
        <pt x="1417" y="1067" on="1"/>
        <pt x="1289" y="1191" on="1"/>
        <pt x="937" y="825" on="1"/>
        <pt x="580" y="1193" on="1"/>
        <pt x="457" y="1068" on="1"/>
        <pt x="816" y="705" on="1"/>
        <pt x="458" y="363" on="1"/>
        <pt x="586" y="219" on="1"/>
      </contour>
    </TTGlyph>
    <TTGlyph name="A" xMin="-120" yMin="0" xMax="1329" yMax="1522">
      <contour>
        <pt x="920" y="1522" on="1"/>
        <pt x="1173" y="119" on="1"/>
        <pt x="1329" y="87" on="1"/>
        <pt x="1322" y="0" on="1"/>
        <pt x="807" y="0" on="1"/>
        <pt x="812" y="87" on="1"/>
        <pt x="968" y="116" on="1"/>
        <pt x="918" y="435" on="1"/>
        <pt x="351" y="435" on="1"/>
        <pt x="201" y="117" on="1"/>
        <pt x="361" y="87" on="1"/>
        <pt x="355" y="0" on="1"/>
        <pt x="-120" y="0" on="1"/>
        <pt x="-111" y="87" on="1"/>
        <pt x="8" y="116" on="1"/>
        <pt x="715" y="1522" on="1"/>
      </contour>
      <contour>
        <pt x="899" y="557" on="1"/>
        <pt x="795" y="1233" on="1"/>
        <pt x="784" y="1354" on="1"/>
        <pt x="408" y="557" on="1"/>
      </contour>
    </TTGlyph>
    <TTGlyph name="AE" xMin="-164" yMin="0" xMax="1754" yMax="1522">
      <contour>
        <pt x="826" y="116" on="1"/>
        <pt x="868" y="474" on="1"/>
        <pt x="394" y="474" on="1"/>
        <pt x="212" y="117" on="1"/>
        <pt x="401" y="87" on="1"/>
        <pt x="395" y="0" on="1"/>
        <pt x="-164" y="0" on="1"/>
        <pt x="-150" y="87" on="1"/>
        <pt x="4" y="116" on="1"/>
        <pt x="705" y="1399" on="1"/>
        <pt x="414" y="1421" on="1"/>
        <pt x="428" y="1522" on="1"/>
        <pt x="1754" y="1522" on="1"/>
        <pt x="1746" y="1230" on="1"/>
        <pt x="1635" y="1230" on="1"/>
        <pt x="1588" y="1399" on="1"/>
        <pt x="1191" y="1414" on="1"/>
        <pt x="1118" y="847" on="1"/>
        <pt x="1519" y="871" on="1"/>
        <pt x="1504" y="704" on="1"/>
        <pt x="1107" y="721" on="1"/>
        <pt x="1034" y="117" on="1"/>
        <pt x="1545" y="141" on="1"/>
        <pt x="1642" y="331" on="1"/>
        <pt x="1749" y="300" on="1"/>
        <pt x="1684" y="0" on="1"/>
        <pt x="695" y="0" on="1"/>
        <pt x="705" y="87" on="1"/>
      </contour>
      <contour>
        <pt x="456" y="596" on="1"/>
        <pt x="883" y="596" on="1"/>
        <pt x="977" y="1391" on="1"/>
        <pt x="863" y="1396" on="1"/>
      </contour>
    </TTGlyph>
    <TTGlyph name="AEacute" xMin="-164" yMin="0" xMax="1754" yMax="2001">
      <component glyphName="acute.cap" x="1083" y="0" flags="0x0"/>
      <component glyphName="AE" x="0" y="0" flags="0x0"/>
    </TTGlyph>
    <TTGlyph name="Aacute" xMin="-120" yMin="0" xMax="1329" yMax="2001">
      <component glyphName="A" x="0" y="0" flags="0x0"/>
      <component glyphName="acute.cap" x="711" y="0" flags="0x0"/>
    </TTGlyph>
    <TTGlyph name="Abreve" xMin="-120" yMin="0" xMax="1329" yMax="1980">
      <component glyphName="A" x="0" y="0" flags="0x0"/>
      <component glyphName="breve.cap" x="495" y="0" flags="0x0"/>
    </TTGlyph>
    <TTGlyph name="Acircumflex" xMin="-120" yMin="0" xMax="1329" yMax="2001">
      <component glyphName="A" x="0" y="0" flags="0x0"/>
      <component glyphName="circumflex.cap" x="450" y="0" flags="0x0"/>
    </TTGlyph>
    <TTGlyph name="Adieresis" xMin="-120" yMin="0" xMax="1329" yMax="1990">
      <component glyphName="A" x="0" y="0" flags="0x0"/>
      <component glyphName="dieresis.cap" x="459" y="0" flags="0x0"/>
    </TTGlyph>
    <TTGlyph name="Agrave" xMin="-120" yMin="0" xMax="1329" yMax="2001">
      <component glyphName="A" x="0" y="0" flags="0x0"/>
      <component glyphName="grave.cap" x="471" y="0" flags="0x0"/>
    </TTGlyph>
    <TTGlyph name="Amacron" xMin="-120" yMin="0" xMax="1329" yMax="1880">
      <component glyphName="A" x="0" y="0" flags="0x0"/>
      <component glyphName="macron.cap" x="524" y="0" flags="0x0"/>
    </TTGlyph>
    <TTGlyph name="Aogonek" xMin="-120" yMin="-419" xMax="1329" yMax="1522">
      <contour>
        <pt x="920" y="1522" on="1"/>
        <pt x="1173" y="119" on="1"/>
        <pt x="1329" y="87" on="1"/>
        <pt x="1322" y="0" on="1"/>
        <pt x="1135" y="0" on="1"/>
        <pt x="1057" y="-62" on="0"/>
        <pt x="976" y="-158" on="0"/>
        <pt x="975" y="-202" on="1"/>
        <pt x="972" y="-245" on="0"/>
        <pt x="1006" y="-287" on="0"/>
        <pt x="1028" y="-287" on="1"/>
        <pt x="1056" y="-287" on="0"/>
        <pt x="1118" y="-259" on="0"/>
        <pt x="1159" y="-227" on="1"/>
        <pt x="1185" y="-322" on="1"/>
        <pt x="1138" y="-364" on="0"/>
        <pt x="1012" y="-419" on="0"/>
        <pt x="932" y="-419" on="1"/>
        <pt x="882" y="-419" on="0"/>
        <pt x="812" y="-381" on="0"/>
        <pt x="777" y="-320" on="0"/>
        <pt x="777" y="-287" on="1"/>
        <pt x="777" y="-253" on="0"/>
        <pt x="799" y="-181" on="0"/>
        <pt x="818" y="-157" on="1"/>
        <pt x="848" y="-118" on="0"/>
        <pt x="912" y="-62" on="0"/>
        <pt x="966" y="-28" on="0"/>
        <pt x="1016" y="0" on="1"/>
        <pt x="807" y="0" on="1"/>
        <pt x="812" y="87" on="1"/>
        <pt x="968" y="116" on="1"/>
        <pt x="918" y="435" on="1"/>
        <pt x="351" y="435" on="1"/>
        <pt x="201" y="117" on="1"/>
        <pt x="361" y="87" on="1"/>
        <pt x="355" y="0" on="1"/>
        <pt x="-120" y="0" on="1"/>
        <pt x="-111" y="87" on="1"/>
        <pt x="8" y="116" on="1"/>
        <pt x="715" y="1522" on="1"/>
      </contour>
      <contour>
        <pt x="899" y="557" on="1"/>
        <pt x="795" y="1233" on="1"/>
        <pt x="784" y="1354" on="1"/>
        <pt x="408" y="557" on="1"/>
      </contour>
    </TTGlyph>
    <TTGlyph name="Aring" xMin="-120" yMin="0" xMax="1329" yMax="2001">
      <contour>
        <pt x="625" y="1533" on="0"/>
        <pt x="536" y="1648" on="0"/>
        <pt x="536" y="1729" on="1"/>
        <pt x="536" y="1810" on="0"/>
        <pt x="641" y="1934" on="0"/>
        <pt x="804" y="2001" on="0"/>
        <pt x="887" y="2001" on="1"/>
        <pt x="972" y="2001" on="0"/>
        <pt x="1097" y="1944" on="0"/>
        <pt x="1164" y="1844" on="0"/>
        <pt x="1164" y="1781" on="1"/>
        <pt x="1164" y="1674" on="0"/>
        <pt x="1027" y="1534" on="0"/>
        <pt x="922" y="1509" on="1"/>
        <pt x="1173" y="119" on="1"/>
        <pt x="1329" y="87" on="1"/>
        <pt x="1322" y="0" on="1"/>
        <pt x="807" y="0" on="1"/>
        <pt x="812" y="87" on="1"/>
        <pt x="968" y="116" on="1"/>
        <pt x="918" y="435" on="1"/>
        <pt x="351" y="435" on="1"/>
        <pt x="201" y="117" on="1"/>
        <pt x="361" y="87" on="1"/>
        <pt x="355" y="0" on="1"/>
        <pt x="-120" y="0" on="1"/>
        <pt x="-111" y="87" on="1"/>
        <pt x="8" y="116" on="1"/>
        <pt x="709" y="1510" on="1"/>
      </contour>
      <contour>
        <pt x="1021" y="1810" on="0"/>
        <pt x="983" y="1874" on="0"/>
        <pt x="914" y="1911" on="0"/>
        <pt x="871" y="1911" on="1"/>
        <pt x="821" y="1911" on="0"/>
        <pt x="734" y="1869" on="0"/>
        <pt x="680" y="1791" on="0"/>
        <pt x="680" y="1740" on="1"/>
        <pt x="680" y="1673" on="0"/>
        <pt x="762" y="1585" on="0"/>
        <pt x="833" y="1585" on="1"/>
        <pt x="914" y="1585" on="0"/>
        <pt x="1021" y="1679" on="0"/>
        <pt x="1021" y="1772" on="1"/>
      </contour>
      <contour>
        <pt x="899" y="557" on="1"/>
        <pt x="795" y="1233" on="1"/>
        <pt x="784" y="1354" on="1"/>
        <pt x="408" y="557" on="1"/>
      </contour>
    </TTGlyph>
    <TTGlyph name="Atilde" xMin="-120" yMin="0" xMax="1329" yMax="1971">
      <component glyphName="A" x="0" y="0" flags="0x0"/>
      <component glyphName="tilde.cap" x="459" y="0" flags="0x0"/>
    </TTGlyph>
    <TTGlyph name="B" xMin="28" yMin="-14" xMax="1207" yMax="1537">
      <contour>
        <pt x="185" y="117" on="1"/>
        <pt x="346" y="1398" on="1"/>
        <pt x="213" y="1421" on="1"/>
        <pt x="225" y="1522" on="1"/>
        <pt x="454" y="1522" on="1"/>
        <pt x="492" y="1522" on="0"/>
        <pt x="585" y="1528" on="0"/>
        <pt x="600" y="1529" on="1"/>
        <pt x="702" y="1537" on="0"/>
        <pt x="759" y="1537" on="1"/>
        <pt x="908" y="1537" on="0"/>
        <pt x="1107" y="1449" on="0"/>
        <pt x="1202" y="1305" on="0"/>
        <pt x="1204" y="1218" on="1"/>
        <pt x="1207" y="1060" on="0"/>
        <pt x="1050" y="859" on="0"/>
        <pt x="904" y="810" on="1"/>
        <pt x="988" y="798" on="0"/>
        <pt x="1121" y="709" on="0"/>
        <pt x="1196" y="567" on="0"/>
        <pt x="1196" y="480" on="1"/>
        <pt x="1196" y="310" on="0"/>
        <pt x="1015" y="88" on="0"/>
        <pt x="712" y="-14" on="0"/>
        <pt x="523" y="-14" on="1"/>
        <pt x="493" y="-14" on="0"/>
        <pt x="406" y="-8" on="0"/>
        <pt x="390" y="-7" on="1"/>
        <pt x="311" y="0" on="0"/>
        <pt x="266" y="0" on="1"/>
        <pt x="28" y="0" on="1"/>
        <pt x="37" y="87" on="1"/>
      </contour>
      <contour>
        <pt x="479" y="852" on="1"/>
        <pt x="523" y="850" on="0"/>
        <pt x="552" y="850" on="1"/>
        <pt x="652" y="851" on="1"/>
        <pt x="752" y="851" on="0"/>
        <pt x="910" y="922" on="0"/>
        <pt x="1002" y="1070" on="0"/>
        <pt x="1002" y="1181" on="1"/>
        <pt x="1002" y="1264" on="0"/>
        <pt x="946" y="1369" on="0"/>
        <pt x="819" y="1420" on="0"/>
        <pt x="712" y="1420" on="1"/>
        <pt x="678" y="1420" on="0"/>
        <pt x="580" y="1415" on="0"/>
        <pt x="549" y="1409" on="1"/>
      </contour>
      <contour>
        <pt x="388" y="127" on="1"/>
        <pt x="413" y="117" on="0"/>
        <pt x="524" y="107" on="0"/>
        <pt x="566" y="107" on="1"/>
        <pt x="760" y="107" on="0"/>
        <pt x="979" y="273" on="0"/>
        <pt x="979" y="457" on="1"/>
        <pt x="979" y="594" on="0"/>
        <pt x="839" y="725" on="0"/>
        <pt x="686" y="725" on="1"/>
        <pt x="560" y="725" on="0"/>
        <pt x="462" y="718" on="1"/>
      </contour>
    </TTGlyph>
    <TTGlyph name="C" xMin="92" yMin="-16" xMax="1227" yMax="1538">
      <contour>
        <pt x="952" y="1538" on="0"/>
        <pt x="1116" y="1512" on="0"/>
        <pt x="1189" y="1492" on="1"/>
        <pt x="1227" y="1481" on="1"/>
        <pt x="1161" y="1113" on="1"/>
        <pt x="1039" y="1113" on="1"/>
        <pt x="1015" y="1375" on="1"/>
        <pt x="984" y="1396" on="0"/>
        <pt x="889" y="1420" on="0"/>
        <pt x="808" y="1420" on="1"/>
        <pt x="634" y="1420" on="0"/>
        <pt x="409" y="1182" on="0"/>
        <pt x="308" y="835" on="0"/>
        <pt x="308" y="665" on="1"/>
        <pt x="308" y="520" on="0"/>
        <pt x="377" y="265" on="0"/>
        <pt x="529" y="103" on="0"/>
        <pt x="645" y="103" on="1"/>
        <pt x="724" y="103" on="0"/>
        <pt x="881" y="155" on="0"/>
        <pt x="910" y="206" on="1"/>
        <pt x="921" y="237" on="0"/>
        <pt x="967" y="371" on="0"/>
        <pt x="978" y="403" on="1"/>
        <pt x="1102" y="402" on="1"/>
        <pt x="1062" y="73" on="1"/>
        <pt x="1037" y="65" on="1"/>
        <pt x="941" y="31" on="0"/>
        <pt x="737" y="-16" on="0"/>
        <pt x="605" y="-16" on="1"/>
        <pt x="427" y="-16" on="0"/>
        <pt x="197" y="176" on="0"/>
        <pt x="92" y="478" on="0"/>
        <pt x="92" y="650" on="1"/>
        <pt x="92" y="910" on="0"/>
        <pt x="294" y="1315" on="0"/>
        <pt x="634" y="1538" on="0"/>
        <pt x="834" y="1538" on="1"/>
      </contour>
    </TTGlyph>
    <TTGlyph name="Cacute" xMin="92" yMin="-16" xMax="1227" yMax="2001">
      <component glyphName="C" x="0" y="0" flags="0x0"/>
      <component glyphName="acute.cap" x="681" y="0" flags="0x0"/>
    </TTGlyph>
    <TTGlyph name="Ccaron" xMin="92" yMin="-16" xMax="1227" yMax="2001">
      <component glyphName="C" x="0" y="0" flags="0x0"/>
      <component glyphName="caron.cap" x="420" y="0" flags="0x0"/>
    </TTGlyph>
    <TTGlyph name="Ccedilla" xMin="87" yMin="-463" xMax="1227" yMax="1538">
      <contour>
        <pt x="634" y="1420" on="0"/>
        <pt x="409" y="1182" on="0"/>
        <pt x="308" y="835" on="0"/>
        <pt x="308" y="665" on="1"/>
        <pt x="308" y="520" on="0"/>
        <pt x="377" y="265" on="0"/>
        <pt x="529" y="103" on="0"/>
        <pt x="645" y="103" on="1"/>
        <pt x="724" y="103" on="0"/>
        <pt x="881" y="155" on="0"/>
        <pt x="910" y="206" on="1"/>
        <pt x="921" y="237" on="0"/>
        <pt x="967" y="371" on="0"/>
        <pt x="978" y="403" on="1"/>
        <pt x="1102" y="402" on="1"/>
        <pt x="1062" y="73" on="1"/>
        <pt x="1059" y="72" on="0"/>
        <pt x="1040" y="65" on="1"/>
        <pt x="960" y="37" on="0"/>
        <pt x="804" y="-4" on="0"/>
        <pt x="703" y="-12" on="1"/>
        <pt x="714" y="-56" on="0"/>
        <pt x="714" y="-113" on="1"/>
        <pt x="714" y="-228" on="0"/>
        <pt x="640" y="-385" on="0"/>
        <pt x="512" y="-463" on="0"/>
        <pt x="431" y="-463" on="1"/>
        <pt x="391" y="-463" on="0"/>
        <pt x="317" y="-447" on="0"/>
        <pt x="300" y="-435" on="1"/>
        <pt x="316" y="-284" on="1"/>
        <pt x="328" y="-290" on="0"/>
        <pt x="382" y="-298" on="0"/>
        <pt x="407" y="-298" on="1"/>
        <pt x="491" y="-298" on="0"/>
        <pt x="589" y="-163" on="0"/>
        <pt x="590" y="-49" on="1"/>
        <pt x="590" y="-26" on="0"/>
        <pt x="589" y="-16" on="1"/>
        <pt x="420" y="-11" on="0"/>
        <pt x="199" y="174" on="0"/>
        <pt x="94" y="463" on="0"/>
        <pt x="92" y="627" on="1"/>
        <pt x="87" y="893" on="0"/>
        <pt x="287" y="1309" on="0"/>
        <pt x="631" y="1538" on="0"/>
        <pt x="834" y="1538" on="1"/>
        <pt x="952" y="1538" on="0"/>
        <pt x="1116" y="1512" on="0"/>
        <pt x="1189" y="1492" on="1"/>
        <pt x="1227" y="1481" on="1"/>
        <pt x="1161" y="1113" on="1"/>
        <pt x="1039" y="1113" on="1"/>
        <pt x="1015" y="1375" on="1"/>
        <pt x="984" y="1396" on="0"/>
        <pt x="889" y="1420" on="0"/>
        <pt x="808" y="1420" on="1"/>
      </contour>
    </TTGlyph>
    <TTGlyph name="Ccircumflex" xMin="92" yMin="-16" xMax="1227" yMax="2001">
      <component glyphName="C" x="0" y="0" flags="0x0"/>
      <component glyphName="circumflex.cap" x="420" y="0" flags="0x0"/>
    </TTGlyph>
    <TTGlyph name="Cdotaccent" xMin="92" yMin="-16" xMax="1227" yMax="1955">
      <component glyphName="dotaccent.cap" x="634" y="0" flags="0x0"/>
      <component glyphName="C" x="0" y="0" flags="0x0"/>
    </TTGlyph>
    <TTGlyph name="D" xMin="26" yMin="-22" xMax="1371" yMax="1538">
      <contour>
        <pt x="184" y="117" on="1"/>
        <pt x="346" y="1398" on="1"/>
        <pt x="213" y="1421" on="1"/>
        <pt x="225" y="1522" on="1"/>
        <pt x="522" y="1522" on="1"/>
        <pt x="561" y="1522" on="0"/>
        <pt x="647" y="1530" on="1"/>
        <pt x="741" y="1538" on="0"/>
        <pt x="791" y="1538" on="1"/>
        <pt x="1092" y="1538" on="0"/>
        <pt x="1371" y="1201" on="0"/>
        <pt x="1371" y="898" on="1"/>
        <pt x="1371" y="639" on="0"/>
        <pt x="1173" y="217" on="0"/>
        <pt x="815" y="-22" on="0"/>
        <pt x="586" y="-16" on="1"/>
        <pt x="523" y="-14" on="0"/>
        <pt x="474" y="-9" on="1"/>
        <pt x="432" y="-5" on="0"/>
        <pt x="316" y="0" on="0"/>
        <pt x="275" y="0" on="1"/>
        <pt x="26" y="0" on="1"/>
        <pt x="36" y="87" on="1"/>
      </contour>
      <contour>
        <pt x="390" y="132" on="1"/>
        <pt x="430" y="118" on="0"/>
        <pt x="578" y="102" on="0"/>
        <pt x="636" y="101" on="1"/>
        <pt x="814" y="113" on="0"/>
        <pt x="1050" y="342" on="0"/>
        <pt x="1161" y="688" on="0"/>
        <pt x="1161" y="883" on="1"/>
        <pt x="1161" y="1084" on="0"/>
        <pt x="1075" y="1318" on="0"/>
        <pt x="889" y="1422" on="0"/>
        <pt x="733" y="1422" on="1"/>
        <pt x="691" y="1422" on="0"/>
        <pt x="578" y="1409" on="0"/>
        <pt x="549" y="1401" on="1"/>
      </contour>
    </TTGlyph>
    <TTGlyph name="Dcaron" xMin="17" yMin="-22" xMax="1362" yMax="2001">
      <component glyphName="caron.cap" x="414" y="0" flags="0x0"/>
      <component glyphName="D" x="-9" y="0" flags="0x0"/>
    </TTGlyph>
    <TTGlyph name="Dcroat" xMin="17" yMin="-20" xMax="1362" yMax="1540">
      <contour>
        <pt x="267" y="853" on="1"/>
        <pt x="337" y="1400" on="1"/>
        <pt x="204" y="1423" on="1"/>
        <pt x="216" y="1524" on="1"/>
        <pt x="513" y="1524" on="1"/>
        <pt x="552" y="1524" on="0"/>
        <pt x="638" y="1532" on="1"/>
        <pt x="732" y="1540" on="0"/>
        <pt x="782" y="1540" on="1"/>
        <pt x="1083" y="1540" on="0"/>
        <pt x="1362" y="1203" on="0"/>
        <pt x="1362" y="900" on="1"/>
        <pt x="1362" y="641" on="0"/>
        <pt x="1164" y="219" on="0"/>
        <pt x="806" y="-20" on="0"/>
        <pt x="577" y="-14" on="1"/>
        <pt x="514" y="-12" on="0"/>
        <pt x="465" y="-7" on="1"/>
        <pt x="423" y="-3" on="0"/>
        <pt x="307" y="2" on="0"/>
        <pt x="266" y="2" on="1"/>
        <pt x="17" y="2" on="1"/>
        <pt x="27" y="89" on="1"/>
        <pt x="175" y="119" on="1"/>
        <pt x="251" y="721" on="1"/>
        <pt x="101" y="721" on="1"/>
        <pt x="117" y="853" on="1"/>
      </contour>
      <contour>
        <pt x="381" y="134" on="1"/>
        <pt x="421" y="120" on="0"/>
        <pt x="569" y="104" on="0"/>
        <pt x="627" y="103" on="1"/>
        <pt x="805" y="115" on="0"/>
        <pt x="1041" y="344" on="0"/>
        <pt x="1152" y="690" on="0"/>
        <pt x="1152" y="885" on="1"/>
        <pt x="1152" y="1086" on="0"/>
        <pt x="1066" y="1320" on="0"/>
        <pt x="880" y="1424" on="0"/>
        <pt x="724" y="1424" on="1"/>
        <pt x="682" y="1424" on="0"/>
        <pt x="569" y="1411" on="0"/>
        <pt x="540" y="1403" on="1"/>
        <pt x="471" y="853" on="1"/>
        <pt x="858" y="853" on="1"/>
        <pt x="841" y="721" on="1"/>
        <pt x="454" y="721" on="1"/>
      </contour>
    </TTGlyph>
    <TTGlyph name="E" xMin="25" yMin="0" xMax="1163" yMax="1522">
      <contour>
        <pt x="185" y="116" on="1"/>
        <pt x="345" y="1398" on="1"/>
        <pt x="212" y="1421" on="1"/>
        <pt x="224" y="1522" on="1"/>
        <pt x="1158" y="1522" on="1"/>
        <pt x="1150" y="1210" on="1"/>
        <pt x="1039" y="1210" on="1"/>
        <pt x="992" y="1399" on="1"/>
        <pt x="555" y="1414" on="1"/>
        <pt x="483" y="855" on="1"/>
        <pt x="931" y="863" on="1"/>
        <pt x="918" y="704" on="1"/>
        <pt x="471" y="721" on="1"/>
        <pt x="388" y="117" on="1"/>
        <pt x="935" y="141" on="1"/>
        <pt x="1054" y="352" on="1"/>
        <pt x="1163" y="322" on="1"/>
        <pt x="1075" y="0" on="1"/>
        <pt x="25" y="0" on="1"/>
        <pt x="36" y="87" on="1"/>
      </contour>
    </TTGlyph>
    <TTGlyph name="Eacute" xMin="25" yMin="0" xMax="1163" yMax="2001">
      <component glyphName="acute.cap" x="645" y="0" flags="0x0"/>
      <component glyphName="E" x="0" y="0" flags="0x0"/>
    </TTGlyph>
    <TTGlyph name="Ebreve" xMin="25" yMin="0" xMax="1163" yMax="1980">
      <component glyphName="breve.cap" x="429" y="0" flags="0x0"/>
      <component glyphName="E" x="0" y="0" flags="0x0"/>
    </TTGlyph>
    <TTGlyph name="Ecaron" xMin="25" yMin="0" xMax="1163" yMax="2001">
      <component glyphName="caron.cap" x="384" y="0" flags="0x0"/>
      <component glyphName="E" x="0" y="0" flags="0x0"/>
    </TTGlyph>
    <TTGlyph name="Ecircumflex" xMin="25" yMin="0" xMax="1163" yMax="2001">
      <component glyphName="E" x="0" y="0" flags="0x0"/>
      <component glyphName="circumflex.cap" x="384" y="0" flags="0x0"/>
    </TTGlyph>
    <TTGlyph name="Edieresis" xMin="25" yMin="0" xMax="1163" yMax="1990">
      <component glyphName="dieresis.cap" x="393" y="0" flags="0x0"/>
      <component glyphName="E" x="0" y="0" flags="0x0"/>
    </TTGlyph>
    <TTGlyph name="Edotaccent" xMin="25" yMin="0" xMax="1163" yMax="1955">
      <component glyphName="dotaccent.cap" x="599" y="0" flags="0x0"/>
      <component glyphName="E" x="0" y="0" flags="0x0"/>
    </TTGlyph>
    <TTGlyph name="Egrave" xMin="25" yMin="0" xMax="1163" yMax="2001">
      <component glyphName="grave.cap" x="405" y="0" flags="0x0"/>
      <component glyphName="E" x="0" y="0" flags="0x0"/>
    </TTGlyph>
    <TTGlyph name="Emacron" xMin="25" yMin="0" xMax="1163" yMax="1880">
      <component glyphName="macron.cap" x="458" y="0" flags="0x0"/>
      <component glyphName="E" x="0" y="0" flags="0x0"/>
    </TTGlyph>
    <TTGlyph name="Eng" xMin="31" yMin="-370" xMax="1552" yMax="1522">
      <contour>
        <pt x="175" y="115" on="1"/>
        <pt x="350" y="1398" on="1"/>
        <pt x="197" y="1421" on="1"/>
        <pt x="214" y="1522" on="1"/>
        <pt x="563" y="1522" on="1"/>
        <pt x="1036" y="426" on="1"/>
        <pt x="1097" y="231" on="1"/>
        <pt x="1232" y="1399" on="1"/>
        <pt x="1091" y="1421" on="1"/>
        <pt x="1103" y="1522" on="1"/>
        <pt x="1552" y="1522" on="1"/>
        <pt x="1542" y="1421" on="1"/>
        <pt x="1397" y="1398" on="1"/>
        <pt x="1198" y="0" on="1"/>
        <pt x="1175" y="-162" on="0"/>
        <pt x="909" y="-338" on="0"/>
        <pt x="733" y="-370" on="1"/>
        <pt x="697" y="-281" on="1"/>
        <pt x="815" y="-240" on="0"/>
        <pt x="989" y="-97" on="0"/>
        <pt x="1006" y="0" on="1"/>
        <pt x="529" y="1085" on="1"/>
        <pt x="471" y="1270" on="1"/>
        <pt x="350" y="117" on="1"/>
        <pt x="506" y="88" on="1"/>
        <pt x="497" y="0" on="1"/>
        <pt x="31" y="0" on="1"/>
        <pt x="39" y="87" on="1"/>
      </contour>
    </TTGlyph>
    <TTGlyph name="Eogonek" xMin="25" yMin="-419" xMax="1163" yMax="1522">
      <contour>
        <pt x="185" y="116" on="1"/>
        <pt x="345" y="1398" on="1"/>
        <pt x="212" y="1421" on="1"/>
        <pt x="224" y="1522" on="1"/>
        <pt x="1158" y="1522" on="1"/>
        <pt x="1150" y="1210" on="1"/>
        <pt x="1039" y="1210" on="1"/>
        <pt x="992" y="1399" on="1"/>
        <pt x="555" y="1414" on="1"/>
        <pt x="483" y="855" on="1"/>
        <pt x="931" y="863" on="1"/>
        <pt x="918" y="704" on="1"/>
        <pt x="471" y="721" on="1"/>
        <pt x="388" y="117" on="1"/>
        <pt x="935" y="141" on="1"/>
        <pt x="1054" y="352" on="1"/>
        <pt x="1163" y="322" on="1"/>
        <pt x="1075" y="0" on="1"/>
        <pt x="972" y="0" on="1"/>
        <pt x="894" y="-63" on="0"/>
        <pt x="812" y="-158" on="0"/>
        <pt x="811" y="-202" on="1"/>
        <pt x="808" y="-245" on="0"/>
        <pt x="843" y="-287" on="0"/>
        <pt x="864" y="-287" on="1"/>
        <pt x="892" y="-287" on="0"/>
        <pt x="954" y="-259" on="0"/>
        <pt x="995" y="-227" on="1"/>
        <pt x="1022" y="-322" on="1"/>
        <pt x="913" y="-419" on="0"/>
        <pt x="768" y="-419" on="1"/>
        <pt x="718" y="-419" on="0"/>
        <pt x="648" y="-381" on="0"/>
        <pt x="613" y="-320" on="0"/>
        <pt x="613" y="-287" on="1"/>
        <pt x="613" y="-253" on="0"/>
        <pt x="635" y="-181" on="0"/>
        <pt x="654" y="-157" on="1"/>
        <pt x="684" y="-118" on="0"/>
        <pt x="748" y="-62" on="0"/>
        <pt x="799" y="-30" on="0"/>
        <pt x="852" y="0" on="1"/>
        <pt x="25" y="0" on="1"/>
        <pt x="36" y="87" on="1"/>
      </contour>
    </TTGlyph>
    <TTGlyph name="Eth" xMin="17" yMin="-20" xMax="1362" yMax="1540">
      <contour>
        <pt x="267" y="853" on="1"/>
        <pt x="337" y="1400" on="1"/>
        <pt x="204" y="1423" on="1"/>
        <pt x="216" y="1524" on="1"/>
        <pt x="513" y="1524" on="1"/>
        <pt x="552" y="1524" on="0"/>
        <pt x="638" y="1532" on="1"/>
        <pt x="732" y="1540" on="0"/>
        <pt x="782" y="1540" on="1"/>
        <pt x="1083" y="1540" on="0"/>
        <pt x="1362" y="1203" on="0"/>
        <pt x="1362" y="900" on="1"/>
        <pt x="1362" y="641" on="0"/>
        <pt x="1164" y="219" on="0"/>
        <pt x="806" y="-20" on="0"/>
        <pt x="577" y="-14" on="1"/>
        <pt x="514" y="-12" on="0"/>
        <pt x="465" y="-7" on="1"/>
        <pt x="423" y="-3" on="0"/>
        <pt x="307" y="2" on="0"/>
        <pt x="266" y="2" on="1"/>
        <pt x="17" y="2" on="1"/>
        <pt x="27" y="89" on="1"/>
        <pt x="175" y="119" on="1"/>
        <pt x="251" y="721" on="1"/>
        <pt x="101" y="721" on="1"/>
        <pt x="117" y="853" on="1"/>
      </contour>
      <contour>
        <pt x="381" y="134" on="1"/>
        <pt x="421" y="120" on="0"/>
        <pt x="569" y="104" on="0"/>
        <pt x="627" y="103" on="1"/>
        <pt x="805" y="115" on="0"/>
        <pt x="1041" y="344" on="0"/>
        <pt x="1152" y="690" on="0"/>
        <pt x="1152" y="885" on="1"/>
        <pt x="1152" y="1086" on="0"/>
        <pt x="1066" y="1320" on="0"/>
        <pt x="880" y="1424" on="0"/>
        <pt x="724" y="1424" on="1"/>
        <pt x="682" y="1424" on="0"/>
        <pt x="569" y="1411" on="0"/>
        <pt x="540" y="1403" on="1"/>
        <pt x="471" y="853" on="1"/>
        <pt x="858" y="853" on="1"/>
        <pt x="841" y="721" on="1"/>
        <pt x="454" y="721" on="1"/>
      </contour>
    </TTGlyph>
    <TTGlyph name="Euro" xMin="26" yMin="-16" xMax="1319" yMax="1538">
      <contour>
        <pt x="283" y="1025" on="1"/>
        <pt x="339" y="1183" on="0"/>
        <pt x="537" y="1415" on="0"/>
        <pt x="792" y="1538" on="0"/>
        <pt x="931" y="1538" on="1"/>
        <pt x="1003" y="1538" on="0"/>
        <pt x="1116" y="1522" on="0"/>
        <pt x="1187" y="1503" on="0"/>
        <pt x="1245" y="1484" on="1"/>
        <pt x="1291" y="1471" on="0"/>
        <pt x="1319" y="1464" on="1"/>
        <pt x="1265" y="1241" on="1"/>
        <pt x="1156" y="1241" on="1"/>
        <pt x="1128" y="1348" on="1"/>
        <pt x="1063" y="1419" on="0"/>
        <pt x="878" y="1419" on="1"/>
        <pt x="733" y="1419" on="0"/>
        <pt x="529" y="1214" on="0"/>
        <pt x="478" y="1025" on="1"/>
        <pt x="1045" y="1025" on="1"/>
        <pt x="1025" y="894" on="1"/>
        <pt x="450" y="894" on="1"/>
        <pt x="436" y="806" on="0"/>
        <pt x="431" y="695" on="1"/>
        <pt x="978" y="695" on="1"/>
        <pt x="965" y="563" on="1"/>
        <pt x="430" y="563" on="1"/>
        <pt x="437" y="344" on="0"/>
        <pt x="582" y="103" on="0"/>
        <pt x="725" y="103" on="1"/>
        <pt x="814" y="103" on="0"/>
        <pt x="972" y="155" on="0"/>
        <pt x="1007" y="206" on="1"/>
        <pt x="1075" y="343" on="1"/>
        <pt x="1196" y="342" on="1"/>
        <pt x="1150" y="70" on="1"/>
        <pt x="1105" y="67" on="0"/>
        <pt x="1020" y="44" on="1"/>
        <pt x="934" y="16" on="0"/>
        <pt x="785" y="-16" on="0"/>
        <pt x="694" y="-16" on="1"/>
        <pt x="546" y="-16" on="0"/>
        <pt x="344" y="145" on="0"/>
        <pt x="238" y="407" on="0"/>
        <pt x="226" y="563" on="1"/>
        <pt x="26" y="563" on="1"/>
        <pt x="41" y="695" on="1"/>
        <pt x="223" y="695" on="1"/>
        <pt x="227" y="799" on="0"/>
        <pt x="247" y="894" on="1"/>
        <pt x="89" y="894" on="1"/>
        <pt x="108" y="1025" on="1"/>
      </contour>
    </TTGlyph>
    <TTGlyph name="F" xMin="28" yMin="0" xMax="1200" yMax="1522">
      <contour>
        <pt x="185" y="117" on="1"/>
        <pt x="345" y="1398" on="1"/>
        <pt x="212" y="1421" on="1"/>
        <pt x="224" y="1522" on="1"/>
        <pt x="1200" y="1522" on="1"/>
        <pt x="1177" y="1209" on="1"/>
        <pt x="1052" y="1209" on="1"/>
        <pt x="1023" y="1393" on="1"/>
        <pt x="551" y="1412" on="1"/>
        <pt x="483" y="854" on="1"/>
        <pt x="954" y="863" on="1"/>
        <pt x="941" y="702" on="1"/>
        <pt x="471" y="720" on="1"/>
        <pt x="389" y="119" on="1"/>
        <pt x="658" y="88" on="1"/>
        <pt x="650" y="0" on="1"/>
        <pt x="28" y="0" on="1"/>
        <pt x="36" y="88" on="1"/>
      </contour>
    </TTGlyph>
    <TTGlyph name="G" xMin="100" yMin="-16" xMax="1282" yMax="1538">
      <contour>
        <pt x="975" y="1538" on="0"/>
        <pt x="1159" y="1506" on="0"/>
        <pt x="1243" y="1482" on="1"/>
        <pt x="1282" y="1471" on="1"/>
        <pt x="1224" y="1174" on="1"/>
        <pt x="1093" y="1174" on="1"/>
        <pt x="1071" y="1357" on="1"/>
        <pt x="1035" y="1387" on="0"/>
        <pt x="919" y="1420" on="0"/>
        <pt x="818" y="1420" on="1"/>
        <pt x="642" y="1420" on="0"/>
        <pt x="416" y="1183" on="0"/>
        <pt x="315" y="837" on="0"/>
        <pt x="315" y="666" on="1"/>
        <pt x="315" y="521" on="0"/>
        <pt x="386" y="265" on="0"/>
        <pt x="542" y="102" on="0"/>
        <pt x="662" y="102" on="1"/>
        <pt x="859" y="102" on="0"/>
        <pt x="951" y="193" on="1"/>
        <pt x="1008" y="590" on="1"/>
        <pt x="775" y="607" on="1"/>
        <pt x="788" y="724" on="1"/>
        <pt x="1235" y="724" on="1"/>
        <pt x="1145" y="94" on="1"/>
        <pt x="1118" y="91" on="0"/>
        <pt x="1055" y="73" on="0"/>
        <pt x="1048" y="71" on="1"/>
        <pt x="1013" y="60" on="0"/>
        <pt x="1015" y="61" on="1"/>
        <pt x="895" y="25" on="0"/>
        <pt x="707" y="-16" on="0"/>
        <pt x="602" y="-16" on="1"/>
        <pt x="430" y="-16" on="0"/>
        <pt x="204" y="176" on="0"/>
        <pt x="100" y="479" on="0"/>
        <pt x="100" y="650" on="1"/>
        <pt x="100" y="910" on="0"/>
        <pt x="301" y="1315" on="0"/>
        <pt x="641" y="1538" on="0"/>
        <pt x="840" y="1538" on="1"/>
      </contour>
    </TTGlyph>
    <TTGlyph name="Gbreve" xMin="100" yMin="-16" xMax="1282" yMax="1980">
      <component glyphName="breve.cap" x="495" y="0" flags="0x0"/>
      <component glyphName="G" x="0" y="0" flags="0x0"/>
    </TTGlyph>
    <TTGlyph name="Gcaron" xMin="100" yMin="-16" xMax="1282" yMax="2001">
      <component glyphName="G" x="0" y="0" flags="0x0"/>
      <component glyphName="caron.cap" x="451" y="0" flags="0x0"/>
    </TTGlyph>
    <TTGlyph name="Gcircumflex" xMin="100" yMin="-16" xMax="1282" yMax="2001">
      <component glyphName="G" x="0" y="0" flags="0x0"/>
      <component glyphName="circumflex.cap" x="451" y="0" flags="0x0"/>
    </TTGlyph>
    <TTGlyph name="Gcommaaccent" xMin="100" yMin="-560" xMax="1282" yMax="1538">
      <component glyphName="uni0326" x="851" y="0" flags="0x0"/>
      <component glyphName="G" x="0" y="0" flags="0x0"/>
    </TTGlyph>
    <TTGlyph name="Gdotaccent" xMin="100" yMin="-16" xMax="1282" yMax="1955">
      <component glyphName="dotaccent.cap" x="665" y="0" flags="0x0"/>
      <component glyphName="G" x="0" y="0" flags="0x0"/>
    </TTGlyph>
    <TTGlyph name="Gtilde" xMin="100" yMin="-16" xMax="1282" yMax="1971">
      <component glyphName="G" x="0" y="0" flags="0x0"/>
      <component glyphName="tilde.cap" x="460" y="0" flags="0x0"/>
    </TTGlyph>
    <TTGlyph name="H" xMin="28" yMin="0" xMax="1554" yMax="1522">
      <contour>
        <pt x="1040" y="118" on="1"/>
        <pt x="1114" y="714" on="1"/>
        <pt x="464" y="714" on="1"/>
        <pt x="389" y="117" on="1"/>
        <pt x="547" y="88" on="1"/>
        <pt x="539" y="0" on="1"/>
        <pt x="28" y="0" on="1"/>
        <pt x="38" y="87" on="1"/>
        <pt x="185" y="117" on="1"/>
        <pt x="346" y="1398" on="1"/>
        <pt x="213" y="1421" on="1"/>
        <pt x="225" y="1522" on="1"/>
        <pt x="716" y="1522" on="1"/>
        <pt x="705" y="1421" on="1"/>
        <pt x="551" y="1398" on="1"/>
        <pt x="481" y="844" on="1"/>
        <pt x="1130" y="844" on="1"/>
        <pt x="1200" y="1398" on="1"/>
        <pt x="1049" y="1421" on="1"/>
        <pt x="1059" y="1522" on="1"/>
        <pt x="1554" y="1522" on="1"/>
        <pt x="1542" y="1421" on="1"/>
        <pt x="1404" y="1398" on="1"/>
        <pt x="1243" y="118" on="1"/>
        <pt x="1395" y="87" on="1"/>
        <pt x="1386" y="0" on="1"/>
        <pt x="868" y="0" on="1"/>
        <pt x="876" y="88" on="1"/>
      </contour>
    </TTGlyph>
    <TTGlyph name="Hbar" xMin="19" yMin="0" xMax="1561" yMax="1522">
      <contour>
        <pt x="1031" y="118" on="1"/>
        <pt x="1094" y="622" on="1"/>
        <pt x="443" y="622" on="1"/>
        <pt x="380" y="117" on="1"/>
        <pt x="537" y="88" on="1"/>
        <pt x="529" y="0" on="1"/>
        <pt x="19" y="0" on="1"/>
        <pt x="28" y="87" on="1"/>
        <pt x="176" y="117" on="1"/>
        <pt x="286" y="992" on="1"/>
        <pt x="91" y="992" on="1"/>
        <pt x="105" y="1122" on="1"/>
        <pt x="302" y="1122" on="1"/>
        <pt x="337" y="1398" on="1"/>
        <pt x="203" y="1421" on="1"/>
        <pt x="215" y="1522" on="1"/>
        <pt x="706" y="1522" on="1"/>
        <pt x="695" y="1421" on="1"/>
        <pt x="541" y="1398" on="1"/>
        <pt x="506" y="1122" on="1"/>
        <pt x="1156" y="1122" on="1"/>
        <pt x="1191" y="1398" on="1"/>
        <pt x="1040" y="1421" on="1"/>
        <pt x="1050" y="1522" on="1"/>
        <pt x="1545" y="1522" on="1"/>
        <pt x="1533" y="1421" on="1"/>
        <pt x="1394" y="1398" on="1"/>
        <pt x="1359" y="1122" on="1"/>
        <pt x="1561" y="1122" on="1"/>
        <pt x="1547" y="992" on="1"/>
        <pt x="1343" y="992" on="1"/>
        <pt x="1234" y="118" on="1"/>
        <pt x="1385" y="87" on="1"/>
        <pt x="1376" y="0" on="1"/>
        <pt x="858" y="0" on="1"/>
        <pt x="867" y="88" on="1"/>
      </contour>
      <contour>
        <pt x="1110" y="752" on="1"/>
        <pt x="1140" y="992" on="1"/>
        <pt x="490" y="992" on="1"/>
        <pt x="460" y="752" on="1"/>
      </contour>
    </TTGlyph>
    <TTGlyph name="Hcircumflex" xMin="28" yMin="0" xMax="1554" yMax="2001">
      <component glyphName="H" x="0" y="0" flags="0x0"/>
      <component glyphName="circumflex.cap" x="514" y="0" flags="0x0"/>
    </TTGlyph>
    <TTGlyph name="I" xMin="28" yMin="0" xMax="715" yMax="1522">
      <contour>
        <pt x="185" y="117" on="1"/>
        <pt x="346" y="1398" on="1"/>
        <pt x="213" y="1421" on="1"/>
        <pt x="225" y="1522" on="1"/>
        <pt x="715" y="1522" on="1"/>
        <pt x="704" y="1421" on="1"/>
        <pt x="551" y="1398" on="1"/>
        <pt x="389" y="117" on="1"/>
        <pt x="547" y="88" on="1"/>
        <pt x="539" y="0" on="1"/>
        <pt x="28" y="0" on="1"/>
        <pt x="37" y="87" on="1"/>
      </contour>
    </TTGlyph>
    <TTGlyph name="IJ" xMin="28" yMin="-345" xMax="1437" yMax="1522">
      <component glyphName="I" x="0" y="0" flags="0x0"/>
      <component glyphName="J" x="708" y="0" flags="0x0"/>
    </TTGlyph>
    <TTGlyph name="IJ_acutecomb" xMin="28" yMin="-345" xMax="1458" yMax="2003">
      <contour>
        <pt x="1332" y="2003" on="1"/>
        <pt x="1458" y="1882" on="1"/>
        <pt x="1434" y="1830" on="0"/>
        <pt x="1313" y="1720" on="0"/>
        <pt x="1172" y="1632" on="0"/>
        <pt x="1121" y="1613" on="1"/>
        <pt x="1056" y="1661" on="1"/>
      </contour>
      <contour>
        <pt x="703" y="2001" on="1"/>
        <pt x="829" y="1880" on="1"/>
        <pt x="805" y="1828" on="0"/>
        <pt x="684" y="1718" on="0"/>
        <pt x="543" y="1630" on="0"/>
        <pt x="492" y="1611" on="1"/>
        <pt x="427" y="1659" on="1"/>
      </contour>
      <contour>
        <pt x="185" y="117" on="1"/>
        <pt x="346" y="1398" on="1"/>
        <pt x="213" y="1421" on="1"/>
        <pt x="225" y="1522" on="1"/>
        <pt x="715" y="1522" on="1"/>
        <pt x="704" y="1421" on="1"/>
        <pt x="551" y="1398" on="1"/>
        <pt x="389" y="117" on="1"/>
        <pt x="547" y="88" on="1"/>
        <pt x="539" y="0" on="1"/>
        <pt x="28" y="0" on="1"/>
        <pt x="37" y="87" on="1"/>
      </contour>
      <contour>
        <pt x="933" y="1421" on="1"/>
        <pt x="947" y="1522" on="1"/>
        <pt x="1437" y="1522" on="1"/>
        <pt x="1426" y="1421" on="1"/>
        <pt x="1271" y="1399" on="1"/>
        <pt x="1253" y="1230" on="0"/>
        <pt x="1248" y="1182" on="1"/>
        <pt x="1185" y="600" on="0"/>
        <pt x="1129" y="131" on="0"/>
        <pt x="1110" y="75" on="1"/>
        <pt x="1050" y="-113" on="0"/>
        <pt x="767" y="-316" on="0"/>
        <pt x="592" y="-345" on="1"/>
        <pt x="556" y="-256" on="1"/>
        <pt x="643" y="-231" on="0"/>
        <pt x="795" y="-120" on="0"/>
        <pt x="897" y="20" on="0"/>
        <pt x="912" y="86" on="1"/>
        <pt x="951" y="267" on="0"/>
        <pt x="1003" y="681" on="0"/>
        <pt x="1032" y="990" on="1"/>
        <pt x="1058" y="1261" on="0"/>
        <pt x="1074" y="1398" on="1"/>
      </contour>
    </TTGlyph>
    <TTGlyph name="Iacute" xMin="28" yMin="0" xMax="829" yMax="2001">
      <component glyphName="I" x="0" y="0" flags="0x0"/>
      <component glyphName="acute.cap" x="390" y="0" flags="0x0"/>
    </TTGlyph>
    <TTGlyph name="Ibreve" xMin="28" yMin="0" xMax="852" yMax="1980">
      <component glyphName="I" x="0" y="0" flags="0x0"/>
      <component glyphName="breve.cap" x="174" y="0" flags="0x0"/>
    </TTGlyph>
    <TTGlyph name="Icircumflex" xMin="28" yMin="0" xMax="875" yMax="2001">
      <component glyphName="I" x="0" y="0" flags="0x0"/>
      <component glyphName="circumflex.cap" x="129" y="0" flags="0x0"/>
    </TTGlyph>
    <TTGlyph name="Idieresis" xMin="28" yMin="0" xMax="890" yMax="1990">
      <component glyphName="I" x="0" y="0" flags="0x0"/>
      <component glyphName="dieresis.cap" x="138" y="0" flags="0x0"/>
    </TTGlyph>
    <TTGlyph name="Idotaccent" xMin="28" yMin="0" xMax="715" yMax="1955">
      <component glyphName="I" x="0" y="0" flags="0x0"/>
      <component glyphName="dotaccent.cap" x="344" y="0" flags="0x0"/>
    </TTGlyph>
    <TTGlyph name="Igrave" xMin="28" yMin="0" xMax="715" yMax="2001">
      <component glyphName="I" x="0" y="0" flags="0x0"/>
      <component glyphName="grave.cap" x="150" y="0" flags="0x0"/>
    </TTGlyph>
    <TTGlyph name="Imacron" xMin="28" yMin="0" xMax="784" yMax="1880">
      <component glyphName="I" x="0" y="0" flags="0x0"/>
      <component glyphName="macron.cap" x="203" y="0" flags="0x0"/>
    </TTGlyph>
    <TTGlyph name="Iogonek" xMin="-11" yMin="-419" xMax="715" yMax="1522">
      <contour>
        <pt x="185" y="117" on="1"/>
        <pt x="346" y="1398" on="1"/>
        <pt x="213" y="1421" on="1"/>
        <pt x="225" y="1522" on="1"/>
        <pt x="715" y="1522" on="1"/>
        <pt x="704" y="1421" on="1"/>
        <pt x="551" y="1398" on="1"/>
        <pt x="389" y="117" on="1"/>
        <pt x="547" y="88" on="1"/>
        <pt x="539" y="0" on="1"/>
        <pt x="347" y="0" on="1"/>
        <pt x="269" y="-62" on="0"/>
        <pt x="188" y="-158" on="0"/>
        <pt x="187" y="-202" on="1"/>
        <pt x="184" y="-245" on="0"/>
        <pt x="218" y="-287" on="0"/>
        <pt x="240" y="-287" on="1"/>
        <pt x="268" y="-287" on="0"/>
        <pt x="330" y="-259" on="0"/>
        <pt x="371" y="-227" on="1"/>
        <pt x="397" y="-322" on="1"/>
        <pt x="350" y="-364" on="0"/>
        <pt x="224" y="-419" on="0"/>
        <pt x="144" y="-419" on="1"/>
        <pt x="94" y="-419" on="0"/>
        <pt x="24" y="-381" on="0"/>
        <pt x="-11" y="-320" on="0"/>
        <pt x="-11" y="-287" on="1"/>
        <pt x="-11" y="-253" on="0"/>
        <pt x="11" y="-181" on="0"/>
        <pt x="30" y="-157" on="1"/>
        <pt x="60" y="-118" on="0"/>
        <pt x="124" y="-62" on="0"/>
        <pt x="178" y="-28" on="0"/>
        <pt x="228" y="0" on="1"/>
        <pt x="28" y="0" on="1"/>
        <pt x="37" y="87" on="1"/>
      </contour>
    </TTGlyph>
    <TTGlyph name="Itilde" xMin="28" yMin="0" xMax="893" yMax="1971">
      <component glyphName="I" x="0" y="0" flags="0x0"/>
      <component glyphName="tilde.cap" x="138" y="0" flags="0x0"/>
    </TTGlyph>
    <TTGlyph name="J" xMin="-152" yMin="-345" xMax="729" yMax="1522">
      <contour>
        <pt x="225" y="1421" on="1"/>
        <pt x="239" y="1522" on="1"/>
        <pt x="729" y="1522" on="1"/>
        <pt x="718" y="1421" on="1"/>
        <pt x="563" y="1399" on="1"/>
        <pt x="545" y="1230" on="0"/>
        <pt x="540" y="1182" on="1"/>
        <pt x="477" y="600" on="0"/>
        <pt x="421" y="131" on="0"/>
        <pt x="402" y="75" on="1"/>
        <pt x="342" y="-113" on="0"/>
        <pt x="59" y="-316" on="0"/>
        <pt x="-116" y="-345" on="1"/>
        <pt x="-152" y="-256" on="1"/>
        <pt x="-65" y="-231" on="0"/>
        <pt x="87" y="-120" on="0"/>
        <pt x="189" y="20" on="0"/>
        <pt x="204" y="86" on="1"/>
        <pt x="243" y="267" on="0"/>
        <pt x="295" y="681" on="0"/>
        <pt x="324" y="990" on="1"/>
        <pt x="350" y="1261" on="0"/>
        <pt x="366" y="1398" on="1"/>
      </contour>
    </TTGlyph>
    <TTGlyph name="Jcircumflex" xMin="-152" yMin="-345" xMax="866" yMax="2001">
      <component glyphName="J" x="0" y="0" flags="0x0"/>
      <component glyphName="circumflex.cap" x="120" y="0" flags="0x0"/>
    </TTGlyph>
    <TTGlyph name="K" xMin="28" yMin="0" xMax="1386" yMax="1522">
      <contour>
        <pt x="705" y="543" on="0"/>
        <pt x="619" y="695" on="1"/>
        <pt x="437" y="497" on="1"/>
        <pt x="389" y="117" on="1"/>
        <pt x="547" y="88" on="1"/>
        <pt x="539" y="0" on="1"/>
        <pt x="28" y="0" on="1"/>
        <pt x="37" y="87" on="1"/>
        <pt x="185" y="117" on="1"/>
        <pt x="346" y="1398" on="1"/>
        <pt x="213" y="1421" on="1"/>
        <pt x="225" y="1522" on="1"/>
        <pt x="715" y="1522" on="1"/>
        <pt x="704" y="1421" on="1"/>
        <pt x="550" y="1398" on="1"/>
        <pt x="461" y="688" on="1"/>
        <pt x="1072" y="1398" on="1"/>
        <pt x="954" y="1421" on="1"/>
        <pt x="966" y="1522" on="1"/>
        <pt x="1386" y="1522" on="1"/>
        <pt x="1372" y="1421" on="1"/>
        <pt x="1268" y="1398" on="1"/>
        <pt x="743" y="829" on="1"/>
        <pt x="828" y="684" on="1"/>
        <pt x="959" y="461" on="0"/>
        <pt x="981" y="425" on="1"/>
        <pt x="1076" y="269" on="0"/>
        <pt x="1155" y="156" on="0"/>
        <pt x="1185" y="138" on="1"/>
        <pt x="1315" y="94" on="1"/>
        <pt x="1301" y="0" on="1"/>
        <pt x="1023" y="0" on="1"/>
        <pt x="994" y="4" on="0"/>
        <pt x="900" y="162" on="0"/>
        <pt x="835" y="291" on="1"/>
        <pt x="804" y="352" on="1"/>
      </contour>
    </TTGlyph>
    <TTGlyph name="Kcommaaccent" xMin="19" yMin="-558" xMax="1377" yMax="1522">
      <component glyphName="uni0326" x="871" y="2" flags="0x4"/>
      <component glyphName="K" x="-9" y="0" flags="0x0"/>
    </TTGlyph>
    <TTGlyph name="L" xMin="29" yMin="0" xMax="1111" yMax="1522">
      <contour>
        <pt x="185" y="117" on="1"/>
        <pt x="346" y="1398" on="1"/>
        <pt x="213" y="1421" on="1"/>
        <pt x="225" y="1522" on="1"/>
        <pt x="749" y="1522" on="1"/>
        <pt x="738" y="1421" on="1"/>
        <pt x="550" y="1398" on="1"/>
        <pt x="389" y="117" on="1"/>
        <pt x="853" y="128" on="1"/>
        <pt x="992" y="460" on="1"/>
        <pt x="1111" y="437" on="1"/>
        <pt x="1015" y="0" on="1"/>
        <pt x="29" y="0" on="1"/>
        <pt x="37" y="88" on="1"/>
      </contour>
    </TTGlyph>
    <TTGlyph name="Lacute" xMin="29" yMin="0" xMax="1111" yMax="2003">
      <component glyphName="acute.cap" x="374" y="2" flags="0x4"/>
      <component glyphName="L" x="0" y="0" flags="0x0"/>
    </TTGlyph>
    <TTGlyph name="Lcaron" xMin="29" yMin="0" xMax="1140" yMax="1650">
      <component glyphName="L" x="0" y="0" flags="0x0"/>
      <component glyphName="caronvertical" x="712" y="-30" flags="0x4"/>
    </TTGlyph>
    <TTGlyph name="Lcommaaccent" xMin="29" yMin="-558" xMax="1111" yMax="1522">
      <component glyphName="uni0326" x="774" y="2" flags="0x4"/>
      <component glyphName="L" x="0" y="0" flags="0x0"/>
    </TTGlyph>
    <TTGlyph name="Ldot" xMin="29" yMin="0" xMax="1174" yMax="1522">
      <component glyphName="L" x="0" y="0" flags="0x0"/>
      <component glyphName="period" x="807" y="734" flags="0x4"/>
    </TTGlyph>
    <TTGlyph name="Lslash" xMin="29" yMin="2" xMax="1111" yMax="1524">
      <contour>
        <pt x="257" y="692" on="1"/>
        <pt x="346" y="1400" on="1"/>
        <pt x="213" y="1423" on="1"/>
        <pt x="225" y="1524" on="1"/>
        <pt x="749" y="1524" on="1"/>
        <pt x="738" y="1423" on="1"/>
        <pt x="550" y="1400" on="1"/>
        <pt x="472" y="785" on="1"/>
        <pt x="871" y="957" on="1"/>
        <pt x="906" y="830" on="1"/>
        <pt x="454" y="640" on="1"/>
        <pt x="389" y="119" on="1"/>
        <pt x="853" y="130" on="1"/>
        <pt x="992" y="462" on="1"/>
        <pt x="1111" y="439" on="1"/>
        <pt x="1015" y="2" on="1"/>
        <pt x="29" y="2" on="1"/>
        <pt x="37" y="90" on="1"/>
        <pt x="185" y="119" on="1"/>
        <pt x="239" y="550" on="1"/>
        <pt x="80" y="483" on="1"/>
        <pt x="44" y="601" on="1"/>
      </contour>
    </TTGlyph>
    <TTGlyph name="M" xMin="-54" yMin="-18" xMax="1854" yMax="1522">
      <contour>
        <pt x="116" y="117" on="1"/>
        <pt x="433" y="1398" on="1"/>
        <pt x="272" y="1421" on="1"/>
        <pt x="284" y="1522" on="1"/>
        <pt x="731" y="1522" on="1"/>
        <pt x="895" y="478" on="1"/>
        <pt x="910" y="311" on="1"/>
        <pt x="975" y="478" on="1"/>
        <pt x="1046" y="650" on="0"/>
        <pt x="1208" y="1014" on="1"/>
        <pt x="1369" y="1375" on="0"/>
        <pt x="1430" y="1522" on="1"/>
        <pt x="1854" y="1522" on="1"/>
        <pt x="1843" y="1421" on="1"/>
        <pt x="1678" y="1398" on="1"/>
        <pt x="1653" y="118" on="1"/>
        <pt x="1807" y="88" on="1"/>
        <pt x="1798" y="0" on="1"/>
        <pt x="1265" y="0" on="1"/>
        <pt x="1274" y="88" on="1"/>
        <pt x="1450" y="116" on="1"/>
        <pt x="1487" y="1017" on="1"/>
        <pt x="1517" y="1420" on="1"/>
        <pt x="1380" y="1065" on="1"/>
        <pt x="909" y="-3" on="1"/>
        <pt x="797" y="-18" on="1"/>
        <pt x="625" y="1041" on="1"/>
        <pt x="564" y="1418" on="1"/>
        <pt x="492" y="1031" on="1"/>
        <pt x="280" y="117" on="1"/>
        <pt x="467" y="88" on="1"/>
        <pt x="458" y="0" on="1"/>
        <pt x="-54" y="0" on="1"/>
        <pt x="-44" y="88" on="1"/>
      </contour>
    </TTGlyph>
    <TTGlyph name="N" xMin="32" yMin="0" xMax="1557" yMax="1522">
      <contour>
        <pt x="176" y="115" on="1"/>
        <pt x="346" y="1398" on="1"/>
        <pt x="199" y="1421" on="1"/>
        <pt x="216" y="1522" on="1"/>
        <pt x="564" y="1522" on="1"/>
        <pt x="1028" y="423" on="1"/>
        <pt x="1099" y="190" on="1"/>
        <pt x="1243" y="1398" on="1"/>
        <pt x="1092" y="1421" on="1"/>
        <pt x="1104" y="1522" on="1"/>
        <pt x="1557" y="1522" on="1"/>
        <pt x="1547" y="1421" on="1"/>
        <pt x="1402" y="1398" on="1"/>
        <pt x="1199" y="0" on="1"/>
        <pt x="1004" y="0" on="1"/>
        <pt x="534" y="1104" on="1"/>
        <pt x="472" y="1326" on="1"/>
        <pt x="345" y="117" on="1"/>
        <pt x="507" y="88" on="1"/>
        <pt x="498" y="0" on="1"/>
        <pt x="32" y="0" on="1"/>
        <pt x="40" y="87" on="1"/>
      </contour>
    </TTGlyph>
    <TTGlyph name="Nacute" xMin="32" yMin="0" xMax="1557" yMax="2001">
      <component glyphName="acute.cap" x="753" y="0" flags="0x0"/>
      <component glyphName="N" x="0" y="0" flags="0x0"/>
    </TTGlyph>
    <TTGlyph name="Ncaron" xMin="32" yMin="0" xMax="1557" yMax="2001">
      <component glyphName="caron.cap" x="492" y="0" flags="0x0"/>
      <component glyphName="N" x="0" y="0" flags="0x0"/>
    </TTGlyph>
    <TTGlyph name="Ncommaaccent" xMin="32" yMin="-560" xMax="1557" yMax="1522">
      <component glyphName="uni0326" x="892" y="0" flags="0x0"/>
      <component glyphName="N" x="0" y="0" flags="0x0"/>
    </TTGlyph>
    <TTGlyph name="Ntilde" xMin="32" yMin="0" xMax="1557" yMax="1971">
      <component glyphName="tilde.cap" x="501" y="0" flags="0x0"/>
      <component glyphName="N" x="0" y="0" flags="0x0"/>
    </TTGlyph>
    <TTGlyph name="O" xMin="119" yMin="-20" xMax="1313" yMax="1542">
      <contour>
        <pt x="978" y="1542" on="0"/>
        <pt x="1204" y="1367" on="0"/>
        <pt x="1313" y="1071" on="0"/>
        <pt x="1313" y="888" on="1"/>
        <pt x="1313" y="632" on="0"/>
        <pt x="1133" y="217" on="0"/>
        <pt x="817" y="-20" on="0"/>
        <pt x="620" y="-20" on="1"/>
        <pt x="454" y="-20" on="0"/>
        <pt x="228" y="158" on="0"/>
        <pt x="119" y="458" on="0"/>
        <pt x="119" y="642" on="1"/>
        <pt x="119" y="897" on="0"/>
        <pt x="299" y="1308" on="0"/>
        <pt x="616" y="1542" on="0"/>
        <pt x="812" y="1542" on="1"/>
      </contour>
      <contour>
        <pt x="1099" y="1025" on="0"/>
        <pt x="1027" y="1278" on="0"/>
        <pt x="883" y="1417" on="0"/>
        <pt x="778" y="1417" on="1"/>
        <pt x="651" y="1417" on="0"/>
        <pt x="445" y="1226" on="0"/>
        <pt x="327" y="886" on="0"/>
        <pt x="327" y="672" on="1"/>
        <pt x="327" y="502" on="0"/>
        <pt x="399" y="244" on="0"/>
        <pt x="543" y="100" on="0"/>
        <pt x="648" y="100" on="1"/>
        <pt x="775" y="100" on="0"/>
        <pt x="981" y="294" on="0"/>
        <pt x="1099" y="638" on="0"/>
        <pt x="1099" y="853" on="1"/>
      </contour>
    </TTGlyph>
    <TTGlyph name="OE" xMin="100" yMin="-20" xMax="2025" yMax="1539">
      <contour>
        <pt x="958" y="1539" on="0"/>
        <pt x="1170" y="1375" on="0"/>
        <pt x="1226" y="1230" on="1"/>
        <pt x="1261" y="1522" on="1"/>
        <pt x="2025" y="1522" on="1"/>
        <pt x="2017" y="1229" on="1"/>
        <pt x="1906" y="1229" on="1"/>
        <pt x="1859" y="1399" on="1"/>
        <pt x="1462" y="1414" on="1"/>
        <pt x="1387" y="847" on="1"/>
        <pt x="1788" y="871" on="1"/>
        <pt x="1772" y="704" on="1"/>
        <pt x="1377" y="721" on="1"/>
        <pt x="1303" y="117" on="1"/>
        <pt x="1814" y="141" on="1"/>
        <pt x="1910" y="331" on="1"/>
        <pt x="2018" y="300" on="1"/>
        <pt x="1953" y="0" on="1"/>
        <pt x="1081" y="0" on="1"/>
        <pt x="1111" y="259" on="1"/>
        <pt x="1021" y="127" on="0"/>
        <pt x="768" y="-20" on="0"/>
        <pt x="619" y="-20" on="1"/>
        <pt x="463" y="-20" on="0"/>
        <pt x="228" y="140" on="0"/>
        <pt x="100" y="440" on="0"/>
        <pt x="100" y="644" on="1"/>
        <pt x="100" y="899" on="0"/>
        <pt x="289" y="1308" on="0"/>
        <pt x="613" y="1539" on="0"/>
        <pt x="807" y="1539" on="1"/>
      </contour>
      <contour>
        <pt x="1098" y="1139" on="0"/>
        <pt x="937" y="1414" on="0"/>
        <pt x="774" y="1414" on="1"/>
        <pt x="645" y="1414" on="0"/>
        <pt x="430" y="1227" on="0"/>
        <pt x="308" y="903" on="0"/>
        <pt x="311" y="708" on="1"/>
        <pt x="317" y="410" on="0"/>
        <pt x="472" y="100" on="0"/>
        <pt x="649" y="100" on="1"/>
        <pt x="776" y="100" on="0"/>
        <pt x="981" y="293" on="0"/>
        <pt x="1098" y="632" on="0"/>
        <pt x="1098" y="842" on="1"/>
      </contour>
    </TTGlyph>
    <TTGlyph name="Oacute" xMin="119" yMin="-20" xMax="1313" yMax="2001">
      <component glyphName="acute.cap" x="710" y="0" flags="0x0"/>
      <component glyphName="O" x="0" y="0" flags="0x0"/>
    </TTGlyph>
    <TTGlyph name="Obreve" xMin="119" yMin="-20" xMax="1313" yMax="1980">
      <component glyphName="breve.cap" x="494" y="0" flags="0x0"/>
      <component glyphName="O" x="0" y="0" flags="0x0"/>
    </TTGlyph>
    <TTGlyph name="Ocircumflex" xMin="119" yMin="-20" xMax="1313" yMax="2001">
      <component glyphName="O" x="0" y="0" flags="0x0"/>
      <component glyphName="circumflex.cap" x="449" y="0" flags="0x0"/>
    </TTGlyph>
    <TTGlyph name="Odieresis" xMin="119" yMin="-20" xMax="1313" yMax="1990">
      <component glyphName="dieresis.cap" x="458" y="0" flags="0x0"/>
      <component glyphName="O" x="0" y="0" flags="0x0"/>
    </TTGlyph>
    <TTGlyph name="Ograve" xMin="119" yMin="-20" xMax="1313" yMax="2001">
      <component glyphName="grave.cap" x="470" y="0" flags="0x0"/>
      <component glyphName="O" x="0" y="0" flags="0x0"/>
    </TTGlyph>
    <TTGlyph name="Ohungarumlaut" xMin="119" yMin="-20" xMax="1415" yMax="2001">
      <component glyphName="O" x="0" y="0" flags="0x0"/>
      <component glyphName="hungarumlaut.cap" x="494" y="0" flags="0x0"/>
    </TTGlyph>
    <TTGlyph name="Omacron" xMin="119" yMin="-20" xMax="1313" yMax="1880">
      <component glyphName="macron.cap" x="523" y="0" flags="0x0"/>
      <component glyphName="O" x="0" y="0" flags="0x0"/>
    </TTGlyph>
    <TTGlyph name="Oslash" xMin="119" yMin="-184" xMax="1313" yMax="1709">
      <contour>
        <pt x="937" y="1544" on="0"/>
        <pt x="1035" y="1491" on="1"/>
        <pt x="1166" y="1709" on="1"/>
        <pt x="1257" y="1667" on="1"/>
        <pt x="1120" y="1432" on="1"/>
        <pt x="1216" y="1345" on="0"/>
        <pt x="1313" y="1062" on="0"/>
        <pt x="1313" y="890" on="1"/>
        <pt x="1313" y="634" on="0"/>
        <pt x="1133" y="219" on="0"/>
        <pt x="817" y="-18" on="0"/>
        <pt x="620" y="-18" on="1"/>
        <pt x="472" y="-18" on="0"/>
        <pt x="362" y="56" on="1"/>
        <pt x="215" y="-184" on="1"/>
        <pt x="123" y="-140" on="1"/>
        <pt x="282" y="125" on="1"/>
        <pt x="200" y="214" on="0"/>
        <pt x="119" y="484" on="0"/>
        <pt x="119" y="644" on="1"/>
        <pt x="119" y="899" on="0"/>
        <pt x="299" y="1310" on="0"/>
        <pt x="616" y="1544" on="0"/>
        <pt x="812" y="1544" on="1"/>
      </contour>
      <contour>
        <pt x="956" y="1348" on="1"/>
        <pt x="882" y="1419" on="0"/>
        <pt x="778" y="1419" on="1"/>
        <pt x="651" y="1419" on="0"/>
        <pt x="445" y="1228" on="0"/>
        <pt x="327" y="888" on="0"/>
        <pt x="327" y="674" on="1"/>
        <pt x="327" y="431" on="0"/>
        <pt x="395" y="285" on="1"/>
      </contour>
      <contour>
        <pt x="1099" y="987" on="0"/>
        <pt x="1056" y="1200" on="0"/>
        <pt x="1013" y="1274" on="1"/>
        <pt x="447" y="199" on="1"/>
        <pt x="527" y="102" on="0"/>
        <pt x="648" y="102" on="1"/>
        <pt x="775" y="102" on="0"/>
        <pt x="981" y="296" on="0"/>
        <pt x="1099" y="640" on="0"/>
        <pt x="1099" y="855" on="1"/>
      </contour>
    </TTGlyph>
    <TTGlyph name="Oslashacute" xMin="119" yMin="-184" xMax="1313" yMax="2001">
      <component glyphName="Oslash" x="0" y="0" flags="0x0"/>
      <component glyphName="acute.cap" x="753" y="0" flags="0x0"/>
    </TTGlyph>
    <TTGlyph name="Otilde" xMin="119" yMin="-20" xMax="1313" yMax="1971">
      <component glyphName="tilde.cap" x="458" y="0" flags="0x0"/>
      <component glyphName="O" x="0" y="0" flags="0x0"/>
    </TTGlyph>
    <TTGlyph name="P" xMin="28" yMin="0" xMax="1228" yMax="1539">
      <contour>
        <pt x="185" y="117" on="1"/>
        <pt x="346" y="1398" on="1"/>
        <pt x="213" y="1421" on="1"/>
        <pt x="225" y="1522" on="1"/>
        <pt x="480" y="1522" on="1"/>
        <pt x="525" y="1522" on="0"/>
        <pt x="617" y="1530" on="1"/>
        <pt x="703" y="1539" on="0"/>
        <pt x="767" y="1539" on="1"/>
        <pt x="994" y="1539" on="0"/>
        <pt x="1228" y="1338" on="0"/>
        <pt x="1228" y="1134" on="1"/>
        <pt x="1228" y="948" on="0"/>
        <pt x="1062" y="681" on="0"/>
        <pt x="780" y="543" on="0"/>
        <pt x="610" y="543" on="1"/>
        <pt x="488" y="543" on="0"/>
        <pt x="440" y="547" on="1"/>
        <pt x="389" y="117" on="1"/>
        <pt x="589" y="88" on="1"/>
        <pt x="581" y="0" on="1"/>
        <pt x="28" y="0" on="1"/>
        <pt x="37" y="87" on="1"/>
      </contour>
      <contour>
        <pt x="762" y="664" on="0"/>
        <pt x="933" y="770" on="0"/>
        <pt x="1011" y="975" on="0"/>
        <pt x="1014" y="1131" on="1"/>
        <pt x="1016" y="1227" on="0"/>
        <pt x="969" y="1353" on="0"/>
        <pt x="853" y="1420" on="0"/>
        <pt x="751" y="1420" on="1"/>
        <pt x="712" y="1420" on="0"/>
        <pt x="593" y="1409" on="0"/>
        <pt x="551" y="1399" on="1"/>
        <pt x="455" y="677" on="1"/>
        <pt x="540" y="663" on="0"/>
        <pt x="620" y="663" on="1"/>
      </contour>
    </TTGlyph>
    <TTGlyph name="Q" xMin="115" yMin="-361" xMax="1309" yMax="1543">
      <contour>
        <pt x="974" y="1543" on="0"/>
        <pt x="1200" y="1368" on="0"/>
        <pt x="1309" y="1072" on="0"/>
        <pt x="1309" y="889" on="1"/>
        <pt x="1309" y="655" on="0"/>
        <pt x="1157" y="266" on="0"/>
        <pt x="886" y="19" on="0"/>
        <pt x="714" y="-10" on="1"/>
        <pt x="719" y="-84" on="0"/>
        <pt x="795" y="-159" on="0"/>
        <pt x="911" y="-181" on="0"/>
        <pt x="999" y="-181" on="1"/>
        <pt x="1043" y="-181" on="0"/>
        <pt x="1168" y="-157" on="0"/>
        <pt x="1210" y="-138" on="1"/>
        <pt x="1212" y="-276" on="1"/>
        <pt x="1172" y="-309" on="0"/>
        <pt x="1011" y="-361" on="0"/>
        <pt x="929" y="-361" on="1"/>
        <pt x="832" y="-361" on="0"/>
        <pt x="672" y="-299" on="0"/>
        <pt x="577" y="-173" on="0"/>
        <pt x="577" y="-83" on="1"/>
        <pt x="577" y="-53" on="0"/>
        <pt x="583" y="-18" on="1"/>
        <pt x="428" y="-9" on="0"/>
        <pt x="217" y="172" on="0"/>
        <pt x="115" y="465" on="0"/>
        <pt x="115" y="643" on="1"/>
        <pt x="115" y="898" on="0"/>
        <pt x="295" y="1309" on="0"/>
        <pt x="612" y="1543" on="0"/>
        <pt x="808" y="1543" on="1"/>
      </contour>
      <contour>
        <pt x="1095" y="1026" on="0"/>
        <pt x="1023" y="1279" on="0"/>
        <pt x="879" y="1418" on="0"/>
        <pt x="774" y="1418" on="1"/>
        <pt x="647" y="1418" on="0"/>
        <pt x="441" y="1227" on="0"/>
        <pt x="323" y="887" on="0"/>
        <pt x="323" y="673" on="1"/>
        <pt x="323" y="503" on="0"/>
        <pt x="395" y="245" on="0"/>
        <pt x="539" y="101" on="0"/>
        <pt x="644" y="101" on="1"/>
        <pt x="771" y="101" on="0"/>
        <pt x="977" y="295" on="0"/>
        <pt x="1095" y="639" on="0"/>
        <pt x="1095" y="854" on="1"/>
      </contour>
    </TTGlyph>
    <TTGlyph name="R" xMin="47" yMin="0" xMax="1294" yMax="1538">
      <contour>
        <pt x="185" y="117" on="1"/>
        <pt x="346" y="1398" on="1"/>
        <pt x="213" y="1421" on="1"/>
        <pt x="225" y="1522" on="1"/>
        <pt x="497" y="1522" on="1"/>
        <pt x="537" y="1522" on="0"/>
        <pt x="617" y="1530" on="1"/>
        <pt x="697" y="1538" on="0"/>
        <pt x="737" y="1538" on="1"/>
        <pt x="909" y="1538" on="0"/>
        <pt x="1121" y="1462" on="0"/>
        <pt x="1219" y="1307" on="0"/>
        <pt x="1219" y="1183" on="1"/>
        <pt x="1219" y="1065" on="0"/>
        <pt x="1130" y="868" on="0"/>
        <pt x="961" y="728" on="0"/>
        <pt x="842" y="694" on="1"/>
        <pt x="884" y="658" on="0"/>
        <pt x="990" y="482" on="0"/>
        <pt x="1026" y="402" on="1"/>
        <pt x="1067" y="313" on="1"/>
        <pt x="1115" y="207" on="0"/>
        <pt x="1163" y="129" on="0"/>
        <pt x="1228" y="98" on="0"/>
        <pt x="1294" y="98" on="1"/>
        <pt x="1289" y="0" on="1"/>
        <pt x="1056" y="0" on="1"/>
        <pt x="1027" y="0" on="0"/>
        <pt x="977" y="47" on="0"/>
        <pt x="914" y="168" on="0"/>
        <pt x="869" y="282" on="1"/>
        <pt x="820" y="406" on="0"/>
        <pt x="751" y="559" on="0"/>
        <pt x="669" y="670" on="0"/>
        <pt x="627" y="671" on="1"/>
        <pt x="444" y="670" on="1"/>
        <pt x="381" y="117" on="1"/>
        <pt x="566" y="88" on="1"/>
        <pt x="558" y="0" on="1"/>
        <pt x="47" y="0" on="1"/>
        <pt x="56" y="87" on="1"/>
      </contour>
      <contour>
        <pt x="787" y="794" on="0"/>
        <pt x="939" y="898" on="0"/>
        <pt x="1013" y="1063" on="0"/>
        <pt x="1013" y="1164" on="1"/>
        <pt x="1013" y="1254" on="0"/>
        <pt x="963" y="1363" on="0"/>
        <pt x="830" y="1419" on="0"/>
        <pt x="707" y="1419" on="1"/>
        <pt x="682" y="1419" on="0"/>
        <pt x="574" y="1411" on="0"/>
        <pt x="544" y="1405" on="1"/>
        <pt x="460" y="789" on="1"/>
        <pt x="526" y="785" on="0"/>
        <pt x="625" y="785" on="1"/>
        <pt x="664" y="785" on="0"/>
        <pt x="675" y="786" on="1"/>
      </contour>
    </TTGlyph>
    <TTGlyph name="Racute" xMin="47" yMin="0" xMax="1294" yMax="2001">
      <component glyphName="R" x="0" y="0" flags="0x0"/>
      <component glyphName="acute.cap" x="698" y="0" flags="0x0"/>
    </TTGlyph>
    <TTGlyph name="Rcaron" xMin="38" yMin="0" xMax="1285" yMax="2001">
      <component glyphName="caron.cap" x="370" y="0" flags="0x0"/>
      <component glyphName="R" x="-9" y="0" flags="0x0"/>
    </TTGlyph>
    <TTGlyph name="Rcommaaccent" xMin="38" yMin="-560" xMax="1285" yMax="1538">
      <component glyphName="uni0326" x="881" y="0" flags="0x0"/>
      <component glyphName="R" x="-9" y="0" flags="0x0"/>
    </TTGlyph>
    <TTGlyph name="S" xMin="54" yMin="-23" xMax="1042" yMax="1542">
      <contour>
        <pt x="216" y="347" on="1"/>
        <pt x="241" y="154" on="1"/>
        <pt x="281" y="127" on="0"/>
        <pt x="407" y="94" on="0"/>
        <pt x="468" y="94" on="1"/>
        <pt x="540" y="94" on="0"/>
        <pt x="685" y="149" on="0"/>
        <pt x="782" y="268" on="0"/>
        <pt x="782" y="356" on="1"/>
        <pt x="782" y="428" on="0"/>
        <pt x="718" y="543" on="0"/>
        <pt x="613" y="633" on="0"/>
        <pt x="535" y="681" on="1"/>
        <pt x="434" y="744" on="0"/>
        <pt x="290" y="866" on="0"/>
        <pt x="195" y="1031" on="0"/>
        <pt x="195" y="1135" on="1"/>
        <pt x="195" y="1253" on="0"/>
        <pt x="327" y="1438" on="0"/>
        <pt x="548" y="1542" on="0"/>
        <pt x="677" y="1542" on="1"/>
        <pt x="807" y="1542" on="0"/>
        <pt x="990" y="1491" on="0"/>
        <pt x="1042" y="1457" on="1"/>
        <pt x="995" y="1194" on="1"/>
        <pt x="886" y="1194" on="1"/>
        <pt x="858" y="1374" on="1"/>
        <pt x="827" y="1396" on="0"/>
        <pt x="719" y="1425" on="0"/>
        <pt x="660" y="1425" on="1"/>
        <pt x="596" y="1425" on="0"/>
        <pt x="475" y="1377" on="0"/>
        <pt x="397" y="1277" on="0"/>
        <pt x="397" y="1204" on="1"/>
        <pt x="397" y="1091" on="0"/>
        <pt x="531" y="929" on="0"/>
        <pt x="655" y="852" on="1"/>
        <pt x="765" y="782" on="0"/>
        <pt x="894" y="679" on="0"/>
        <pt x="985" y="528" on="0"/>
        <pt x="985" y="427" on="1"/>
        <pt x="985" y="290" on="0"/>
        <pt x="849" y="86" on="0"/>
        <pt x="611" y="-23" on="0"/>
        <pt x="462" y="-23" on="1"/>
        <pt x="374" y="-23" on="0"/>
        <pt x="205" y="4" on="0"/>
        <pt x="79" y="46" on="0"/>
        <pt x="54" y="65" on="1"/>
        <pt x="96" y="347" on="1"/>
      </contour>
    </TTGlyph>
    <TTGlyph name="Sacute" xMin="54" yMin="-23" xMax="1042" yMax="2001">
      <component glyphName="S" x="0" y="0" flags="0x0"/>
      <component glyphName="acute.cap" x="581" y="0" flags="0x0"/>
    </TTGlyph>
    <TTGlyph name="Scaron" xMin="54" yMin="-23" xMax="1095" yMax="2001">
      <component glyphName="S" x="0" y="0" flags="0x0"/>
      <component glyphName="caron.cap" x="320" y="0" flags="0x0"/>
    </TTGlyph>
    <TTGlyph name="Scedilla" xMin="54" yMin="-465" xMax="1042" yMax="1542">
      <contour>
        <pt x="596" y="1425" on="0"/>
        <pt x="475" y="1377" on="0"/>
        <pt x="397" y="1277" on="0"/>
        <pt x="397" y="1204" on="1"/>
        <pt x="397" y="1091" on="0"/>
        <pt x="531" y="929" on="0"/>
        <pt x="655" y="852" on="1"/>
        <pt x="765" y="782" on="0"/>
        <pt x="895" y="678" on="0"/>
        <pt x="985" y="527" on="0"/>
        <pt x="985" y="426" on="1"/>
        <pt x="985" y="299" on="0"/>
        <pt x="867" y="105" on="0"/>
        <pt x="658" y="-9" on="0"/>
        <pt x="524" y="-20" on="1"/>
        <pt x="534" y="-60" on="0"/>
        <pt x="534" y="-115" on="1"/>
        <pt x="534" y="-230" on="0"/>
        <pt x="460" y="-387" on="0"/>
        <pt x="332" y="-465" on="0"/>
        <pt x="251" y="-465" on="1"/>
        <pt x="211" y="-465" on="0"/>
        <pt x="137" y="-449" on="0"/>
        <pt x="120" y="-437" on="1"/>
        <pt x="136" y="-286" on="1"/>
        <pt x="148" y="-292" on="0"/>
        <pt x="202" y="-300" on="0"/>
        <pt x="227" y="-300" on="1"/>
        <pt x="311" y="-300" on="0"/>
        <pt x="409" y="-165" on="0"/>
        <pt x="410" y="-51" on="1"/>
        <pt x="410" y="-31" on="0"/>
        <pt x="409" y="-22" on="1"/>
        <pt x="293" y="-16" on="0"/>
        <pt x="89" y="38" on="0"/>
        <pt x="54" y="65" on="1"/>
        <pt x="96" y="347" on="1"/>
        <pt x="216" y="347" on="1"/>
        <pt x="241" y="154" on="1"/>
        <pt x="281" y="127" on="0"/>
        <pt x="407" y="94" on="0"/>
        <pt x="468" y="94" on="1"/>
        <pt x="540" y="94" on="0"/>
        <pt x="685" y="149" on="0"/>
        <pt x="782" y="268" on="0"/>
        <pt x="782" y="356" on="1"/>
        <pt x="782" y="428" on="0"/>
        <pt x="718" y="543" on="0"/>
        <pt x="613" y="633" on="0"/>
        <pt x="535" y="681" on="1"/>
        <pt x="434" y="744" on="0"/>
        <pt x="290" y="866" on="0"/>
        <pt x="195" y="1031" on="0"/>
        <pt x="195" y="1135" on="1"/>
        <pt x="195" y="1253" on="0"/>
        <pt x="327" y="1438" on="0"/>
        <pt x="548" y="1542" on="0"/>
        <pt x="677" y="1542" on="1"/>
        <pt x="807" y="1542" on="0"/>
        <pt x="990" y="1491" on="0"/>
        <pt x="1042" y="1457" on="1"/>
        <pt x="995" y="1194" on="1"/>
        <pt x="886" y="1194" on="1"/>
        <pt x="858" y="1374" on="1"/>
        <pt x="827" y="1396" on="0"/>
        <pt x="719" y="1425" on="0"/>
        <pt x="660" y="1425" on="1"/>
      </contour>
    </TTGlyph>
    <TTGlyph name="Scircumflex" xMin="54" yMin="-23" xMax="1066" yMax="2001">
      <component glyphName="S" x="0" y="0" flags="0x0"/>
      <component glyphName="circumflex.cap" x="320" y="0" flags="0x0"/>
    </TTGlyph>
    <TTGlyph name="Scommaaccent" xMin="54" yMin="-560" xMax="1042" yMax="1542">
      <component glyphName="uni0326" x="699" y="0" flags="0x0"/>
      <component glyphName="S" x="0" y="0" flags="0x0"/>
    </TTGlyph>
    <TTGlyph name="T" xMin="83" yMin="0" xMax="1308" yMax="1522">
      <contour>
        <pt x="446" y="117" on="1"/>
        <pt x="611" y="1414" on="1"/>
        <pt x="295" y="1394" on="1"/>
        <pt x="199" y="1053" on="1"/>
        <pt x="83" y="1051" on="1"/>
        <pt x="160" y="1522" on="1"/>
        <pt x="1308" y="1522" on="1"/>
        <pt x="1241" y="1051" on="1"/>
        <pt x="1130" y="1051" on="1"/>
        <pt x="1137" y="1393" on="1"/>
        <pt x="816" y="1414" on="1"/>
        <pt x="650" y="117" on="1"/>
        <pt x="900" y="94" on="1"/>
        <pt x="893" y="0" on="1"/>
        <pt x="193" y="0" on="1"/>
        <pt x="202" y="94" on="1"/>
      </contour>
    </TTGlyph>
    <TTGlyph name="Tbar" xMin="83" yMin="0" xMax="1308" yMax="1522">
      <contour>
        <pt x="539" y="851" on="1"/>
        <pt x="611" y="1414" on="1"/>
        <pt x="295" y="1394" on="1"/>
        <pt x="199" y="1053" on="1"/>
        <pt x="83" y="1051" on="1"/>
        <pt x="160" y="1522" on="1"/>
        <pt x="1308" y="1522" on="1"/>
        <pt x="1241" y="1051" on="1"/>
        <pt x="1130" y="1051" on="1"/>
        <pt x="1137" y="1393" on="1"/>
        <pt x="816" y="1414" on="1"/>
        <pt x="744" y="851" on="1"/>
        <pt x="1040" y="851" on="1"/>
        <pt x="1024" y="720" on="1"/>
        <pt x="727" y="720" on="1"/>
        <pt x="650" y="117" on="1"/>
        <pt x="900" y="94" on="1"/>
        <pt x="893" y="0" on="1"/>
        <pt x="193" y="0" on="1"/>
        <pt x="202" y="94" on="1"/>
        <pt x="446" y="117" on="1"/>
        <pt x="522" y="720" on="1"/>
        <pt x="282" y="720" on="1"/>
        <pt x="298" y="851" on="1"/>
      </contour>
    </TTGlyph>
    <TTGlyph name="Tcaron" xMin="83" yMin="0" xMax="1308" yMax="2001">
      <component glyphName="caron.cap" x="372" y="0" flags="0x0"/>
      <component glyphName="T" x="0" y="0" flags="0x0"/>
    </TTGlyph>
    <TTGlyph name="Thorn" xMin="28" yMin="0" xMax="1198" yMax="1530">
      <contour>
        <pt x="185" y="117" on="1"/>
        <pt x="346" y="1405" on="1"/>
        <pt x="213" y="1428" on="1"/>
        <pt x="225" y="1530" on="1"/>
        <pt x="716" y="1530" on="1"/>
        <pt x="705" y="1428" on="1"/>
        <pt x="551" y="1405" on="1"/>
        <pt x="524" y="1195" on="1"/>
        <pt x="623" y="1212" on="0"/>
        <pt x="741" y="1212" on="1"/>
        <pt x="967" y="1212" on="0"/>
        <pt x="1198" y="1014" on="0"/>
        <pt x="1198" y="830" on="1"/>
        <pt x="1198" y="676" on="0"/>
        <pt x="1038" y="441" on="0"/>
        <pt x="760" y="312" on="0"/>
        <pt x="588" y="312" on="1"/>
        <pt x="450" y="312" on="0"/>
        <pt x="414" y="315" on="1"/>
        <pt x="389" y="117" on="1"/>
        <pt x="563" y="88" on="1"/>
        <pt x="555" y="0" on="1"/>
        <pt x="28" y="0" on="1"/>
        <pt x="38" y="87" on="1"/>
      </contour>
      <contour>
        <pt x="429" y="436" on="1"/>
        <pt x="507" y="425" on="0"/>
        <pt x="586" y="425" on="1"/>
        <pt x="721" y="425" on="0"/>
        <pt x="905" y="518" on="0"/>
        <pt x="996" y="682" on="0"/>
        <pt x="994" y="787" on="1"/>
        <pt x="992" y="897" on="0"/>
        <pt x="938" y="1028" on="0"/>
        <pt x="806" y="1093" on="0"/>
        <pt x="686" y="1093" on="1"/>
        <pt x="595" y="1093" on="0"/>
        <pt x="509" y="1074" on="1"/>
      </contour>
    </TTGlyph>
    <TTGlyph name="U" xMin="127" yMin="-20" xMax="1446" yMax="1522">
      <contour>
        <pt x="260" y="1398" on="1"/>
        <pt x="127" y="1422" on="1"/>
        <pt x="139" y="1522" on="1"/>
        <pt x="630" y="1522" on="1"/>
        <pt x="619" y="1422" on="1"/>
        <pt x="466" y="1397" on="1"/>
        <pt x="362" y="611" on="1"/>
        <pt x="351" y="506" on="0"/>
        <pt x="351" y="435" on="1"/>
        <pt x="351" y="267" on="0"/>
        <pt x="497" y="91" on="0"/>
        <pt x="632" y="91" on="1"/>
        <pt x="801" y="91" on="0"/>
        <pt x="1002" y="362" on="0"/>
        <pt x="1032" y="626" on="1"/>
        <pt x="1135" y="1397" on="1"/>
        <pt x="1001" y="1421" on="1"/>
        <pt x="1012" y="1522" on="1"/>
        <pt x="1446" y="1522" on="1"/>
        <pt x="1434" y="1421" on="1"/>
        <pt x="1310" y="1398" on="1"/>
        <pt x="1206" y="627" on="1"/>
        <pt x="1176" y="394" on="0"/>
        <pt x="1023" y="109" on="0"/>
        <pt x="776" y="-20" on="0"/>
        <pt x="601" y="-20" on="1"/>
        <pt x="457" y="-20" on="0"/>
        <pt x="254" y="89" on="0"/>
        <pt x="148" y="290" on="0"/>
        <pt x="145" y="428" on="1"/>
        <pt x="145" y="514" on="0"/>
        <pt x="153" y="593" on="1"/>
      </contour>
    </TTGlyph>
    <TTGlyph name="Uacute" xMin="127" yMin="-20" xMax="1446" yMax="2001">
      <component glyphName="acute.cap" x="696" y="0" flags="0x0"/>
      <component glyphName="U" x="0" y="0" flags="0x0"/>
    </TTGlyph>
    <TTGlyph name="Ubreve" xMin="127" yMin="-20" xMax="1446" yMax="1980">
      <component glyphName="breve.cap" x="480" y="0" flags="0x0"/>
      <component glyphName="U" x="0" y="0" flags="0x0"/>
    </TTGlyph>
    <TTGlyph name="Ucircumflex" xMin="127" yMin="-20" xMax="1446" yMax="2001">
      <component glyphName="U" x="0" y="0" flags="0x0"/>
      <component glyphName="circumflex.cap" x="435" y="0" flags="0x0"/>
    </TTGlyph>
    <TTGlyph name="Udieresis" xMin="127" yMin="-20" xMax="1446" yMax="1990">
      <component glyphName="dieresis.cap" x="444" y="0" flags="0x0"/>
      <component glyphName="U" x="0" y="0" flags="0x0"/>
    </TTGlyph>
    <TTGlyph name="Ugrave" xMin="127" yMin="-20" xMax="1446" yMax="2001">
      <component glyphName="grave.cap" x="456" y="0" flags="0x0"/>
      <component glyphName="U" x="0" y="0" flags="0x0"/>
    </TTGlyph>
    <TTGlyph name="Uhungarumlaut" xMin="127" yMin="-20" xMax="1446" yMax="2001">
      <component glyphName="U" x="0" y="0" flags="0x0"/>
      <component glyphName="hungarumlaut.cap" x="480" y="0" flags="0x0"/>
    </TTGlyph>
    <TTGlyph name="Umacron" xMin="127" yMin="-20" xMax="1446" yMax="1880">
      <component glyphName="macron.cap" x="509" y="0" flags="0x0"/>
      <component glyphName="U" x="0" y="0" flags="0x0"/>
    </TTGlyph>
    <TTGlyph name="Uogonek" xMin="127" yMin="-419" xMax="1446" yMax="1522">
      <contour>
        <pt x="260" y="1398" on="1"/>
        <pt x="127" y="1422" on="1"/>
        <pt x="139" y="1522" on="1"/>
        <pt x="630" y="1522" on="1"/>
        <pt x="619" y="1422" on="1"/>
        <pt x="466" y="1397" on="1"/>
        <pt x="362" y="611" on="1"/>
        <pt x="351" y="506" on="0"/>
        <pt x="351" y="435" on="1"/>
        <pt x="351" y="267" on="0"/>
        <pt x="497" y="91" on="0"/>
        <pt x="632" y="91" on="1"/>
        <pt x="801" y="91" on="0"/>
        <pt x="1002" y="362" on="0"/>
        <pt x="1032" y="626" on="1"/>
        <pt x="1135" y="1397" on="1"/>
        <pt x="1001" y="1421" on="1"/>
        <pt x="1012" y="1522" on="1"/>
        <pt x="1446" y="1522" on="1"/>
        <pt x="1434" y="1421" on="1"/>
        <pt x="1310" y="1398" on="1"/>
        <pt x="1206" y="627" on="1"/>
        <pt x="1169" y="333" on="0"/>
        <pt x="942" y="29" on="0"/>
        <pt x="748" y="-7" on="1"/>
        <pt x="692" y="-66" on="0"/>
        <pt x="622" y="-169" on="0"/>
        <pt x="621" y="-201" on="1"/>
        <pt x="619" y="-245" on="0"/>
        <pt x="653" y="-287" on="0"/>
        <pt x="674" y="-287" on="1"/>
        <pt x="702" y="-287" on="0"/>
        <pt x="764" y="-259" on="0"/>
        <pt x="805" y="-227" on="1"/>
        <pt x="832" y="-322" on="1"/>
        <pt x="786" y="-364" on="0"/>
        <pt x="658" y="-419" on="0"/>
        <pt x="578" y="-419" on="1"/>
        <pt x="528" y="-419" on="0"/>
        <pt x="458" y="-381" on="0"/>
        <pt x="423" y="-320" on="0"/>
        <pt x="423" y="-287" on="1"/>
        <pt x="423" y="-255" on="0"/>
        <pt x="445" y="-183" on="0"/>
        <pt x="464" y="-157" on="1"/>
        <pt x="499" y="-110" on="0"/>
        <pt x="576" y="-48" on="0"/>
        <pt x="625" y="-19" on="1"/>
        <pt x="601" y="-20" on="1"/>
        <pt x="457" y="-20" on="0"/>
        <pt x="254" y="89" on="0"/>
        <pt x="148" y="290" on="0"/>
        <pt x="145" y="428" on="1"/>
        <pt x="145" y="514" on="0"/>
        <pt x="153" y="593" on="1"/>
      </contour>
    </TTGlyph>
    <TTGlyph name="Uring" xMin="127" yMin="-20" xMax="1446" yMax="2101">
      <component glyphName="U" x="0" y="0" flags="0x0"/>
      <component glyphName="ring.cap" x="467" y="100" flags="0x4"/>
    </TTGlyph>
    <TTGlyph name="Utilde" xMin="127" yMin="-20" xMax="1446" yMax="1971">
      <component glyphName="tilde.cap" x="444" y="0" flags="0x0"/>
      <component glyphName="U" x="0" y="0" flags="0x0"/>
    </TTGlyph>
    <TTGlyph name="V" xMin="71" yMin="-21" xMax="1365" yMax="1522">
      <contour>
        <pt x="71" y="1421" on="1"/>
        <pt x="81" y="1522" on="1"/>
        <pt x="569" y="1522" on="1"/>
        <pt x="559" y="1421" on="1"/>
        <pt x="407" y="1398" on="1"/>
        <pt x="542" y="451" on="1"/>
        <pt x="569" y="175" on="1"/>
        <pt x="663" y="451" on="1"/>
        <pt x="1076" y="1398" on="1"/>
        <pt x="940" y="1422" on="1"/>
        <pt x="950" y="1522" on="1"/>
        <pt x="1365" y="1522" on="1"/>
        <pt x="1355" y="1422" on="1"/>
        <pt x="1249" y="1399" on="1"/>
        <pt x="608" y="-9" on="1"/>
        <pt x="430" y="-21" on="1"/>
        <pt x="194" y="1398" on="1"/>
      </contour>
    </TTGlyph>
    <TTGlyph name="W" xMin="28" yMin="-10" xMax="1997" yMax="1522">
      <contour>
        <pt x="28" y="1421" on="1"/>
        <pt x="40" y="1522" on="1"/>
        <pt x="513" y="1522" on="1"/>
        <pt x="502" y="1421" on="1"/>
        <pt x="346" y="1402" on="1"/>
        <pt x="463" y="439" on="1"/>
        <pt x="499" y="175" on="1"/>
        <pt x="556" y="374" on="1"/>
        <pt x="899" y="1280" on="1"/>
        <pt x="885" y="1401" on="1"/>
        <pt x="766" y="1421" on="1"/>
        <pt x="777" y="1522" on="1"/>
        <pt x="1260" y="1522" on="1"/>
        <pt x="1240" y="1421" on="1"/>
        <pt x="1090" y="1400" on="1"/>
        <pt x="1194" y="439" on="1"/>
        <pt x="1212" y="175" on="1"/>
        <pt x="1286" y="402" on="1"/>
        <pt x="1692" y="1398" on="1"/>
        <pt x="1557" y="1421" on="1"/>
        <pt x="1568" y="1522" on="1"/>
        <pt x="1997" y="1522" on="1"/>
        <pt x="1982" y="1421" on="1"/>
        <pt x="1861" y="1398" on="1"/>
        <pt x="1262" y="-10" on="1"/>
        <pt x="1055" y="-10" on="1"/>
        <pt x="940" y="1010" on="1"/>
        <pt x="553" y="-10" on="1"/>
        <pt x="348" y="-10" on="1"/>
        <pt x="151" y="1398" on="1"/>
      </contour>
    </TTGlyph>
    <TTGlyph name="Wacute" xMin="28" yMin="-10" xMax="1997" yMax="2001">
      <component glyphName="acute.cap" x="912" y="0" flags="0x0"/>
      <component glyphName="W" x="0" y="0" flags="0x0"/>
    </TTGlyph>
    <TTGlyph name="Wcircumflex" xMin="28" yMin="-10" xMax="1997" yMax="2001">
      <component glyphName="W" x="0" y="0" flags="0x0"/>
      <component glyphName="circumflex.cap" x="651" y="0" flags="0x0"/>
    </TTGlyph>
    <TTGlyph name="Wdieresis" xMin="28" yMin="-10" xMax="1997" yMax="1990">
      <component glyphName="dieresis.cap" x="660" y="0" flags="0x0"/>
      <component glyphName="W" x="0" y="0" flags="0x0"/>
    </TTGlyph>
    <TTGlyph name="Wgrave" xMin="28" yMin="-10" xMax="1997" yMax="2001">
      <component glyphName="grave.cap" x="672" y="0" flags="0x0"/>
      <component glyphName="W" x="0" y="0" flags="0x0"/>
    </TTGlyph>
    <TTGlyph name="X" xMin="-63" yMin="0" xMax="1386" yMax="1522">
      <contour>
        <pt x="69" y="116" on="1"/>
        <pt x="568" y="767" on="1"/>
        <pt x="267" y="1395" on="1"/>
        <pt x="129" y="1421" on="1"/>
        <pt x="139" y="1522" on="1"/>
        <pt x="661" y="1522" on="1"/>
        <pt x="650" y="1421" on="1"/>
        <pt x="505" y="1398" on="1"/>
        <pt x="705" y="895" on="1"/>
        <pt x="1043" y="1398" on="1"/>
        <pt x="903" y="1421" on="1"/>
        <pt x="915" y="1522" on="1"/>
        <pt x="1386" y="1522" on="1"/>
        <pt x="1376" y="1421" on="1"/>
        <pt x="1239" y="1398" on="1"/>
        <pt x="769" y="777" on="1"/>
        <pt x="1101" y="117" on="1"/>
        <pt x="1254" y="88" on="1"/>
        <pt x="1245" y="0" on="1"/>
        <pt x="703" y="0" on="1"/>
        <pt x="711" y="88" on="1"/>
        <pt x="862" y="116" on="1"/>
        <pt x="628" y="642" on="1"/>
        <pt x="268" y="117" on="1"/>
        <pt x="417" y="87" on="1"/>
        <pt x="409" y="0" on="1"/>
        <pt x="-63" y="0" on="1"/>
        <pt x="-52" y="88" on="1"/>
      </contour>
    </TTGlyph>
    <TTGlyph name="Y" xMin="60" yMin="0" xMax="1358" yMax="1522">
      <contour>
        <pt x="467" y="117" on="1"/>
        <pt x="528" y="591" on="1"/>
        <pt x="165" y="1398" on="1"/>
        <pt x="60" y="1421" on="1"/>
        <pt x="70" y="1522" on="1"/>
        <pt x="568" y="1522" on="1"/>
        <pt x="556" y="1421" on="1"/>
        <pt x="395" y="1398" on="1"/>
        <pt x="621" y="841" on="1"/>
        <pt x="657" y="714" on="1"/>
        <pt x="729" y="840" on="1"/>
        <pt x="1070" y="1398" on="1"/>
        <pt x="930" y="1421" on="1"/>
        <pt x="941" y="1522" on="1"/>
        <pt x="1358" y="1522" on="1"/>
        <pt x="1347" y="1421" on="1"/>
        <pt x="1246" y="1398" on="1"/>
        <pt x="723" y="591" on="1"/>
        <pt x="662" y="117" on="1"/>
        <pt x="858" y="88" on="1"/>
        <pt x="850" y="0" on="1"/>
        <pt x="243" y="0" on="1"/>
        <pt x="252" y="88" on="1"/>
      </contour>
    </TTGlyph>
    <TTGlyph name="Yacute" xMin="60" yMin="0" xMax="1358" yMax="2001">
      <component glyphName="Y" x="0" y="0" flags="0x0"/>
      <component glyphName="acute.cap" x="634" y="0" flags="0x0"/>
    </TTGlyph>
    <TTGlyph name="Ycircumflex" xMin="60" yMin="0" xMax="1358" yMax="2001">
      <component glyphName="Y" x="0" y="0" flags="0x0"/>
      <component glyphName="circumflex.cap" x="373" y="0" flags="0x0"/>
    </TTGlyph>
    <TTGlyph name="Ydieresis" xMin="60" yMin="0" xMax="1358" yMax="1990">
      <component glyphName="Y" x="0" y="0" flags="0x0"/>
      <component glyphName="dieresis.cap" x="382" y="0" flags="0x0"/>
    </TTGlyph>
    <TTGlyph name="Ygrave" xMin="60" yMin="0" xMax="1358" yMax="2001">
      <component glyphName="Y" x="0" y="0" flags="0x0"/>
      <component glyphName="grave.cap" x="394" y="0" flags="0x0"/>
    </TTGlyph>
    <TTGlyph name="Z" xMin="-5" yMin="0" xMax="1209" yMax="1522">
      <contour>
        <pt x="806" y="1212" on="1"/>
        <pt x="973" y="1407" on="1"/>
        <pt x="403" y="1400" on="1"/>
        <pt x="306" y="1152" on="1"/>
        <pt x="185" y="1176" on="1"/>
        <pt x="242" y="1522" on="1"/>
        <pt x="1184" y="1522" on="1"/>
        <pt x="1209" y="1436" on="1"/>
        <pt x="396" y="300" on="1"/>
        <pt x="245" y="108" on="1"/>
        <pt x="880" y="133" on="1"/>
        <pt x="1008" y="388" on="1"/>
        <pt x="1131" y="356" on="1"/>
        <pt x="1038" y="0" on="1"/>
        <pt x="22" y="0" on="1"/>
        <pt x="-5" y="89" on="1"/>
      </contour>
    </TTGlyph>
    <TTGlyph name="Zacute" xMin="-5" yMin="0" xMax="1209" yMax="2001">
      <component glyphName="Z" x="0" y="0" flags="0x0"/>
      <component glyphName="acute.cap" x="601" y="0" flags="0x0"/>
    </TTGlyph>
    <TTGlyph name="Zcaron" xMin="-5" yMin="0" xMax="1209" yMax="2001">
      <component glyphName="caron.cap" x="339" y="0" flags="0x0"/>
      <component glyphName="Z" x="0" y="0" flags="0x0"/>
    </TTGlyph>
    <TTGlyph name="Zdotaccent" xMin="-5" yMin="0" xMax="1209" yMax="1955">
      <component glyphName="dotaccent.cap" x="554" y="0" flags="0x0"/>
      <component glyphName="Z" x="0" y="0" flags="0x0"/>
    </TTGlyph>
    <TTGlyph name="a" xMin="82" yMin="-20" xMax="1070" yMax="1163">
      <contour>
        <pt x="778" y="1163" on="0"/>
        <pt x="884" y="1143" on="0"/>
        <pt x="931" y="1128" on="1"/>
        <pt x="1052" y="1162" on="1"/>
        <pt x="921" y="189" on="1"/>
        <pt x="920" y="181" on="0"/>
        <pt x="920" y="168" on="1"/>
        <pt x="920" y="141" on="0"/>
        <pt x="938" y="113" on="0"/>
        <pt x="951" y="113" on="1"/>
        <pt x="966" y="113" on="0"/>
        <pt x="1006" y="133" on="0"/>
        <pt x="1039" y="159" on="1"/>
        <pt x="1070" y="105" on="1"/>
        <pt x="1061" y="88" on="0"/>
        <pt x="994" y="28" on="0"/>
        <pt x="897" y="-20" on="0"/>
        <pt x="845" y="-20" on="1"/>
        <pt x="781" y="-20" on="0"/>
        <pt x="712" y="45" on="0"/>
        <pt x="716" y="115" on="1"/>
        <pt x="723" y="181" on="1"/>
        <pt x="657" y="96" on="0"/>
        <pt x="485" y="-20" on="0"/>
        <pt x="394" y="-20" on="1"/>
        <pt x="233" y="-20" on="0"/>
        <pt x="82" y="212" on="0"/>
        <pt x="82" y="412" on="1"/>
        <pt x="82" y="575" on="0"/>
        <pt x="241" y="927" on="0"/>
        <pt x="538" y="1163" on="0"/>
        <pt x="732" y="1163" on="1"/>
      </contour>
      <contour>
        <pt x="830" y="1009" on="1"/>
        <pt x="781" y="1040" on="0"/>
        <pt x="701" y="1040" on="1"/>
        <pt x="568" y="1040" on="0"/>
        <pt x="384" y="849" on="0"/>
        <pt x="293" y="568" on="0"/>
        <pt x="293" y="435" on="1"/>
        <pt x="293" y="123" on="0"/>
        <pt x="435" y="123" on="1"/>
        <pt x="514" y="123" on="0"/>
        <pt x="683" y="262" on="0"/>
        <pt x="744" y="349" on="1"/>
      </contour>
    </TTGlyph>
    <TTGlyph name="aacute" xMin="82" yMin="-20" xMax="1076" yMax="1743">
      <component glyphName="a" x="0" y="0" flags="0x0"/>
      <component glyphName="acute" x="565" y="0" flags="0x0"/>
    </TTGlyph>
    <TTGlyph name="abreve" xMin="82" yMin="-20" xMax="1070" yMax="1652">
      <component glyphName="a" x="0" y="0" flags="0x0"/>
      <component glyphName="breve" x="379" y="0" flags="0x0"/>
    </TTGlyph>
    <TTGlyph name="acircumflex" xMin="82" yMin="-20" xMax="1070" yMax="1651">
      <component glyphName="a" x="0" y="0" flags="0x0"/>
      <component glyphName="circumflex" x="310" y="0" flags="0x0"/>
    </TTGlyph>
    <TTGlyph name="acute" xMin="50" yMin="1250" xMax="511" yMax="1743">
      <contour>
        <pt x="367" y="1743" on="1"/>
        <pt x="511" y="1605" on="1"/>
        <pt x="492" y="1570" on="0"/>
        <pt x="342" y="1413" on="0"/>
        <pt x="170" y="1271" on="0"/>
        <pt x="115" y="1250" on="1"/>
        <pt x="50" y="1312" on="1"/>
      </contour>
    </TTGlyph>
    <TTGlyph name="acute.cap" xMin="37" yMin="1611" xMax="439" yMax="2001">
      <contour>
        <pt x="313" y="2001" on="1"/>
        <pt x="439" y="1880" on="1"/>
        <pt x="415" y="1828" on="0"/>
        <pt x="294" y="1718" on="0"/>
        <pt x="153" y="1630" on="0"/>
        <pt x="102" y="1611" on="1"/>
        <pt x="37" y="1659" on="1"/>
      </contour>
    </TTGlyph>
    <TTGlyph name="adieresis" xMin="82" yMin="-20" xMax="1094" yMax="1653">
      <component glyphName="a" x="0" y="0" flags="0x0"/>
      <component glyphName="dieresis" x="344" y="0" flags="0x0"/>
    </TTGlyph>
    <TTGlyph name="ae" xMin="82" yMin="-20" xMax="1623" yMax="1162">
      <contour>
        <pt x="82" y="574" on="0"/>
        <pt x="242" y="925" on="0"/>
        <pt x="540" y="1162" on="0"/>
        <pt x="734" y="1162" on="1"/>
        <pt x="781" y="1162" on="0"/>
        <pt x="886" y="1143" on="0"/>
        <pt x="932" y="1128" on="1"/>
        <pt x="1050" y="1162" on="1"/>
        <pt x="1032" y="1029" on="1"/>
        <pt x="1104" y="1093" on="0"/>
        <pt x="1270" y="1162" on="0"/>
        <pt x="1358" y="1162" on="1"/>
        <pt x="1446" y="1162" on="0"/>
        <pt x="1565" y="1094" on="0"/>
        <pt x="1623" y="980" on="0"/>
        <pt x="1623" y="909" on="1"/>
        <pt x="1623" y="766" on="0"/>
        <pt x="1395" y="566" on="0"/>
        <pt x="1087" y="464" on="0"/>
        <pt x="974" y="460" on="1"/>
        <pt x="972" y="416" on="0"/>
        <pt x="972" y="395" on="1"/>
        <pt x="972" y="270" on="0"/>
        <pt x="1054" y="121" on="0"/>
        <pt x="1160" y="121" on="1"/>
        <pt x="1247" y="121" on="0"/>
        <pt x="1433" y="192" on="0"/>
        <pt x="1517" y="267" on="1"/>
        <pt x="1564" y="183" on="1"/>
        <pt x="1531" y="139" on="0"/>
        <pt x="1403" y="45" on="0"/>
        <pt x="1228" y="-20" on="0"/>
        <pt x="1132" y="-20" on="1"/>
        <pt x="973" y="-20" on="0"/>
        <pt x="792" y="142" on="0"/>
        <pt x="768" y="292" on="1"/>
        <pt x="730" y="212" on="0"/>
        <pt x="616" y="70" on="0"/>
        <pt x="471" y="-20" on="0"/>
        <pt x="392" y="-20" on="1"/>
        <pt x="238" y="-20" on="0"/>
        <pt x="82" y="206" on="0"/>
        <pt x="82" y="411" on="1"/>
      </contour>
      <contour>
        <pt x="1413" y="971" on="0"/>
        <pt x="1351" y="1045" on="0"/>
        <pt x="1294" y="1045" on="1"/>
        <pt x="1203" y="1045" on="0"/>
        <pt x="1068" y="888" on="0"/>
        <pt x="990" y="668" on="0"/>
        <pt x="979" y="570" on="1"/>
        <pt x="1065" y="574" on="0"/>
        <pt x="1270" y="655" on="0"/>
        <pt x="1414" y="801" on="0"/>
        <pt x="1414" y="895" on="1"/>
      </contour>
      <contour>
        <pt x="794" y="1040" on="0"/>
        <pt x="704" y="1040" on="1"/>
        <pt x="571" y="1040" on="0"/>
        <pt x="385" y="849" on="0"/>
        <pt x="293" y="568" on="0"/>
        <pt x="293" y="435" on="1"/>
        <pt x="293" y="279" on="0"/>
        <pt x="364" y="124" on="0"/>
        <pt x="432" y="124" on="1"/>
        <pt x="500" y="124" on="0"/>
        <pt x="630" y="226" on="0"/>
        <pt x="728" y="365" on="0"/>
        <pt x="760" y="429" on="1"/>
        <pt x="760" y="430" on="1"/>
        <pt x="761" y="492" on="0"/>
        <pt x="772" y="553" on="1"/>
        <pt x="770" y="550" on="1"/>
        <pt x="844" y="1001" on="1"/>
      </contour>
    </TTGlyph>
    <TTGlyph name="aeacute" xMin="82" yMin="-20" xMax="1623" yMax="1743">
      <component glyphName="acute" x="750" y="0" flags="0x0"/>
      <component glyphName="ae" x="0" y="0" flags="0x0"/>
    </TTGlyph>
    <TTGlyph name="agrave" xMin="82" yMin="-20" xMax="1070" yMax="1743">
      <component glyphName="a" x="0" y="0" flags="0x0"/>
      <component glyphName="grave" x="287" y="0" flags="0x0"/>
    </TTGlyph>
    <TTGlyph name="amacron" xMin="82" yMin="-20" xMax="1070" yMax="1576">
      <component glyphName="a" x="0" y="0" flags="0x0"/>
      <component glyphName="macron" x="410" y="0" flags="0x0"/>
    </TTGlyph>
    <TTGlyph name="ampersand" xMin="50" yMin="-20" xMax="1548" yMax="1549">
      <contour>
        <pt x="899" y="799" on="0"/>
        <pt x="978" y="830" on="0"/>
        <pt x="1036" y="830" on="1"/>
        <pt x="1075" y="830" on="0"/>
        <pt x="1147" y="819" on="1"/>
        <pt x="1180" y="814" on="0"/>
        <pt x="1252" y="806" on="0"/>
        <pt x="1283" y="806" on="1"/>
        <pt x="1364" y="806" on="0"/>
        <pt x="1456" y="880" on="0"/>
        <pt x="1470" y="968" on="1"/>
        <pt x="1548" y="968" on="1"/>
        <pt x="1548" y="818" on="0"/>
        <pt x="1441" y="651" on="0"/>
        <pt x="1326" y="651" on="1"/>
        <pt x="1298" y="651" on="0"/>
        <pt x="1271" y="654" on="1"/>
        <pt x="1276" y="621" on="0"/>
        <pt x="1276" y="585" on="1"/>
        <pt x="1276" y="460" on="0"/>
        <pt x="1191" y="254" on="0"/>
        <pt x="1113" y="176" on="1"/>
        <pt x="1161" y="140" on="0"/>
        <pt x="1201" y="121" on="1"/>
        <pt x="1242" y="106" on="0"/>
        <pt x="1339" y="87" on="0"/>
        <pt x="1379" y="86" on="1"/>
        <pt x="1368" y="0" on="1"/>
        <pt x="1315" y="-13" on="0"/>
        <pt x="1234" y="-20" on="0"/>
        <pt x="1187" y="-20" on="1"/>
        <pt x="1124" y="-20" on="0"/>
        <pt x="1000" y="21" on="0"/>
        <pt x="948" y="61" on="1"/>
        <pt x="782" y="-18" on="0"/>
        <pt x="568" y="-18" on="1"/>
        <pt x="431" y="-18" on="0"/>
        <pt x="196" y="64" on="0"/>
        <pt x="50" y="238" on="0"/>
        <pt x="50" y="367" on="1"/>
        <pt x="50" y="464" on="0"/>
        <pt x="143" y="612" on="0"/>
        <pt x="292" y="722" on="0"/>
        <pt x="402" y="779" on="1"/>
        <pt x="364" y="867" on="0"/>
        <pt x="313" y="1070" on="0"/>
        <pt x="313" y="1149" on="1"/>
        <pt x="313" y="1268" on="0"/>
        <pt x="433" y="1450" on="0"/>
        <pt x="642" y="1549" on="0"/>
        <pt x="769" y="1549" on="1"/>
        <pt x="888" y="1549" on="0"/>
        <pt x="1036" y="1470" on="0"/>
        <pt x="1101" y="1343" on="0"/>
        <pt x="1101" y="1269" on="1"/>
        <pt x="1101" y="1167" on="0"/>
        <pt x="986" y="1009" on="0"/>
        <pt x="819" y="895" on="0"/>
        <pt x="678" y="817" on="1"/>
        <pt x="614" y="781" on="1"/>
        <pt x="804" y="443" on="0"/>
        <pt x="1027" y="246" on="1"/>
        <pt x="1063" y="299" on="0"/>
        <pt x="1092" y="444" on="0"/>
        <pt x="1092" y="541" on="1"/>
        <pt x="1092" y="612" on="0"/>
        <pt x="1070" y="680" on="1"/>
        <pt x="1030" y="681" on="1"/>
        <pt x="989" y="681" on="0"/>
        <pt x="909" y="658" on="0"/>
        <pt x="881" y="643" on="1"/>
        <pt x="881" y="781" on="1"/>
      </contour>
      <contour>
        <pt x="673" y="919" on="0"/>
        <pt x="814" y="1022" on="0"/>
        <pt x="900" y="1160" on="0"/>
        <pt x="900" y="1248" on="1"/>
        <pt x="900" y="1331" on="0"/>
        <pt x="832" y="1445" on="0"/>
        <pt x="744" y="1445" on="1"/>
        <pt x="669" y="1445" on="0"/>
        <pt x="558" y="1374" on="0"/>
        <pt x="499" y="1252" on="0"/>
        <pt x="499" y="1176" on="1"/>
        <pt x="499" y="1091" on="0"/>
        <pt x="540" y="932" on="0"/>
        <pt x="570" y="865" on="1"/>
      </contour>
      <contour>
        <pt x="775" y="218" on="0"/>
        <pt x="639" y="382" on="0"/>
        <pt x="543" y="528" on="0"/>
        <pt x="475" y="643" on="1"/>
        <pt x="453" y="680" on="1"/>
        <pt x="361" y="613" on="0"/>
        <pt x="260" y="465" on="0"/>
        <pt x="260" y="372" on="1"/>
        <pt x="260" y="279" on="0"/>
        <pt x="350" y="154" on="0"/>
        <pt x="498" y="93" on="0"/>
        <pt x="588" y="93" on="1"/>
        <pt x="761" y="93" on="0"/>
        <pt x="869" y="131" on="1"/>
      </contour>
    </TTGlyph>
    <TTGlyph name="aogonek" xMin="82" yMin="-419" xMax="1070" yMax="1163">
      <contour>
        <pt x="778" y="1163" on="0"/>
        <pt x="884" y="1143" on="0"/>
        <pt x="931" y="1128" on="1"/>
        <pt x="1052" y="1162" on="1"/>
        <pt x="921" y="189" on="1"/>
        <pt x="920" y="181" on="0"/>
        <pt x="920" y="168" on="1"/>
        <pt x="920" y="141" on="0"/>
        <pt x="938" y="113" on="0"/>
        <pt x="951" y="113" on="1"/>
        <pt x="966" y="113" on="0"/>
        <pt x="1006" y="133" on="0"/>
        <pt x="1039" y="159" on="1"/>
        <pt x="1070" y="105" on="1"/>
        <pt x="1064" y="93" on="0"/>
        <pt x="1020" y="50" on="0"/>
        <pt x="991" y="30" on="1"/>
        <pt x="891" y="-49" on="0"/>
        <pt x="793" y="-153" on="0"/>
        <pt x="792" y="-202" on="1"/>
        <pt x="789" y="-245" on="0"/>
        <pt x="824" y="-287" on="0"/>
        <pt x="846" y="-287" on="1"/>
        <pt x="874" y="-287" on="0"/>
        <pt x="936" y="-259" on="0"/>
        <pt x="977" y="-227" on="1"/>
        <pt x="1003" y="-322" on="1"/>
        <pt x="957" y="-364" on="0"/>
        <pt x="829" y="-419" on="0"/>
        <pt x="749" y="-419" on="1"/>
        <pt x="699" y="-419" on="0"/>
        <pt x="630" y="-381" on="0"/>
        <pt x="595" y="-320" on="0"/>
        <pt x="595" y="-287" on="1"/>
        <pt x="595" y="-254" on="0"/>
        <pt x="617" y="-182" on="0"/>
        <pt x="636" y="-157" on="1"/>
        <pt x="672" y="-109" on="0"/>
        <pt x="750" y="-48" on="0"/>
        <pt x="804" y="-16" on="1"/>
        <pt x="710" y="2" on="0"/>
        <pt x="716" y="115" on="1"/>
        <pt x="723" y="181" on="1"/>
        <pt x="657" y="96" on="0"/>
        <pt x="485" y="-20" on="0"/>
        <pt x="394" y="-20" on="1"/>
        <pt x="233" y="-20" on="0"/>
        <pt x="82" y="212" on="0"/>
        <pt x="82" y="412" on="1"/>
        <pt x="82" y="575" on="0"/>
        <pt x="241" y="927" on="0"/>
        <pt x="538" y="1163" on="0"/>
        <pt x="732" y="1163" on="1"/>
      </contour>
      <contour>
        <pt x="830" y="1009" on="1"/>
        <pt x="781" y="1040" on="0"/>
        <pt x="701" y="1040" on="1"/>
        <pt x="568" y="1040" on="0"/>
        <pt x="384" y="849" on="0"/>
        <pt x="293" y="568" on="0"/>
        <pt x="293" y="435" on="1"/>
        <pt x="293" y="123" on="0"/>
        <pt x="435" y="123" on="1"/>
        <pt x="514" y="123" on="0"/>
        <pt x="683" y="262" on="0"/>
        <pt x="744" y="349" on="1"/>
      </contour>
    </TTGlyph>
    <TTGlyph name="approxequal" xMin="43" yMin="284" xMax="1022" yMax="1070">
      <component glyphName="asciitilde" x="-107" y="-435" flags="0x4"/>
      <component glyphName="asciitilde" x="-57" y="11" flags="0x4"/>
    </TTGlyph>
    <TTGlyph name="aring" xMin="82" yMin="-20" xMax="1082" yMax="1787">
      <component glyphName="a" x="0" y="0" flags="0x0"/>
      <component glyphName="ring" x="368" y="0" flags="0x0"/>
    </TTGlyph>
    <TTGlyph name="arrowdown" xMin="175" yMin="143" xMax="1354" yMax="1447">
      <contour>
        <pt x="1354" y="733" on="1"/>
        <pt x="764" y="143" on="1"/>
        <pt x="175" y="733" on="1"/>
        <pt x="288" y="843" on="1"/>
        <pt x="697" y="434" on="1"/>
        <pt x="684" y="545" on="1"/>
        <pt x="684" y="1446" on="1"/>
        <pt x="845" y="1447" on="1"/>
        <pt x="845" y="545" on="1"/>
        <pt x="832" y="433" on="1"/>
        <pt x="1241" y="843" on="1"/>
      </contour>
    </TTGlyph>
    <TTGlyph name="arrowleft" xMin="113" yMin="177" xMax="1417" yMax="1356">
      <contour>
        <pt x="403" y="834" on="1"/>
        <pt x="515" y="847" on="1"/>
        <pt x="1417" y="847" on="1"/>
        <pt x="1415" y="686" on="1"/>
        <pt x="515" y="686" on="1"/>
        <pt x="403" y="698" on="1"/>
        <pt x="813" y="290" on="1"/>
        <pt x="703" y="177" on="1"/>
        <pt x="113" y="766" on="1"/>
        <pt x="703" y="1356" on="1"/>
        <pt x="813" y="1243" on="1"/>
      </contour>
    </TTGlyph>
    <TTGlyph name="arrowright" xMin="113" yMin="177" xMax="1417" yMax="1356">
      <contour>
        <pt x="827" y="1356" on="1"/>
        <pt x="1417" y="766" on="1"/>
        <pt x="827" y="177" on="1"/>
        <pt x="717" y="290" on="1"/>
        <pt x="1127" y="698" on="1"/>
        <pt x="1015" y="686" on="1"/>
        <pt x="115" y="686" on="1"/>
        <pt x="113" y="847" on="1"/>
        <pt x="1015" y="847" on="1"/>
        <pt x="1127" y="834" on="1"/>
        <pt x="717" y="1243" on="1"/>
      </contour>
    </TTGlyph>
    <TTGlyph name="arrowup" xMin="175" yMin="143" xMax="1354" yMax="1447">
      <contour>
        <pt x="832" y="1157" on="1"/>
        <pt x="845" y="1045" on="1"/>
        <pt x="845" y="143" on="1"/>
        <pt x="684" y="144" on="1"/>
        <pt x="684" y="1045" on="1"/>
        <pt x="697" y="1156" on="1"/>
        <pt x="288" y="747" on="1"/>
        <pt x="175" y="857" on="1"/>
        <pt x="764" y="1447" on="1"/>
        <pt x="1354" y="857" on="1"/>
        <pt x="1241" y="747" on="1"/>
      </contour>
    </TTGlyph>
    <TTGlyph name="asciicircum" xMin="185" yMin="413" xMax="1178" yMax="1531">
      <contour>
        <pt x="781" y="1531" on="1"/>
        <pt x="1178" y="413" on="1"/>
        <pt x="1017" y="413" on="1"/>
        <pt x="680" y="1318" on="1"/>
        <pt x="344" y="413" on="1"/>
        <pt x="185" y="413" on="1"/>
        <pt x="577" y="1531" on="1"/>
      </contour>
    </TTGlyph>
    <TTGlyph name="asciitilde" xMin="150" yMin="719" xMax="1079" yMax="1059">
      <contour>
        <pt x="167" y="899" on="0"/>
        <pt x="259" y="996" on="0"/>
        <pt x="390" y="1059" on="0"/>
        <pt x="462" y="1059" on="1"/>
        <pt x="501" y="1059" on="0"/>
        <pt x="569" y="1032" on="0"/>
        <pt x="621" y="996" on="0"/>
        <pt x="661" y="964" on="1"/>
        <pt x="707" y="925" on="0"/>
        <pt x="770" y="888" on="0"/>
        <pt x="805" y="888" on="1"/>
        <pt x="928" y="888" on="0"/>
        <pt x="1007" y="1005" on="1"/>
        <pt x="1079" y="930" on="1"/>
        <pt x="1064" y="876" on="0"/>
        <pt x="973" y="778" on="0"/>
        <pt x="840" y="719" on="0"/>
        <pt x="767" y="719" on="1"/>
        <pt x="712" y="719" on="0"/>
        <pt x="624" y="768" on="0"/>
        <pt x="569" y="814" on="1"/>
        <pt x="521" y="853" on="0"/>
        <pt x="459" y="890" on="0"/>
        <pt x="423" y="890" on="1"/>
        <pt x="300" y="890" on="0"/>
        <pt x="222" y="774" on="1"/>
        <pt x="150" y="849" on="1"/>
      </contour>
    </TTGlyph>
    <TTGlyph name="asterisk" xMin="276" yMin="646" xMax="1278" yMax="1654">
      <contour>
        <pt x="600" y="1113" on="1"/>
        <pt x="711" y="1150" on="1"/>
        <pt x="608" y="1187" on="1"/>
        <pt x="310" y="1318" on="1"/>
        <pt x="426" y="1485" on="1"/>
        <pt x="671" y="1282" on="1"/>
        <pt x="750" y="1207" on="1"/>
        <pt x="739" y="1319" on="1"/>
        <pt x="732" y="1654" on="1"/>
        <pt x="926" y="1653" on="1"/>
        <pt x="849" y="1319" on="1"/>
        <pt x="816" y="1207" on="1"/>
        <pt x="910" y="1282" on="1"/>
        <pt x="1201" y="1486" on="1"/>
        <pt x="1278" y="1318" on="1"/>
        <pt x="955" y="1187" on="1"/>
        <pt x="843" y="1149" on="1"/>
        <pt x="947" y="1113" on="1"/>
        <pt x="1245" y="982" on="1"/>
        <pt x="1129" y="815" on="1"/>
        <pt x="883" y="1018" on="1"/>
        <pt x="803" y="1095" on="1"/>
        <pt x="814" y="981" on="1"/>
        <pt x="821" y="646" on="1"/>
        <pt x="627" y="647" on="1"/>
        <pt x="704" y="981" on="1"/>
        <pt x="737" y="1095" on="1"/>
        <pt x="644" y="1018" on="1"/>
        <pt x="353" y="814" on="1"/>
        <pt x="276" y="982" on="1"/>
      </contour>
    </TTGlyph>
    <TTGlyph name="at" xMin="117" yMin="-428" xMax="1870" yMax="1546">
      <contour>
        <pt x="1401" y="1546" on="0"/>
        <pt x="1704" y="1394" on="0"/>
        <pt x="1870" y="1106" on="0"/>
        <pt x="1870" y="909" on="1"/>
        <pt x="1870" y="644" on="0"/>
        <pt x="1682" y="239" on="0"/>
        <pt x="1397" y="20" on="0"/>
        <pt x="1258" y="20" on="1"/>
        <pt x="1215" y="20" on="0"/>
        <pt x="1175" y="69" on="0"/>
        <pt x="1166" y="149" on="0"/>
        <pt x="1166" y="224" on="1"/>
        <pt x="1166" y="302" on="0"/>
        <pt x="1195" y="428" on="1"/>
        <pt x="1120" y="251" on="0"/>
        <pt x="914" y="7" on="0"/>
        <pt x="810" y="7" on="1"/>
        <pt x="738" y="7" on="0"/>
        <pt x="610" y="100" on="0"/>
        <pt x="530" y="293" on="0"/>
        <pt x="530" y="434" on="1"/>
        <pt x="530" y="589" on="0"/>
        <pt x="652" y="894" on="0"/>
        <pt x="898" y="1093" on="0"/>
        <pt x="1073" y="1093" on="1"/>
        <pt x="1123" y="1093" on="0"/>
        <pt x="1254" y="1065" on="0"/>
        <pt x="1292" y="1039" on="1"/>
        <pt x="1459" y="1069" on="1"/>
        <pt x="1430" y="955" on="0"/>
        <pt x="1364" y="552" on="0"/>
        <pt x="1350" y="401" on="1"/>
        <pt x="1343" y="331" on="0"/>
        <pt x="1343" y="281" on="1"/>
        <pt x="1343" y="236" on="0"/>
        <pt x="1348" y="204" on="1"/>
        <pt x="1352" y="165" on="0"/>
        <pt x="1365" y="165" on="1"/>
        <pt x="1447" y="165" on="0"/>
        <pt x="1610" y="367" on="0"/>
        <pt x="1715" y="681" on="0"/>
        <pt x="1715" y="838" on="1"/>
        <pt x="1715" y="1046" on="0"/>
        <pt x="1547" y="1303" on="0"/>
        <pt x="1276" y="1414" on="0"/>
        <pt x="1111" y="1414" on="1"/>
        <pt x="852" y="1414" on="0"/>
        <pt x="471" y="1129" on="0"/>
        <pt x="272" y="666" on="0"/>
        <pt x="272" y="408" on="1"/>
        <pt x="272" y="42" on="0"/>
        <pt x="600" y="-290" on="0"/>
        <pt x="902" y="-290" on="1"/>
        <pt x="990" y="-290" on="0"/>
        <pt x="1210" y="-251" on="0"/>
        <pt x="1261" y="-226" on="1"/>
        <pt x="1293" y="-312" on="1"/>
        <pt x="1222" y="-366" on="0"/>
        <pt x="1002" y="-428" on="0"/>
        <pt x="876" y="-428" on="1"/>
        <pt x="639" y="-428" on="0"/>
        <pt x="299" y="-261" on="0"/>
        <pt x="117" y="79" on="0"/>
        <pt x="117" y="334" on="1"/>
        <pt x="117" y="687" on="0"/>
        <pt x="409" y="1240" on="0"/>
        <pt x="905" y="1546" on="0"/>
        <pt x="1199" y="1546" on="1"/>
      </contour>
      <contour>
        <pt x="910" y="172" on="0"/>
        <pt x="1085" y="420" on="0"/>
        <pt x="1226" y="760" on="0"/>
        <pt x="1241" y="879" on="1"/>
        <pt x="1217" y="920" on="0"/>
        <pt x="1105" y="967" on="0"/>
        <pt x="1057" y="967" on="1"/>
        <pt x="928" y="967" on="0"/>
        <pt x="774" y="812" on="0"/>
        <pt x="711" y="578" on="0"/>
        <pt x="711" y="447" on="1"/>
        <pt x="711" y="322" on="0"/>
        <pt x="775" y="172" on="0"/>
        <pt x="846" y="172" on="1"/>
      </contour>
    </TTGlyph>
    <TTGlyph name="atilde" xMin="82" yMin="-20" xMax="1098" yMax="1651">
      <component glyphName="a" x="0" y="0" flags="0x0"/>
      <component glyphName="tilde" x="331" y="0" flags="0x0"/>
    </TTGlyph>
    <TTGlyph name="b" xMin="123" yMin="-20" xMax="1101" yMax="1650">
      <contour>
        <pt x="225" y="1527" on="1"/>
        <pt x="246" y="1611" on="1"/>
        <pt x="491" y="1650" on="1"/>
        <pt x="542" y="1623" on="1"/>
        <pt x="459" y="1002" on="1"/>
        <pt x="513" y="1071" on="0"/>
        <pt x="669" y="1163" on="0"/>
        <pt x="761" y="1163" on="1"/>
        <pt x="873" y="1163" on="0"/>
        <pt x="1026" y="1053" on="0"/>
        <pt x="1101" y="858" on="0"/>
        <pt x="1101" y="730" on="1"/>
        <pt x="1101" y="566" on="0"/>
        <pt x="944" y="215" on="0"/>
        <pt x="653" y="-20" on="0"/>
        <pt x="462" y="-20" on="1"/>
        <pt x="405" y="-20" on="0"/>
        <pt x="272" y="6" on="0"/>
        <pt x="223" y="24" on="1"/>
        <pt x="123" y="-20" on="1"/>
        <pt x="320" y="1484" on="1"/>
      </contour>
      <contour>
        <pt x="343" y="142" on="1"/>
        <pt x="396" y="102" on="0"/>
        <pt x="493" y="102" on="1"/>
        <pt x="622" y="102" on="0"/>
        <pt x="803" y="297" on="0"/>
        <pt x="891" y="583" on="0"/>
        <pt x="891" y="717" on="1"/>
        <pt x="891" y="860" on="0"/>
        <pt x="802" y="1019" on="0"/>
        <pt x="724" y="1019" on="1"/>
        <pt x="641" y="1019" on="0"/>
        <pt x="484" y="904" on="0"/>
        <pt x="436" y="832" on="1"/>
      </contour>
    </TTGlyph>
    <TTGlyph name="backslash" xMin="122" yMin="-362" xMax="874" yMax="1597">
      <contour>
        <pt x="297" y="1597" on="1"/>
        <pt x="122" y="1597" on="1"/>
        <pt x="698" y="-362" on="1"/>
        <pt x="874" y="-362" on="1"/>
      </contour>
    </TTGlyph>
    <TTGlyph name="bar" xMin="359" yMin="-186" xMax="534" yMax="1780">
      <contour>
        <pt x="534" y="1780" on="1"/>
        <pt x="534" y="-186" on="1"/>
        <pt x="359" y="-186" on="1"/>
        <pt x="359" y="1780" on="1"/>
      </contour>
    </TTGlyph>
    <TTGlyph name="braceleft" xMin="152" yMin="-191" xMax="1002" yMax="1736">
      <contour>
        <pt x="369" y="595" on="0"/>
        <pt x="342" y="630" on="0"/>
        <pt x="317" y="646" on="1"/>
        <pt x="285" y="667" on="0"/>
        <pt x="197" y="703" on="0"/>
        <pt x="152" y="714" on="1"/>
        <pt x="170" y="838" on="1"/>
        <pt x="297" y="869" on="0"/>
        <pt x="362" y="903" on="1"/>
        <pt x="422" y="934" on="0"/>
        <pt x="427" y="966" on="1"/>
        <pt x="504" y="1484" on="1"/>
        <pt x="520" y="1586" on="0"/>
        <pt x="571" y="1692" on="0"/>
        <pt x="662" y="1736" on="0"/>
        <pt x="742" y="1736" on="1"/>
        <pt x="782" y="1736" on="0"/>
        <pt x="897" y="1715" on="0"/>
        <pt x="989" y="1693" on="0"/>
        <pt x="1002" y="1689" on="1"/>
        <pt x="1000" y="1678" on="0"/>
        <pt x="990" y="1613" on="0"/>
        <pt x="989" y="1601" on="1"/>
        <pt x="713" y="1601" on="1"/>
        <pt x="617" y="970" on="1"/>
        <pt x="611" y="932" on="0"/>
        <pt x="562" y="873" on="0"/>
        <pt x="519" y="846" on="1"/>
        <pt x="501" y="835" on="0"/>
        <pt x="393" y="784" on="0"/>
        <pt x="374" y="776" on="1"/>
        <pt x="482" y="719" on="0"/>
        <pt x="516" y="684" on="1"/>
        <pt x="558" y="640" on="0"/>
        <pt x="558" y="591" on="1"/>
        <pt x="558" y="581" on="0"/>
        <pt x="557" y="575" on="1"/>
        <pt x="462" y="-55" on="1"/>
        <pt x="737" y="-55" on="1"/>
        <pt x="734" y="-75" on="0"/>
        <pt x="726" y="-132" on="0"/>
        <pt x="725" y="-144" on="1"/>
        <pt x="639" y="-169" on="0"/>
        <pt x="524" y="-191" on="0"/>
        <pt x="450" y="-191" on="1"/>
        <pt x="386" y="-191" on="0"/>
        <pt x="312" y="-165" on="0"/>
        <pt x="278" y="-103" on="0"/>
        <pt x="279" y="-48" on="1"/>
        <pt x="280" y="-30" on="0"/>
        <pt x="355" y="485" on="0"/>
        <pt x="369" y="579" on="1"/>
      </contour>
    </TTGlyph>
    <TTGlyph name="braceright" xMin="55" yMin="-190" xMax="905" yMax="1737">
      <contour>
        <pt x="688" y="951" on="0"/>
        <pt x="715" y="916" on="0"/>
        <pt x="740" y="900" on="1"/>
        <pt x="772" y="879" on="0"/>
        <pt x="860" y="843" on="0"/>
        <pt x="905" y="832" on="1"/>
        <pt x="887" y="708" on="1"/>
        <pt x="760" y="677" on="0"/>
        <pt x="695" y="643" on="1"/>
        <pt x="635" y="612" on="0"/>
        <pt x="630" y="580" on="1"/>
        <pt x="553" y="62" on="1"/>
        <pt x="537" y="-40" on="0"/>
        <pt x="486" y="-146" on="0"/>
        <pt x="395" y="-190" on="0"/>
        <pt x="315" y="-190" on="1"/>
        <pt x="275" y="-190" on="0"/>
        <pt x="160" y="-169" on="0"/>
        <pt x="68" y="-147" on="0"/>
        <pt x="55" y="-143" on="1"/>
        <pt x="57" y="-132" on="0"/>
        <pt x="67" y="-67" on="0"/>
        <pt x="68" y="-55" on="1"/>
        <pt x="344" y="-55" on="1"/>
        <pt x="440" y="576" on="1"/>
        <pt x="446" y="614" on="0"/>
        <pt x="495" y="673" on="0"/>
        <pt x="538" y="700" on="1"/>
        <pt x="556" y="711" on="0"/>
        <pt x="664" y="762" on="0"/>
        <pt x="683" y="770" on="1"/>
        <pt x="575" y="827" on="0"/>
        <pt x="541" y="862" on="1"/>
        <pt x="499" y="906" on="0"/>
        <pt x="499" y="955" on="1"/>
        <pt x="499" y="965" on="0"/>
        <pt x="500" y="971" on="1"/>
        <pt x="595" y="1601" on="1"/>
        <pt x="320" y="1601" on="1"/>
        <pt x="323" y="1621" on="0"/>
        <pt x="331" y="1678" on="0"/>
        <pt x="332" y="1690" on="1"/>
        <pt x="418" y="1715" on="0"/>
        <pt x="533" y="1737" on="0"/>
        <pt x="607" y="1737" on="1"/>
        <pt x="671" y="1737" on="0"/>
        <pt x="745" y="1711" on="0"/>
        <pt x="779" y="1649" on="0"/>
        <pt x="778" y="1594" on="1"/>
        <pt x="777" y="1576" on="0"/>
        <pt x="702" y="1061" on="0"/>
        <pt x="688" y="967" on="1"/>
      </contour>
    </TTGlyph>
    <TTGlyph name="bracketleft" xMin="177" yMin="-192" xMax="872" yMax="1736">
      <contour>
        <pt x="392" y="1583" on="0"/>
        <pt x="441" y="1690" on="0"/>
        <pt x="532" y="1736" on="0"/>
        <pt x="612" y="1736" on="1"/>
        <pt x="651" y="1736" on="0"/>
        <pt x="767" y="1715" on="0"/>
        <pt x="859" y="1693" on="0"/>
        <pt x="872" y="1689" on="1"/>
        <pt x="859" y="1601" on="1"/>
        <pt x="584" y="1601" on="1"/>
        <pt x="361" y="-55" on="1"/>
        <pt x="499" y="-56" on="1"/>
        <pt x="546" y="-57" on="0"/>
        <pt x="636" y="-57" on="1"/>
        <pt x="625" y="-145" on="1"/>
        <pt x="538" y="-170" on="0"/>
        <pt x="425" y="-192" on="0"/>
        <pt x="352" y="-192" on="1"/>
        <pt x="287" y="-192" on="0"/>
        <pt x="212" y="-166" on="0"/>
        <pt x="177" y="-104" on="0"/>
        <pt x="177" y="-49" on="1"/>
        <pt x="177" y="8" on="0"/>
        <pt x="181" y="61" on="1"/>
        <pt x="190" y="213" on="0"/>
        <pt x="249" y="639" on="0"/>
        <pt x="301" y="965" on="1"/>
        <pt x="356" y="1312" on="0"/>
        <pt x="379" y="1484" on="1"/>
      </contour>
    </TTGlyph>
    <TTGlyph name="bracketright" xMin="32" yMin="-180" xMax="727" yMax="1748">
      <contour>
        <pt x="512" y="-27" on="0"/>
        <pt x="463" y="-134" on="0"/>
        <pt x="372" y="-180" on="0"/>
        <pt x="292" y="-180" on="1"/>
        <pt x="253" y="-180" on="0"/>
        <pt x="137" y="-159" on="0"/>
        <pt x="45" y="-137" on="0"/>
        <pt x="32" y="-133" on="1"/>
        <pt x="45" y="-45" on="1"/>
        <pt x="320" y="-45" on="1"/>
        <pt x="543" y="1611" on="1"/>
        <pt x="406" y="1612" on="1"/>
        <pt x="358" y="1613" on="0"/>
        <pt x="268" y="1613" on="1"/>
        <pt x="279" y="1701" on="1"/>
        <pt x="366" y="1726" on="0"/>
        <pt x="479" y="1748" on="0"/>
        <pt x="552" y="1748" on="1"/>
        <pt x="617" y="1748" on="0"/>
        <pt x="692" y="1722" on="0"/>
        <pt x="727" y="1660" on="0"/>
        <pt x="727" y="1605" on="1"/>
        <pt x="727" y="1548" on="0"/>
        <pt x="723" y="1495" on="1"/>
        <pt x="714" y="1343" on="0"/>
        <pt x="655" y="917" on="0"/>
        <pt x="603" y="591" on="1"/>
        <pt x="548" y="244" on="0"/>
        <pt x="525" y="72" on="1"/>
      </contour>
    </TTGlyph>
    <TTGlyph name="breve" xMin="59" yMin="1300" xMax="678" yMax="1652">
      <contour>
        <pt x="59" y="1646" on="0"/>
        <pt x="60" y="1652" on="1"/>
        <pt x="168" y="1652" on="1"/>
        <pt x="171" y="1629" on="0"/>
        <pt x="172" y="1621" on="1"/>
        <pt x="186" y="1552" on="0"/>
        <pt x="270" y="1450" on="0"/>
        <pt x="354" y="1450" on="1"/>
        <pt x="421" y="1450" on="0"/>
        <pt x="510" y="1519" on="0"/>
        <pt x="555" y="1602" on="0"/>
        <pt x="573" y="1652" on="1"/>
        <pt x="678" y="1652" on="1"/>
        <pt x="678" y="1641" on="0"/>
        <pt x="676" y="1619" on="1"/>
        <pt x="665" y="1540" on="0"/>
        <pt x="573" y="1393" on="0"/>
        <pt x="431" y="1300" on="0"/>
        <pt x="349" y="1300" on="1"/>
        <pt x="259" y="1300" on="0"/>
        <pt x="128" y="1397" on="0"/>
        <pt x="59" y="1549" on="0"/>
        <pt x="59" y="1631" on="1"/>
      </contour>
    </TTGlyph>
    <TTGlyph name="breve.cap" xMin="57" yMin="1628" xMax="678" yMax="1980">
      <contour>
        <pt x="57" y="1959" on="0"/>
        <pt x="60" y="1980" on="1"/>
        <pt x="171" y="1980" on="1"/>
        <pt x="176" y="1930" on="0"/>
        <pt x="201" y="1846" on="0"/>
        <pt x="279" y="1778" on="0"/>
        <pt x="353" y="1778" on="1"/>
        <pt x="517" y="1778" on="0"/>
        <pt x="573" y="1980" on="1"/>
        <pt x="678" y="1980" on="1"/>
        <pt x="678" y="1897" on="0"/>
        <pt x="586" y="1733" on="0"/>
        <pt x="433" y="1628" on="0"/>
        <pt x="348" y="1628" on="1"/>
        <pt x="249" y="1628" on="0"/>
        <pt x="118" y="1715" on="0"/>
        <pt x="57" y="1854" on="0"/>
        <pt x="57" y="1934" on="1"/>
      </contour>
    </TTGlyph>
    <TTGlyph name="breve.r" xMin="299" yMin="1287" xMax="1067" yMax="1635">
      <contour>
        <pt x="299" y="1581" on="0"/>
        <pt x="302" y="1616" on="0"/>
        <pt x="308" y="1635" on="1"/>
        <pt x="485" y="1635" on="1"/>
        <pt x="513" y="1635" on="0"/>
        <pt x="513" y="1589" on="1"/>
        <pt x="513" y="1569" on="0"/>
        <pt x="510" y="1546" on="1"/>
        <pt x="508" y="1518" on="0"/>
        <pt x="508" y="1507" on="1"/>
        <pt x="508" y="1448" on="0"/>
        <pt x="586" y="1387" on="0"/>
        <pt x="686" y="1387" on="1"/>
        <pt x="756" y="1387" on="0"/>
        <pt x="834" y="1428" on="0"/>
        <pt x="867" y="1500" on="0"/>
        <pt x="874" y="1556" on="1"/>
        <pt x="879" y="1592" on="0"/>
        <pt x="899" y="1635" on="0"/>
        <pt x="920" y="1635" on="1"/>
        <pt x="1067" y="1635" on="1"/>
        <pt x="1067" y="1624" on="0"/>
        <pt x="1065" y="1602" on="1"/>
        <pt x="1046" y="1444" on="0"/>
        <pt x="834" y="1287" on="0"/>
        <pt x="673" y="1287" on="1"/>
        <pt x="569" y="1287" on="0"/>
        <pt x="399" y="1346" on="0"/>
        <pt x="299" y="1466" on="0"/>
        <pt x="299" y="1555" on="1"/>
      </contour>
    </TTGlyph>
    <TTGlyph name="breve.rcap" xMin="321" yMin="1647" xMax="1090" yMax="2013">
      <contour>
        <pt x="321" y="1959" on="0"/>
        <pt x="324" y="1994" on="0"/>
        <pt x="330" y="2013" on="1"/>
        <pt x="508" y="2013" on="1"/>
        <pt x="536" y="2013" on="0"/>
        <pt x="536" y="1967" on="1"/>
        <pt x="536" y="1947" on="0"/>
        <pt x="533" y="1924" on="1"/>
        <pt x="531" y="1896" on="0"/>
        <pt x="531" y="1885" on="1"/>
        <pt x="531" y="1816" on="0"/>
        <pt x="608" y="1746" on="0"/>
        <pt x="709" y="1746" on="1"/>
        <pt x="779" y="1746" on="0"/>
        <pt x="857" y="1792" on="0"/>
        <pt x="890" y="1872" on="0"/>
        <pt x="897" y="1934" on="1"/>
        <pt x="902" y="1970" on="0"/>
        <pt x="922" y="2013" on="0"/>
        <pt x="943" y="2013" on="1"/>
        <pt x="1090" y="2013" on="1"/>
        <pt x="1090" y="2002" on="0"/>
        <pt x="1088" y="1980" on="1"/>
        <pt x="1069" y="1812" on="0"/>
        <pt x="857" y="1647" on="0"/>
        <pt x="696" y="1647" on="1"/>
        <pt x="591" y="1647" on="0"/>
        <pt x="421" y="1709" on="0"/>
        <pt x="321" y="1838" on="0"/>
        <pt x="321" y="1933" on="1"/>
      </contour>
    </TTGlyph>
    <TTGlyph name="brokenbar" xMin="359" yMin="-186" xMax="534" yMax="1780">
      <contour>
        <pt x="534" y="1780" on="1"/>
        <pt x="534" y="887" on="1"/>
        <pt x="359" y="887" on="1"/>
        <pt x="359" y="1780" on="1"/>
      </contour>
      <contour>
        <pt x="534" y="707" on="1"/>
        <pt x="534" y="-186" on="1"/>
        <pt x="359" y="-186" on="1"/>
        <pt x="359" y="707" on="1"/>
      </contour>
    </TTGlyph>
    <TTGlyph name="bullet" xMin="231" yMin="514" xMax="661" yMax="949">
      <contour>
        <pt x="231" y="770" on="0"/>
        <pt x="297" y="884" on="0"/>
        <pt x="413" y="949" on="0"/>
        <pt x="483" y="949" on="1"/>
        <pt x="533" y="949" on="0"/>
        <pt x="614" y="899" on="0"/>
        <pt x="661" y="815" on="0"/>
        <pt x="661" y="766" on="1"/>
        <pt x="661" y="697" on="0"/>
        <pt x="595" y="581" on="0"/>
        <pt x="480" y="514" on="0"/>
        <pt x="409" y="514" on="1"/>
        <pt x="360" y="514" on="0"/>
        <pt x="278" y="566" on="0"/>
        <pt x="231" y="652" on="0"/>
        <pt x="231" y="701" on="1"/>
      </contour>
    </TTGlyph>
    <TTGlyph name="c" xMin="76" yMin="-20" xMax="889" yMax="1163">
      <contour>
        <pt x="76" y="594" on="0"/>
        <pt x="216" y="935" on="0"/>
        <pt x="485" y="1163" on="0"/>
        <pt x="668" y="1163" on="1"/>
        <pt x="723" y="1163" on="0"/>
        <pt x="847" y="1136" on="0"/>
        <pt x="889" y="1115" on="1"/>
        <pt x="830" y="916" on="1"/>
        <pt x="826" y="919" on="0"/>
        <pt x="807" y="933" on="1"/>
        <pt x="704" y="1016" on="0"/>
        <pt x="621" y="1016" on="1"/>
        <pt x="522" y="1016" on="0"/>
        <pt x="373" y="886" on="0"/>
        <pt x="291" y="636" on="0"/>
        <pt x="291" y="460" on="1"/>
        <pt x="291" y="288" on="0"/>
        <pt x="398" y="121" on="0"/>
        <pt x="494" y="121" on="1"/>
        <pt x="564" y="121" on="0"/>
        <pt x="674" y="171" on="0"/>
        <pt x="762" y="235" on="1"/>
        <pt x="802" y="153" on="1"/>
        <pt x="748" y="89" on="0"/>
        <pt x="561" y="-20" on="0"/>
        <pt x="435" y="-20" on="1"/>
        <pt x="323" y="-20" on="0"/>
        <pt x="161" y="87" on="0"/>
        <pt x="76" y="290" on="0"/>
        <pt x="76" y="431" on="1"/>
      </contour>
    </TTGlyph>
    <TTGlyph name="cacute" xMin="76" yMin="-20" xMax="997" yMax="1743">
      <component glyphName="acute" x="486" y="0" flags="0x0"/>
      <component glyphName="c" x="0" y="0" flags="0x0"/>
    </TTGlyph>
    <TTGlyph name="caron" xMin="69" yMin="1264" xMax="766" yMax="1651">
      <contour>
        <pt x="148" y="1651" on="1"/>
        <pt x="394" y="1408" on="1"/>
        <pt x="692" y="1651" on="1"/>
        <pt x="766" y="1594" on="1"/>
        <pt x="468" y="1264" on="1"/>
        <pt x="292" y="1264" on="1"/>
        <pt x="69" y="1593" on="1"/>
      </contour>
    </TTGlyph>
    <TTGlyph name="caron.cap" xMin="80" yMin="1623" xMax="775" yMax="2001">
      <contour>
        <pt x="157" y="2001" on="1"/>
        <pt x="394" y="1768" on="1"/>
        <pt x="711" y="2001" on="1"/>
        <pt x="775" y="1944" on="1"/>
        <pt x="477" y="1623" on="1"/>
        <pt x="302" y="1623" on="1"/>
        <pt x="80" y="1943" on="1"/>
      </contour>
    </TTGlyph>
    <TTGlyph name="caronvertical" xMin="197" yMin="1045" xMax="428" yMax="1680">
      <contour>
        <pt x="197" y="1100" on="1"/>
        <pt x="230" y="1229" on="0"/>
        <pt x="248" y="1391" on="1"/>
        <pt x="250" y="1415" on="0"/>
        <pt x="250" y="1428" on="1"/>
        <pt x="250" y="1477" on="0"/>
        <pt x="230" y="1573" on="0"/>
        <pt x="217" y="1592" on="1"/>
        <pt x="236" y="1634" on="1"/>
        <pt x="395" y="1680" on="1"/>
        <pt x="428" y="1644" on="0"/>
        <pt x="428" y="1534" on="1"/>
        <pt x="428" y="1490" on="0"/>
        <pt x="424" y="1453" on="1"/>
        <pt x="411" y="1328" on="0"/>
        <pt x="321" y="1111" on="0"/>
        <pt x="266" y="1045" on="1"/>
        <pt x="203" y="1075" on="1"/>
      </contour>
    </TTGlyph>
    <TTGlyph name="ccaron" xMin="76" yMin="-20" xMax="1025" yMax="1651">
      <component glyphName="caron" x="259" y="0" flags="0x0"/>
      <component glyphName="c" x="0" y="0" flags="0x0"/>
    </TTGlyph>
    <TTGlyph name="ccedilla" xMin="76" yMin="-465" xMax="889" yMax="1163">
      <contour>
        <pt x="723" y="1163" on="0"/>
        <pt x="847" y="1136" on="0"/>
        <pt x="889" y="1115" on="1"/>
        <pt x="830" y="916" on="1"/>
        <pt x="826" y="919" on="0"/>
        <pt x="807" y="933" on="1"/>
        <pt x="704" y="1016" on="0"/>
        <pt x="621" y="1016" on="1"/>
        <pt x="522" y="1016" on="0"/>
        <pt x="373" y="886" on="0"/>
        <pt x="291" y="636" on="0"/>
        <pt x="291" y="460" on="1"/>
        <pt x="291" y="288" on="0"/>
        <pt x="398" y="121" on="0"/>
        <pt x="494" y="121" on="1"/>
        <pt x="564" y="121" on="0"/>
        <pt x="674" y="171" on="0"/>
        <pt x="762" y="235" on="1"/>
        <pt x="802" y="153" on="1"/>
        <pt x="759" y="103" on="0"/>
        <pt x="620" y="8" on="0"/>
        <pt x="527" y="-11" on="1"/>
        <pt x="539" y="-55" on="0"/>
        <pt x="539" y="-115" on="1"/>
        <pt x="539" y="-230" on="0"/>
        <pt x="465" y="-387" on="0"/>
        <pt x="337" y="-465" on="0"/>
        <pt x="256" y="-465" on="1"/>
        <pt x="216" y="-465" on="0"/>
        <pt x="142" y="-449" on="0"/>
        <pt x="125" y="-437" on="1"/>
        <pt x="141" y="-286" on="1"/>
        <pt x="153" y="-292" on="0"/>
        <pt x="207" y="-300" on="0"/>
        <pt x="232" y="-300" on="1"/>
        <pt x="316" y="-300" on="0"/>
        <pt x="414" y="-165" on="0"/>
        <pt x="415" y="-51" on="1"/>
        <pt x="415" y="-29" on="0"/>
        <pt x="414" y="-20" on="1"/>
        <pt x="308" y="-15" on="0"/>
        <pt x="156" y="95" on="0"/>
        <pt x="76" y="294" on="0"/>
        <pt x="76" y="431" on="1"/>
        <pt x="76" y="594" on="0"/>
        <pt x="216" y="935" on="0"/>
        <pt x="485" y="1163" on="0"/>
        <pt x="668" y="1163" on="1"/>
      </contour>
    </TTGlyph>
    <TTGlyph name="ccircumflex" xMin="76" yMin="-20" xMax="978" yMax="1651">
      <component glyphName="circumflex" x="231" y="0" flags="0x0"/>
      <component glyphName="c" x="0" y="0" flags="0x0"/>
    </TTGlyph>
    <TTGlyph name="cdotaccent" xMin="76" yMin="-20" xMax="889" yMax="1653">
      <component glyphName="c" x="0" y="0" flags="0x0"/>
      <component glyphName="dotaccent" x="480" y="0" flags="0x0"/>
    </TTGlyph>
    <TTGlyph name="cedilla" xMin="2" yMin="-465" xMax="416" yMax="34">
      <contour>
        <pt x="386" y="30" on="1"/>
        <pt x="401" y="10" on="0"/>
        <pt x="416" y="-68" on="0"/>
        <pt x="416" y="-115" on="1"/>
        <pt x="416" y="-230" on="0"/>
        <pt x="342" y="-387" on="0"/>
        <pt x="214" y="-465" on="0"/>
        <pt x="133" y="-465" on="1"/>
        <pt x="93" y="-465" on="0"/>
        <pt x="19" y="-449" on="0"/>
        <pt x="2" y="-437" on="1"/>
        <pt x="18" y="-286" on="1"/>
        <pt x="30" y="-292" on="0"/>
        <pt x="84" y="-300" on="0"/>
        <pt x="109" y="-300" on="1"/>
        <pt x="193" y="-300" on="0"/>
        <pt x="291" y="-165" on="0"/>
        <pt x="292" y="-51" on="1"/>
        <pt x="292" y="-6" on="0"/>
        <pt x="283" y="30" on="1"/>
        <pt x="332" y="34" on="1"/>
      </contour>
    </TTGlyph>
    <TTGlyph name="cent" xMin="134" yMin="-215" xMax="947" yMax="1358">
      <contour>
        <pt x="274" y="19" on="0"/>
        <pt x="134" y="248" on="0"/>
        <pt x="134" y="431" on="1"/>
        <pt x="134" y="575" on="0"/>
        <pt x="245" y="881" on="0"/>
        <pt x="460" y="1113" on="0"/>
        <pt x="607" y="1149" on="1"/>
        <pt x="659" y="1358" on="1"/>
        <pt x="809" y="1358" on="1"/>
        <pt x="760" y="1162" on="1"/>
        <pt x="809" y="1158" on="0"/>
        <pt x="911" y="1133" on="0"/>
        <pt x="947" y="1115" on="1"/>
        <pt x="888" y="916" on="1"/>
        <pt x="884" y="919" on="0"/>
        <pt x="865" y="933" on="1"/>
        <pt x="762" y="1016" on="0"/>
        <pt x="679" y="1016" on="1"/>
        <pt x="580" y="1016" on="0"/>
        <pt x="431" y="886" on="0"/>
        <pt x="349" y="636" on="0"/>
        <pt x="349" y="460" on="1"/>
        <pt x="349" y="288" on="0"/>
        <pt x="456" y="121" on="0"/>
        <pt x="552" y="121" on="1"/>
        <pt x="622" y="121" on="0"/>
        <pt x="732" y="171" on="0"/>
        <pt x="820" y="235" on="1"/>
        <pt x="860" y="153" on="1"/>
        <pt x="814" y="98" on="0"/>
        <pt x="656" y="-3" on="0"/>
        <pt x="552" y="-16" on="1"/>
        <pt x="515" y="-215" on="1"/>
        <pt x="365" y="-215" on="1"/>
        <pt x="403" y="-10" on="1"/>
      </contour>
    </TTGlyph>
    <TTGlyph name="circumflex" xMin="50" yMin="1228" xMax="747" yMax="1651">
      <contour>
        <pt x="379" y="1651" on="1"/>
        <pt x="557" y="1651" on="1"/>
        <pt x="747" y="1286" on="1"/>
        <pt x="671" y="1228" on="1"/>
        <pt x="442" y="1499" on="1"/>
        <pt x="109" y="1229" on="1"/>
        <pt x="50" y="1286" on="1"/>
      </contour>
    </TTGlyph>
    <TTGlyph name="circumflex.cap" xMin="49" yMin="1623" xMax="746" yMax="2001">
      <contour>
        <pt x="357" y="2001" on="1"/>
        <pt x="534" y="2001" on="1"/>
        <pt x="746" y="1682" on="1"/>
        <pt x="675" y="1623" on="1"/>
        <pt x="436" y="1850" on="1"/>
        <pt x="112" y="1624" on="1"/>
        <pt x="49" y="1682" on="1"/>
      </contour>
    </TTGlyph>
    <TTGlyph name="colon" xMin="66" yMin="-22" xMax="441" yMax="1063">
      <component glyphName="period" x="74" y="809" flags="0x4"/>
      <component glyphName="period" x="-19" y="0" flags="0x0"/>
    </TTGlyph>
    <TTGlyph name="colonmonetary" xMin="285" yMin="-353" xMax="1488" yMax="1785">
      <contour>
        <pt x="853" y="-27" on="1"/>
        <pt x="812" y="-28" on="1"/>
        <pt x="737" y="-28" on="0"/>
        <pt x="670" y="-14" on="1"/>
        <pt x="605" y="-353" on="1"/>
        <pt x="498" y="-353" on="1"/>
        <pt x="569" y="18" on="1"/>
        <pt x="427" y="81" on="0"/>
        <pt x="285" y="362" on="0"/>
        <pt x="285" y="563" on="1"/>
        <pt x="285" y="803" on="0"/>
        <pt x="428" y="1185" on="0"/>
        <pt x="684" y="1438" on="0"/>
        <pt x="852" y="1494" on="1"/>
        <pt x="908" y="1785" on="1"/>
        <pt x="1015" y="1785" on="1"/>
        <pt x="964" y="1523" on="1"/>
        <pt x="1044" y="1536" on="0"/>
        <pt x="1115" y="1536" on="1"/>
        <pt x="1140" y="1536" on="0"/>
        <pt x="1153" y="1535" on="1"/>
        <pt x="1201" y="1785" on="1"/>
        <pt x="1308" y="1785" on="1"/>
        <pt x="1258" y="1524" on="1"/>
        <pt x="1315" y="1515" on="0"/>
        <pt x="1394" y="1493" on="1"/>
        <pt x="1443" y="1478" on="0"/>
        <pt x="1488" y="1465" on="1"/>
        <pt x="1439" y="1202" on="1"/>
        <pt x="1342" y="1202" on="1"/>
        <pt x="1317" y="1343" on="1"/>
        <pt x="1293" y="1372" on="0"/>
        <pt x="1232" y="1392" on="1"/>
        <pt x="984" y="95" on="1"/>
        <pt x="1082" y="119" on="0"/>
        <pt x="1164" y="185" on="1"/>
        <pt x="1243" y="293" on="1"/>
        <pt x="1341" y="273" on="1"/>
        <pt x="1286" y="69" on="1"/>
        <pt x="1256" y="68" on="0"/>
        <pt x="1195" y="47" on="1"/>
        <pt x="1120" y="21" on="0"/>
        <pt x="1027" y="-6" on="0"/>
        <pt x="962" y="-16" on="1"/>
        <pt x="898" y="-353" on="1"/>
        <pt x="791" y="-353" on="1"/>
      </contour>
      <contour>
        <pt x="874" y="80" on="1"/>
        <pt x="1129" y="1413" on="1"/>
        <pt x="1085" y="1419" on="0"/>
        <pt x="1039" y="1419" on="1"/>
        <pt x="987" y="1419" on="0"/>
        <pt x="943" y="1409" on="1"/>
        <pt x="694" y="112" on="1"/>
        <pt x="767" y="80" on="0"/>
        <pt x="869" y="80" on="1"/>
      </contour>
      <contour>
        <pt x="828" y="1368" on="1"/>
        <pt x="723" y="1314" on="0"/>
        <pt x="568" y="1094" on="0"/>
        <pt x="484" y="768" on="0"/>
        <pt x="484" y="562" on="1"/>
        <pt x="484" y="296" on="0"/>
        <pt x="599" y="177" on="1"/>
      </contour>
    </TTGlyph>
    <TTGlyph name="comma" xMin="-8" yMin="-502" xMax="400" yMax="266">
      <contour>
        <pt x="241" y="266" on="1"/>
        <pt x="320" y="231" on="0"/>
        <pt x="400" y="66" on="0"/>
        <pt x="400" y="-33" on="1"/>
        <pt x="400" y="-141" on="0"/>
        <pt x="305" y="-332" on="0"/>
        <pt x="147" y="-469" on="0"/>
        <pt x="55" y="-502" on="1"/>
        <pt x="-8" y="-422" on="1"/>
        <pt x="-5" y="-401" on="1"/>
        <pt x="71" y="-360" on="0"/>
        <pt x="177" y="-196" on="0"/>
        <pt x="177" y="-88" on="1"/>
        <pt x="177" y="-24" on="0"/>
        <pt x="121" y="81" on="0"/>
        <pt x="82" y="97" on="1"/>
        <pt x="83" y="142" on="1"/>
      </contour>
    </TTGlyph>
    <TTGlyph name="copyright" xMin="177" yMin="51" xMax="1690" yMax="1560">
      <contour>
        <pt x="1138" y="1560" on="0"/>
        <pt x="1486" y="1358" on="0"/>
        <pt x="1690" y="1011" on="0"/>
        <pt x="1690" y="806" on="1"/>
        <pt x="1690" y="600" on="0"/>
        <pt x="1486" y="253" on="0"/>
        <pt x="1138" y="51" on="0"/>
        <pt x="933" y="51" on="1"/>
        <pt x="728" y="51" on="0"/>
        <pt x="381" y="253" on="0"/>
        <pt x="177" y="600" on="0"/>
        <pt x="177" y="806" on="1"/>
        <pt x="177" y="1011" on="0"/>
        <pt x="381" y="1358" on="0"/>
        <pt x="728" y="1560" on="0"/>
        <pt x="933" y="1560" on="1"/>
      </contour>
      <contour>
        <pt x="1108" y="158" on="0"/>
        <pt x="1400" y="332" on="0"/>
        <pt x="1570" y="630" on="0"/>
        <pt x="1570" y="806" on="1"/>
        <pt x="1570" y="982" on="0"/>
        <pt x="1400" y="1279" on="0"/>
        <pt x="1108" y="1454" on="0"/>
        <pt x="933" y="1454" on="1"/>
        <pt x="758" y="1454" on="0"/>
        <pt x="466" y="1279" on="0"/>
        <pt x="297" y="982" on="0"/>
        <pt x="297" y="806" on="1"/>
        <pt x="297" y="630" on="0"/>
        <pt x="466" y="332" on="0"/>
        <pt x="758" y="158" on="0"/>
        <pt x="933" y="158" on="1"/>
      </contour>
      <contour>
        <pt x="1037" y="1247" on="0"/>
        <pt x="1173" y="1225" on="0"/>
        <pt x="1203" y="1209" on="1"/>
        <pt x="1203" y="1003" on="1"/>
        <pt x="1128" y="1003" on="1"/>
        <pt x="1074" y="1123" on="1"/>
        <pt x="1030" y="1162" on="0"/>
        <pt x="929" y="1162" on="1"/>
        <pt x="866" y="1162" on="0"/>
        <pt x="761" y="1094" on="0"/>
        <pt x="698" y="955" on="0"/>
        <pt x="698" y="855" on="1"/>
        <pt x="698" y="725" on="0"/>
        <pt x="777" y="550" on="0"/>
        <pt x="900" y="467" on="0"/>
        <pt x="965" y="467" on="1"/>
        <pt x="1030" y="467" on="0"/>
        <pt x="1143" y="502" on="0"/>
        <pt x="1185" y="526" on="1"/>
        <pt x="1213" y="458" on="1"/>
        <pt x="1167" y="420" on="0"/>
        <pt x="1005" y="366" on="0"/>
        <pt x="920" y="366" on="1"/>
        <pt x="803" y="366" on="0"/>
        <pt x="632" y="484" on="0"/>
        <pt x="542" y="684" on="0"/>
        <pt x="542" y="806" on="1"/>
        <pt x="542" y="927" on="0"/>
        <pt x="646" y="1128" on="0"/>
        <pt x="840" y="1247" on="0"/>
        <pt x="969" y="1247" on="1"/>
      </contour>
    </TTGlyph>
    <TTGlyph name="currency" xMin="228" yMin="129" xMax="1342" yMax="1250">
      <contour>
        <pt x="423" y="435" on="1"/>
        <pt x="384" y="490" on="0"/>
        <pt x="342" y="620" on="0"/>
        <pt x="342" y="690" on="1"/>
        <pt x="342" y="829" on="0"/>
        <pt x="421" y="941" on="1"/>
        <pt x="228" y="1135" on="1"/>
        <pt x="342" y="1250" on="1"/>
        <pt x="537" y="1054" on="1"/>
        <pt x="650" y="1128" on="0"/>
        <pt x="782" y="1128" on="1"/>
        <pt x="852" y="1128" on="0"/>
        <pt x="982" y="1086" on="0"/>
        <pt x="1037" y="1047" on="1"/>
        <pt x="1228" y="1237" on="1"/>
        <pt x="1342" y="1122" on="1"/>
        <pt x="1150" y="930" on="1"/>
        <pt x="1222" y="822" on="0"/>
        <pt x="1222" y="690" on="1"/>
        <pt x="1222" y="554" on="0"/>
        <pt x="1145" y="442" on="1"/>
        <pt x="1340" y="248" on="1"/>
        <pt x="1225" y="134" on="1"/>
        <pt x="1030" y="328" on="1"/>
        <pt x="977" y="291" on="0"/>
        <pt x="850" y="252" on="0"/>
        <pt x="782" y="252" on="1"/>
        <pt x="650" y="252" on="0"/>
        <pt x="540" y="323" on="1"/>
        <pt x="346" y="129" on="1"/>
        <pt x="231" y="243" on="1"/>
      </contour>
      <contour>
        <pt x="861" y="389" on="0"/>
        <pt x="993" y="470" on="0"/>
        <pt x="1071" y="609" on="0"/>
        <pt x="1071" y="690" on="1"/>
        <pt x="1071" y="771" on="0"/>
        <pt x="993" y="910" on="0"/>
        <pt x="861" y="991" on="0"/>
        <pt x="782" y="991" on="1"/>
        <pt x="703" y="991" on="0"/>
        <pt x="571" y="910" on="0"/>
        <pt x="493" y="771" on="0"/>
        <pt x="493" y="690" on="1"/>
        <pt x="493" y="609" on="0"/>
        <pt x="571" y="470" on="0"/>
        <pt x="703" y="389" on="0"/>
        <pt x="782" y="389" on="1"/>
      </contour>
    </TTGlyph>
    <TTGlyph name="d" xMin="82" yMin="-20" xMax="1139" yMax="1650">
      <contour>
        <pt x="82" y="575" on="0"/>
        <pt x="241" y="927" on="0"/>
        <pt x="537" y="1163" on="0"/>
        <pt x="731" y="1163" on="1"/>
        <pt x="787" y="1163" on="0"/>
        <pt x="868" y="1145" on="1"/>
        <pt x="919" y="1482" on="1"/>
        <pt x="794" y="1525" on="1"/>
        <pt x="815" y="1608" on="1"/>
        <pt x="1086" y="1650" on="1"/>
        <pt x="1139" y="1623" on="1"/>
        <pt x="931" y="189" on="1"/>
        <pt x="929" y="169" on="0"/>
        <pt x="929" y="161" on="1"/>
        <pt x="929" y="113" on="0"/>
        <pt x="953" y="113" on="1"/>
        <pt x="967" y="113" on="0"/>
        <pt x="1007" y="133" on="0"/>
        <pt x="1040" y="159" on="1"/>
        <pt x="1071" y="106" on="1"/>
        <pt x="1060" y="88" on="0"/>
        <pt x="993" y="28" on="0"/>
        <pt x="898" y="-20" on="0"/>
        <pt x="847" y="-20" on="1"/>
        <pt x="784" y="-20" on="0"/>
        <pt x="722" y="46" on="0"/>
        <pt x="724" y="118" on="1"/>
        <pt x="723" y="141" on="1"/>
        <pt x="668" y="72" on="0"/>
        <pt x="507" y="-20" on="0"/>
        <pt x="413" y="-20" on="1"/>
        <pt x="304" y="-20" on="0"/>
        <pt x="155" y="90" on="0"/>
        <pt x="82" y="284" on="0"/>
        <pt x="82" y="412" on="1"/>
      </contour>
      <contour>
        <pt x="845" y="998" on="1"/>
        <pt x="795" y="1040" on="0"/>
        <pt x="701" y="1040" on="1"/>
        <pt x="568" y="1040" on="0"/>
        <pt x="383" y="845" on="0"/>
        <pt x="293" y="559" on="0"/>
        <pt x="293" y="425" on="1"/>
        <pt x="293" y="281" on="0"/>
        <pt x="377" y="123" on="0"/>
        <pt x="450" y="123" on="1"/>
        <pt x="531" y="123" on="0"/>
        <pt x="690" y="230" on="0"/>
        <pt x="739" y="299" on="1"/>
      </contour>
    </TTGlyph>
    <TTGlyph name="dagger" xMin="135" yMin="151" xMax="867" yMax="1646">
      <contour>
        <pt x="405" y="1126" on="1"/>
        <pt x="135" y="1126" on="1"/>
        <pt x="157" y="1278" on="1"/>
        <pt x="448" y="1278" on="1"/>
        <pt x="450" y="1469" on="1"/>
        <pt x="474" y="1646" on="1"/>
        <pt x="667" y="1646" on="1"/>
        <pt x="636" y="1469" on="1"/>
        <pt x="575" y="1278" on="1"/>
        <pt x="867" y="1278" on="1"/>
        <pt x="846" y="1126" on="1"/>
        <pt x="576" y="1126" on="1"/>
        <pt x="577" y="1008" on="1"/>
        <pt x="399" y="151" on="1"/>
        <pt x="280" y="151" on="1"/>
        <pt x="371" y="1008" on="1"/>
      </contour>
    </TTGlyph>
    <TTGlyph name="daggerdbl" xMin="113" yMin="-51" xMax="867" yMax="1646">
      <contour>
        <pt x="330" y="628" on="1"/>
        <pt x="113" y="628" on="1"/>
        <pt x="138" y="780" on="1"/>
        <pt x="347" y="780" on="1"/>
        <pt x="371" y="1008" on="1"/>
        <pt x="406" y="1126" on="1"/>
        <pt x="134" y="1126" on="1"/>
        <pt x="158" y="1278" on="1"/>
        <pt x="448" y="1278" on="1"/>
        <pt x="450" y="1469" on="1"/>
        <pt x="474" y="1646" on="1"/>
        <pt x="666" y="1646" on="1"/>
        <pt x="635" y="1469" on="1"/>
        <pt x="576" y="1278" on="1"/>
        <pt x="867" y="1278" on="1"/>
        <pt x="845" y="1126" on="1"/>
        <pt x="576" y="1126" on="1"/>
        <pt x="577" y="1008" on="1"/>
        <pt x="529" y="780" on="1"/>
        <pt x="739" y="780" on="1"/>
        <pt x="717" y="628" on="1"/>
        <pt x="502" y="628" on="1"/>
        <pt x="503" y="572" on="0"/>
        <pt x="495" y="508" on="1"/>
        <pt x="368" y="-51" on="1"/>
        <pt x="247" y="-51" on="1"/>
        <pt x="303" y="508" on="1"/>
      </contour>
    </TTGlyph>
    <TTGlyph name="dcaron" xMin="82" yMin="-20" xMax="1466" yMax="1650">
      <component glyphName="d" x="0" y="0" flags="0x0"/>
      <component glyphName="caronvertical" x="1038" y="-30" flags="0x4"/>
    </TTGlyph>
    <TTGlyph name="dcroat" xMin="82" yMin="-20" xMax="1239" yMax="1650">
      <contour>
        <pt x="905" y="1392" on="1"/>
        <pt x="919" y="1482" on="1"/>
        <pt x="794" y="1525" on="1"/>
        <pt x="815" y="1608" on="1"/>
        <pt x="1086" y="1650" on="1"/>
        <pt x="1139" y="1623" on="1"/>
        <pt x="1105" y="1392" on="1"/>
        <pt x="1239" y="1392" on="1"/>
        <pt x="1223" y="1262" on="1"/>
        <pt x="1086" y="1262" on="1"/>
        <pt x="931" y="189" on="1"/>
        <pt x="929" y="169" on="0"/>
        <pt x="929" y="161" on="1"/>
        <pt x="929" y="113" on="0"/>
        <pt x="953" y="113" on="1"/>
        <pt x="967" y="113" on="0"/>
        <pt x="1007" y="133" on="0"/>
        <pt x="1040" y="159" on="1"/>
        <pt x="1071" y="106" on="1"/>
        <pt x="1060" y="88" on="0"/>
        <pt x="993" y="28" on="0"/>
        <pt x="898" y="-20" on="0"/>
        <pt x="847" y="-20" on="1"/>
        <pt x="784" y="-20" on="0"/>
        <pt x="722" y="46" on="0"/>
        <pt x="724" y="118" on="1"/>
        <pt x="723" y="141" on="1"/>
        <pt x="668" y="72" on="0"/>
        <pt x="507" y="-20" on="0"/>
        <pt x="413" y="-20" on="1"/>
        <pt x="304" y="-20" on="0"/>
        <pt x="155" y="90" on="0"/>
        <pt x="82" y="284" on="0"/>
        <pt x="82" y="412" on="1"/>
        <pt x="82" y="575" on="0"/>
        <pt x="241" y="927" on="0"/>
        <pt x="537" y="1163" on="0"/>
        <pt x="731" y="1163" on="1"/>
        <pt x="787" y="1163" on="0"/>
        <pt x="868" y="1145" on="1"/>
        <pt x="885" y="1262" on="1"/>
        <pt x="634" y="1262" on="1"/>
        <pt x="650" y="1392" on="1"/>
      </contour>
      <contour>
        <pt x="845" y="998" on="1"/>
        <pt x="795" y="1040" on="0"/>
        <pt x="701" y="1040" on="1"/>
        <pt x="568" y="1040" on="0"/>
        <pt x="383" y="845" on="0"/>
        <pt x="293" y="559" on="0"/>
        <pt x="293" y="425" on="1"/>
        <pt x="293" y="281" on="0"/>
        <pt x="377" y="123" on="0"/>
        <pt x="450" y="123" on="1"/>
        <pt x="531" y="123" on="0"/>
        <pt x="690" y="230" on="0"/>
        <pt x="739" y="299" on="1"/>
      </contour>
    </TTGlyph>
    <TTGlyph name="degree" xMin="203" yMin="954" xMax="865" yMax="1601">
      <contour>
        <pt x="203" y="1363" on="0"/>
        <pt x="291" y="1514" on="0"/>
        <pt x="446" y="1601" on="0"/>
        <pt x="542" y="1601" on="1"/>
        <pt x="632" y="1601" on="0"/>
        <pt x="780" y="1516" on="0"/>
        <pt x="865" y="1370" on="0"/>
        <pt x="865" y="1284" on="1"/>
        <pt x="865" y="1191" on="0"/>
        <pt x="775" y="1040" on="0"/>
        <pt x="619" y="954" on="0"/>
        <pt x="523" y="954" on="1"/>
        <pt x="433" y="954" on="0"/>
        <pt x="287" y="1040" on="0"/>
        <pt x="203" y="1186" on="0"/>
        <pt x="203" y="1272" on="1"/>
      </contour>
      <contour>
        <pt x="723" y="1336" on="0"/>
        <pt x="674" y="1426" on="0"/>
        <pt x="589" y="1478" on="0"/>
        <pt x="537" y="1478" on="1"/>
        <pt x="482" y="1478" on="0"/>
        <pt x="394" y="1425" on="0"/>
        <pt x="345" y="1332" on="0"/>
        <pt x="345" y="1274" on="1"/>
        <pt x="345" y="1220" on="0"/>
        <pt x="394" y="1130" on="0"/>
        <pt x="478" y="1077" on="0"/>
        <pt x="530" y="1077" on="1"/>
        <pt x="585" y="1077" on="0"/>
        <pt x="673" y="1130" on="0"/>
        <pt x="723" y="1224" on="0"/>
        <pt x="723" y="1282" on="1"/>
      </contour>
    </TTGlyph>
    <TTGlyph name="dieresis" xMin="59" yMin="1386" xMax="750" yMax="1653">
      <contour>
        <pt x="59" y="1542" on="0"/>
        <pt x="100" y="1611" on="0"/>
        <pt x="168" y="1653" on="0"/>
        <pt x="205" y="1653" on="1"/>
        <pt x="260" y="1653" on="0"/>
        <pt x="329" y="1588" on="0"/>
        <pt x="329" y="1541" on="1"/>
        <pt x="329" y="1501" on="0"/>
        <pt x="287" y="1429" on="0"/>
        <pt x="216" y="1386" on="0"/>
        <pt x="175" y="1386" on="1"/>
        <pt x="128" y="1386" on="0"/>
        <pt x="59" y="1455" on="0"/>
        <pt x="59" y="1503" on="1"/>
      </contour>
      <contour>
        <pt x="481" y="1540" on="0"/>
        <pt x="521" y="1611" on="0"/>
        <pt x="589" y="1653" on="0"/>
        <pt x="627" y="1653" on="1"/>
        <pt x="682" y="1653" on="0"/>
        <pt x="750" y="1588" on="0"/>
        <pt x="750" y="1541" on="1"/>
        <pt x="750" y="1501" on="0"/>
        <pt x="708" y="1429" on="0"/>
        <pt x="638" y="1386" on="0"/>
        <pt x="597" y="1386" on="1"/>
        <pt x="550" y="1386" on="0"/>
        <pt x="481" y="1454" on="0"/>
        <pt x="481" y="1501" on="1"/>
      </contour>
    </TTGlyph>
    <TTGlyph name="dieresis.cap" xMin="65" yMin="1724" xMax="752" yMax="1990">
      <contour>
        <pt x="65" y="1879" on="0"/>
        <pt x="108" y="1948" on="0"/>
        <pt x="175" y="1990" on="0"/>
        <pt x="209" y="1990" on="1"/>
        <pt x="264" y="1990" on="0"/>
        <pt x="332" y="1924" on="0"/>
        <pt x="332" y="1877" on="1"/>
        <pt x="332" y="1837" on="0"/>
        <pt x="289" y="1767" on="0"/>
        <pt x="219" y="1724" on="0"/>
        <pt x="179" y="1724" on="1"/>
        <pt x="133" y="1724" on="0"/>
        <pt x="65" y="1793" on="0"/>
        <pt x="65" y="1840" on="1"/>
      </contour>
      <contour>
        <pt x="484" y="1880" on="0"/>
        <pt x="529" y="1949" on="0"/>
        <pt x="597" y="1990" on="0"/>
        <pt x="630" y="1990" on="1"/>
        <pt x="685" y="1990" on="0"/>
        <pt x="752" y="1925" on="0"/>
        <pt x="752" y="1878" on="1"/>
        <pt x="752" y="1838" on="0"/>
        <pt x="710" y="1767" on="0"/>
        <pt x="640" y="1724" on="0"/>
        <pt x="599" y="1724" on="1"/>
        <pt x="552" y="1724" on="0"/>
        <pt x="484" y="1793" on="0"/>
        <pt x="484" y="1842" on="1"/>
      </contour>
    </TTGlyph>
    <TTGlyph name="divide" xMin="273" yMin="248" xMax="1163" yMax="1302">
      <contour>
        <pt x="621" y="1183" on="0"/>
        <pt x="675" y="1258" on="0"/>
        <pt x="758" y="1302" on="0"/>
        <pt x="798" y="1302" on="1"/>
        <pt x="859" y="1302" on="0"/>
        <pt x="921" y="1241" on="0"/>
        <pt x="921" y="1193" on="1"/>
        <pt x="921" y="1147" on="0"/>
        <pt x="868" y="1070" on="0"/>
        <pt x="786" y="1026" on="0"/>
        <pt x="745" y="1026" on="1"/>
        <pt x="693" y="1026" on="0"/>
        <pt x="621" y="1088" on="0"/>
        <pt x="621" y="1139" on="1"/>
      </contour>
      <contour>
        <pt x="1163" y="854" on="1"/>
        <pt x="1145" y="695" on="1"/>
        <pt x="273" y="695" on="1"/>
        <pt x="291" y="854" on="1"/>
      </contour>
      <contour>
        <pt x="762" y="523" on="0"/>
        <pt x="824" y="462" on="0"/>
        <pt x="824" y="413" on="1"/>
        <pt x="824" y="366" on="0"/>
        <pt x="772" y="291" on="0"/>
        <pt x="690" y="248" on="0"/>
        <pt x="648" y="248" on="1"/>
        <pt x="597" y="248" on="0"/>
        <pt x="525" y="309" on="0"/>
        <pt x="525" y="359" on="1"/>
        <pt x="525" y="403" on="0"/>
        <pt x="578" y="479" on="0"/>
        <pt x="661" y="523" on="0"/>
        <pt x="701" y="523" on="1"/>
      </contour>
    </TTGlyph>
    <TTGlyph name="dollar" xMin="105" yMin="-230" xMax="1116" yMax="1721">
      <contour>
        <pt x="280" y="345" on="1"/>
        <pt x="302" y="160" on="1"/>
        <pt x="347" y="123" on="0"/>
        <pt x="481" y="83" on="0"/>
        <pt x="548" y="83" on="1"/>
        <pt x="620" y="83" on="0"/>
        <pt x="760" y="138" on="0"/>
        <pt x="853" y="255" on="0"/>
        <pt x="853" y="343" on="1"/>
        <pt x="853" y="419" on="0"/>
        <pt x="785" y="537" on="0"/>
        <pt x="676" y="626" on="0"/>
        <pt x="591" y="679" on="1"/>
        <pt x="474" y="753" on="0"/>
        <pt x="343" y="853" on="0"/>
        <pt x="249" y="1007" on="0"/>
        <pt x="249" y="1112" on="1"/>
        <pt x="249" y="1230" on="0"/>
        <pt x="361" y="1414" on="0"/>
        <pt x="554" y="1525" on="0"/>
        <pt x="673" y="1538" on="1"/>
        <pt x="703" y="1721" on="1"/>
        <pt x="884" y="1721" on="1"/>
        <pt x="853" y="1536" on="1"/>
        <pt x="943" y="1527" on="0"/>
        <pt x="1078" y="1483" on="0"/>
        <pt x="1116" y="1457" on="1"/>
        <pt x="1069" y="1210" on="1"/>
        <pt x="950" y="1210" on="1"/>
        <pt x="914" y="1375" on="1"/>
        <pt x="881" y="1401" on="0"/>
        <pt x="760" y="1434" on="0"/>
        <pt x="702" y="1434" on="1"/>
        <pt x="643" y="1434" on="0"/>
        <pt x="520" y="1383" on="0"/>
        <pt x="437" y="1272" on="0"/>
        <pt x="437" y="1186" on="1"/>
        <pt x="437" y="1109" on="0"/>
        <pt x="508" y="993" on="0"/>
        <pt x="618" y="907" on="0"/>
        <pt x="709" y="851" on="1"/>
        <pt x="819" y="783" on="0"/>
        <pt x="953" y="678" on="0"/>
        <pt x="1046" y="528" on="0"/>
        <pt x="1046" y="430" on="1"/>
        <pt x="1046" y="305" on="0"/>
        <pt x="928" y="113" on="0"/>
        <pt x="724" y="-3" on="0"/>
        <pt x="596" y="-18" on="1"/>
        <pt x="562" y="-230" on="1"/>
        <pt x="382" y="-230" on="1"/>
        <pt x="416" y="-19" on="1"/>
        <pt x="311" y="-10" on="0"/>
        <pt x="136" y="40" on="0"/>
        <pt x="105" y="65" on="1"/>
        <pt x="151" y="345" on="1"/>
      </contour>
    </TTGlyph>
    <TTGlyph name="dong" xMin="134" yMin="0" xMax="1301" yMax="1680">
      <contour>
        <pt x="939" y="1407" on="1"/>
        <pt x="954" y="1530" on="1"/>
        <pt x="755" y="1545" on="1"/>
        <pt x="766" y="1637" on="1"/>
        <pt x="1121" y="1680" on="1"/>
        <pt x="1122" y="1680" on="1"/>
        <pt x="1163" y="1649" on="1"/>
        <pt x="1133" y="1407" on="1"/>
        <pt x="1301" y="1407" on="1"/>
        <pt x="1288" y="1299" on="1"/>
        <pt x="1119" y="1299" on="1"/>
        <pt x="1006" y="382" on="1"/>
        <pt x="1129" y="382" on="1"/>
        <pt x="1118" y="285" on="1"/>
        <pt x="1058" y="268" on="0"/>
        <pt x="957" y="247" on="0"/>
        <pt x="906" y="247" on="1"/>
        <pt x="872" y="247" on="0"/>
        <pt x="834" y="256" on="0"/>
        <pt x="813" y="285" on="0"/>
        <pt x="813" y="315" on="1"/>
        <pt x="813" y="323" on="0"/>
        <pt x="815" y="345" on="1"/>
        <pt x="820" y="391" on="1"/>
        <pt x="756" y="331" on="0"/>
        <pt x="597" y="257" on="0"/>
        <pt x="492" y="257" on="1"/>
        <pt x="403" y="257" on="0"/>
        <pt x="253" y="333" on="0"/>
        <pt x="162" y="488" on="0"/>
        <pt x="162" y="601" on="1"/>
        <pt x="162" y="754" on="0"/>
        <pt x="300" y="1014" on="0"/>
        <pt x="554" y="1168" on="0"/>
        <pt x="719" y="1168" on="1"/>
        <pt x="771" y="1168" on="0"/>
        <pt x="857" y="1152" on="0"/>
        <pt x="905" y="1137" on="1"/>
        <pt x="925" y="1299" on="1"/>
        <pt x="645" y="1299" on="1"/>
        <pt x="658" y="1407" on="1"/>
      </contour>
      <contour>
        <pt x="888" y="997" on="1"/>
        <pt x="876" y="1025" on="0"/>
        <pt x="758" y="1066" on="0"/>
        <pt x="683" y="1066" on="1"/>
        <pt x="580" y="1066" on="0"/>
        <pt x="435" y="938" on="0"/>
        <pt x="362" y="740" on="0"/>
        <pt x="362" y="635" on="1"/>
        <pt x="362" y="554" on="0"/>
        <pt x="417" y="443" on="0"/>
        <pt x="511" y="389" on="0"/>
        <pt x="568" y="389" on="1"/>
        <pt x="645" y="389" on="0"/>
        <pt x="780" y="457" on="0"/>
        <pt x="827" y="501" on="1"/>
      </contour>
      <contour>
        <pt x="1035" y="118" on="1"/>
        <pt x="1021" y="0" on="1"/>
        <pt x="134" y="0" on="1"/>
        <pt x="148" y="118" on="1"/>
      </contour>
    </TTGlyph>
    <TTGlyph name="dotaccent" xMin="59" yMin="1386" xMax="329" yMax="1653">
      <contour>
        <pt x="59" y="1542" on="0"/>
        <pt x="103" y="1611" on="0"/>
        <pt x="171" y="1653" on="0"/>
        <pt x="205" y="1653" on="1"/>
        <pt x="261" y="1653" on="0"/>
        <pt x="329" y="1588" on="0"/>
        <pt x="329" y="1541" on="1"/>
        <pt x="329" y="1501" on="0"/>
        <pt x="287" y="1429" on="0"/>
        <pt x="216" y="1386" on="0"/>
        <pt x="176" y="1386" on="1"/>
        <pt x="128" y="1386" on="0"/>
        <pt x="59" y="1455" on="0"/>
        <pt x="59" y="1503" on="1"/>
      </contour>
    </TTGlyph>
    <TTGlyph name="dotaccent.cap" xMin="59" yMin="1688" xMax="330" yMax="1955">
      <contour>
        <pt x="59" y="1843" on="0"/>
        <pt x="103" y="1912" on="0"/>
        <pt x="171" y="1955" on="0"/>
        <pt x="205" y="1955" on="1"/>
        <pt x="260" y="1955" on="0"/>
        <pt x="330" y="1891" on="0"/>
        <pt x="330" y="1844" on="1"/>
        <pt x="330" y="1804" on="0"/>
        <pt x="288" y="1732" on="0"/>
        <pt x="217" y="1688" on="0"/>
        <pt x="176" y="1688" on="1"/>
        <pt x="128" y="1688" on="0"/>
        <pt x="59" y="1757" on="0"/>
        <pt x="59" y="1804" on="1"/>
      </contour>
    </TTGlyph>
    <TTGlyph name="dotlessi" xMin="139" yMin="-20" xMax="534" yMax="1163">
      <contour>
        <pt x="139" y="1031" on="1"/>
        <pt x="157" y="1112" on="1"/>
        <pt x="463" y="1163" on="1"/>
        <pt x="512" y="1139" on="1"/>
        <pt x="373" y="189" on="1"/>
        <pt x="371" y="177" on="0"/>
        <pt x="371" y="158" on="1"/>
        <pt x="371" y="113" on="0"/>
        <pt x="396" y="113" on="1"/>
        <pt x="413" y="113" on="0"/>
        <pt x="463" y="142" on="0"/>
        <pt x="502" y="179" on="1"/>
        <pt x="534" y="125" on="1"/>
        <pt x="520" y="104" on="0"/>
        <pt x="447" y="35" on="0"/>
        <pt x="343" y="-20" on="0"/>
        <pt x="287" y="-20" on="1"/>
        <pt x="160" y="-20" on="0"/>
        <pt x="160" y="96" on="1"/>
        <pt x="161" y="113" on="1"/>
        <pt x="166" y="178" on="0"/>
        <pt x="192" y="361" on="0"/>
        <pt x="223" y="562" on="1"/>
        <pt x="270" y="872" on="0"/>
        <pt x="285" y="979" on="1"/>
      </contour>
    </TTGlyph>
    <TTGlyph name="e" xMin="82" yMin="-20" xMax="963" yMax="1163">
      <contour>
        <pt x="771" y="1163" on="0"/>
        <pt x="900" y="1098" on="0"/>
        <pt x="963" y="985" on="0"/>
        <pt x="963" y="913" on="1"/>
        <pt x="963" y="770" on="0"/>
        <pt x="729" y="568" on="0"/>
        <pt x="414" y="464" on="0"/>
        <pt x="300" y="460" on="1"/>
        <pt x="298" y="434" on="0"/>
        <pt x="298" y="419" on="1"/>
        <pt x="298" y="348" on="0"/>
        <pt x="342" y="211" on="0"/>
        <pt x="439" y="120" on="0"/>
        <pt x="514" y="120" on="1"/>
        <pt x="596" y="120" on="0"/>
        <pt x="772" y="192" on="0"/>
        <pt x="852" y="267" on="1"/>
        <pt x="899" y="183" on="1"/>
        <pt x="867" y="139" on="0"/>
        <pt x="744" y="45" on="0"/>
        <pt x="578" y="-20" on="0"/>
        <pt x="487" y="-20" on="1"/>
        <pt x="351" y="-20" on="0"/>
        <pt x="168" y="106" on="0"/>
        <pt x="82" y="311" on="0"/>
        <pt x="85" y="430" on="1"/>
        <pt x="90" y="619" on="0"/>
        <pt x="248" y="957" on="0"/>
        <pt x="516" y="1163" on="0"/>
        <pt x="677" y="1163" on="1"/>
      </contour>
      <contour>
        <pt x="753" y="971" on="0"/>
        <pt x="686" y="1045" on="0"/>
        <pt x="629" y="1045" on="1"/>
        <pt x="536" y="1045" on="0"/>
        <pt x="396" y="888" on="0"/>
        <pt x="316" y="667" on="0"/>
        <pt x="305" y="570" on="1"/>
        <pt x="393" y="574" on="0"/>
        <pt x="604" y="656" on="0"/>
        <pt x="754" y="802" on="0"/>
        <pt x="754" y="896" on="1"/>
      </contour>
    </TTGlyph>
    <TTGlyph name="eacute" xMin="82" yMin="-20" xMax="998" yMax="1743">
      <component glyphName="acute" x="487" y="0" flags="0x0"/>
      <component glyphName="e" x="0" y="0" flags="0x0"/>
    </TTGlyph>
    <TTGlyph name="ebreve" xMin="82" yMin="-20" xMax="979" yMax="1652">
      <component glyphName="e" x="0" y="0" flags="0x0"/>
      <component glyphName="breve" x="301" y="0" flags="0x0"/>
    </TTGlyph>
    <TTGlyph name="ecaron" xMin="82" yMin="-20" xMax="1026" yMax="1651">
      <component glyphName="caron" x="260" y="0" flags="0x0"/>
      <component glyphName="e" x="0" y="0" flags="0x0"/>
    </TTGlyph>
    <TTGlyph name="ecircumflex" xMin="82" yMin="-20" xMax="979" yMax="1651">
      <component glyphName="circumflex" x="232" y="0" flags="0x0"/>
      <component glyphName="e" x="0" y="0" flags="0x0"/>
    </TTGlyph>
    <TTGlyph name="edieresis" xMin="82" yMin="-20" xMax="1016" yMax="1653">
      <component glyphName="dieresis" x="266" y="0" flags="0x0"/>
      <component glyphName="e" x="0" y="0" flags="0x0"/>
    </TTGlyph>
    <TTGlyph name="edotaccent" xMin="82" yMin="-20" xMax="963" yMax="1653">
      <component glyphName="e" x="0" y="0" flags="0x0"/>
      <component glyphName="dotaccent" x="481" y="0" flags="0x0"/>
    </TTGlyph>
    <TTGlyph name="egrave" xMin="82" yMin="-20" xMax="963" yMax="1743">
      <component glyphName="e" x="0" y="0" flags="0x0"/>
      <component glyphName="grave" x="209" y="0" flags="0x0"/>
    </TTGlyph>
    <TTGlyph name="eight" xMin="105" yMin="-20" xMax="1124" yMax="1550">
      <contour>
        <pt x="280" y="978" on="0"/>
        <pt x="280" y="1167" on="1"/>
        <pt x="280" y="1276" on="0"/>
        <pt x="401" y="1451" on="0"/>
        <pt x="615" y="1550" on="0"/>
        <pt x="748" y="1550" on="1"/>
        <pt x="858" y="1550" on="0"/>
        <pt x="1028" y="1473" on="0"/>
        <pt x="1124" y="1328" on="0"/>
        <pt x="1124" y="1229" on="1"/>
        <pt x="1124" y="1094" on="0"/>
        <pt x="944" y="892" on="0"/>
        <pt x="788" y="813" on="1"/>
        <pt x="906" y="730" on="0"/>
        <pt x="1058" y="509" on="0"/>
        <pt x="1058" y="390" on="1"/>
        <pt x="1058" y="262" on="0"/>
        <pt x="912" y="76" on="0"/>
        <pt x="674" y="-20" on="0"/>
        <pt x="539" y="-20" on="1"/>
        <pt x="429" y="-20" on="0"/>
        <pt x="231" y="56" on="0"/>
        <pt x="105" y="216" on="0"/>
        <pt x="105" y="334" on="1"/>
        <pt x="105" y="487" on="0"/>
        <pt x="310" y="726" on="0"/>
        <pt x="491" y="806" on="1"/>
      </contour>
      <contour>
        <pt x="925" y="1329" on="0"/>
        <pt x="814" y="1450" on="0"/>
        <pt x="727" y="1450" on="1"/>
        <pt x="657" y="1450" on="0"/>
        <pt x="541" y="1380" on="0"/>
        <pt x="474" y="1259" on="0"/>
        <pt x="474" y="1185" on="1"/>
        <pt x="474" y="1092" on="0"/>
        <pt x="593" y="944" on="0"/>
        <pt x="703" y="866" on="1"/>
        <pt x="805" y="912" on="0"/>
        <pt x="925" y="1097" on="0"/>
        <pt x="925" y="1214" on="1"/>
      </contour>
      <contour>
        <pt x="648" y="87" on="0"/>
        <pt x="776" y="156" on="0"/>
        <pt x="850" y="281" on="0"/>
        <pt x="850" y="360" on="1"/>
        <pt x="850" y="464" on="0"/>
        <pt x="701" y="647" on="0"/>
        <pt x="560" y="741" on="1"/>
        <pt x="450" y="690" on="0"/>
        <pt x="323" y="490" on="0"/>
        <pt x="321" y="367" on="1"/>
        <pt x="321" y="284" on="0"/>
        <pt x="380" y="157" on="0"/>
        <pt x="492" y="87" on="0"/>
        <pt x="569" y="87" on="1"/>
      </contour>
    </TTGlyph>
    <TTGlyph name="ellipsis" xMin="84" yMin="-22" xMax="1418" yMax="254">
      <contour>
        <pt x="305" y="254" on="0"/>
        <pt x="366" y="195" on="0"/>
        <pt x="366" y="147" on="1"/>
        <pt x="366" y="98" on="0"/>
        <pt x="318" y="21" on="0"/>
        <pt x="239" y="-22" on="0"/>
        <pt x="196" y="-22" on="1"/>
        <pt x="146" y="-22" on="0"/>
        <pt x="84" y="36" on="0"/>
        <pt x="84" y="85" on="1"/>
        <pt x="84" y="131" on="0"/>
        <pt x="130" y="208" on="0"/>
        <pt x="204" y="254" on="0"/>
        <pt x="244" y="254" on="1"/>
      </contour>
      <contour>
        <pt x="831" y="254" on="0"/>
        <pt x="892" y="195" on="0"/>
        <pt x="892" y="147" on="1"/>
        <pt x="892" y="98" on="0"/>
        <pt x="844" y="21" on="0"/>
        <pt x="765" y="-22" on="0"/>
        <pt x="722" y="-22" on="1"/>
        <pt x="672" y="-22" on="0"/>
        <pt x="610" y="36" on="0"/>
        <pt x="610" y="85" on="1"/>
        <pt x="610" y="131" on="0"/>
        <pt x="656" y="208" on="0"/>
        <pt x="730" y="254" on="0"/>
        <pt x="770" y="254" on="1"/>
      </contour>
      <contour>
        <pt x="1357" y="254" on="0"/>
        <pt x="1418" y="195" on="0"/>
        <pt x="1418" y="147" on="1"/>
        <pt x="1418" y="98" on="0"/>
        <pt x="1370" y="21" on="0"/>
        <pt x="1291" y="-22" on="0"/>
        <pt x="1248" y="-22" on="1"/>
        <pt x="1198" y="-22" on="0"/>
        <pt x="1136" y="36" on="0"/>
        <pt x="1136" y="85" on="1"/>
        <pt x="1136" y="131" on="0"/>
        <pt x="1182" y="208" on="0"/>
        <pt x="1256" y="254" on="0"/>
        <pt x="1296" y="254" on="1"/>
      </contour>
    </TTGlyph>
    <TTGlyph name="emacron" xMin="82" yMin="-20" xMax="963" yMax="1576">
      <component glyphName="e" x="0" y="0" flags="0x0"/>
      <component glyphName="macron" x="332" y="0" flags="0x0"/>
    </TTGlyph>
    <TTGlyph name="emdash" xMin="233" yMin="693" xMax="1853" yMax="852">
      <contour>
        <pt x="1853" y="852" on="1"/>
        <pt x="1823" y="693" on="1"/>
        <pt x="233" y="693" on="1"/>
        <pt x="262" y="852" on="1"/>
      </contour>
    </TTGlyph>
    <TTGlyph name="endash" xMin="233" yMin="693" xMax="1360" yMax="852">
      <contour>
        <pt x="1360" y="852" on="1"/>
        <pt x="1330" y="693" on="1"/>
        <pt x="233" y="693" on="1"/>
        <pt x="263" y="852" on="1"/>
      </contour>
    </TTGlyph>
    <TTGlyph name="eng" xMin="133" yMin="-518" xMax="1093" yMax="1162">
      <contour>
        <pt x="269" y="942" on="1"/>
        <pt x="162" y="1006" on="1"/>
        <pt x="180" y="1095" on="1"/>
        <pt x="427" y="1147" on="1"/>
        <pt x="475" y="1123" on="1"/>
        <pt x="458" y="926" on="1"/>
        <pt x="542" y="1031" on="0"/>
        <pt x="757" y="1162" on="0"/>
        <pt x="865" y="1162" on="1"/>
        <pt x="1093" y="1162" on="0"/>
        <pt x="1093" y="892" on="1"/>
        <pt x="1092" y="861" on="1"/>
        <pt x="1084" y="673" on="0"/>
        <pt x="1025" y="201" on="0"/>
        <pt x="985" y="0" on="1"/>
        <pt x="932" y="-262" on="0"/>
        <pt x="706" y="-518" on="0"/>
        <pt x="532" y="-518" on="1"/>
        <pt x="483" y="-518" on="0"/>
        <pt x="407" y="-499" on="0"/>
        <pt x="391" y="-481" on="1"/>
        <pt x="426" y="-399" on="1"/>
        <pt x="438" y="-404" on="0"/>
        <pt x="484" y="-411" on="0"/>
        <pt x="496" y="-411" on="1"/>
        <pt x="586" y="-411" on="0"/>
        <pt x="704" y="-282" on="0"/>
        <pt x="770" y="-80" on="0"/>
        <pt x="796" y="62" on="1"/>
        <pt x="827" y="266" on="0"/>
        <pt x="884" y="690" on="0"/>
        <pt x="887" y="849" on="1"/>
        <pt x="888" y="917" on="0"/>
        <pt x="862" y="983" on="0"/>
        <pt x="815" y="1003" on="0"/>
        <pt x="774" y="1003" on="1"/>
        <pt x="700" y="1003" on="0"/>
        <pt x="512" y="862" on="0"/>
        <pt x="435" y="754" on="1"/>
        <pt x="333" y="0" on="1"/>
        <pt x="133" y="0" on="1"/>
        <pt x="261" y="945" on="1"/>
      </contour>
    </TTGlyph>
    <TTGlyph name="eogonek" xMin="82" yMin="-419" xMax="963" yMax="1163">
      <contour>
        <pt x="596" y="120" on="0"/>
        <pt x="772" y="192" on="0"/>
        <pt x="852" y="267" on="1"/>
        <pt x="899" y="183" on="1"/>
        <pt x="865" y="135" on="0"/>
        <pt x="805" y="91" on="1"/>
        <pt x="715" y="14" on="0"/>
        <pt x="576" y="-154" on="0"/>
        <pt x="574" y="-201" on="1"/>
        <pt x="572" y="-245" on="0"/>
        <pt x="606" y="-287" on="0"/>
        <pt x="628" y="-287" on="1"/>
        <pt x="656" y="-287" on="0"/>
        <pt x="718" y="-259" on="0"/>
        <pt x="759" y="-227" on="1"/>
        <pt x="785" y="-322" on="1"/>
        <pt x="739" y="-364" on="0"/>
        <pt x="611" y="-419" on="0"/>
        <pt x="531" y="-419" on="1"/>
        <pt x="481" y="-419" on="0"/>
        <pt x="412" y="-381" on="0"/>
        <pt x="377" y="-320" on="0"/>
        <pt x="377" y="-287" on="1"/>
        <pt x="377" y="-255" on="0"/>
        <pt x="399" y="-183" on="0"/>
        <pt x="417" y="-157" on="1"/>
        <pt x="456" y="-105" on="0"/>
        <pt x="538" y="-43" on="0"/>
        <pt x="602" y="-5" on="1"/>
        <pt x="542" y="-20" on="0"/>
        <pt x="487" y="-20" on="1"/>
        <pt x="351" y="-20" on="0"/>
        <pt x="168" y="106" on="0"/>
        <pt x="82" y="311" on="0"/>
        <pt x="85" y="430" on="1"/>
        <pt x="90" y="619" on="0"/>
        <pt x="248" y="957" on="0"/>
        <pt x="516" y="1163" on="0"/>
        <pt x="677" y="1163" on="1"/>
        <pt x="771" y="1163" on="0"/>
        <pt x="900" y="1098" on="0"/>
        <pt x="963" y="985" on="0"/>
        <pt x="963" y="913" on="1"/>
        <pt x="963" y="770" on="0"/>
        <pt x="729" y="568" on="0"/>
        <pt x="414" y="464" on="0"/>
        <pt x="300" y="460" on="1"/>
        <pt x="298" y="434" on="0"/>
        <pt x="298" y="419" on="1"/>
        <pt x="298" y="348" on="0"/>
        <pt x="342" y="211" on="0"/>
        <pt x="439" y="120" on="0"/>
        <pt x="514" y="120" on="1"/>
      </contour>
      <contour>
        <pt x="536" y="1045" on="0"/>
        <pt x="396" y="888" on="0"/>
        <pt x="316" y="667" on="0"/>
        <pt x="305" y="570" on="1"/>
        <pt x="393" y="574" on="0"/>
        <pt x="604" y="656" on="0"/>
        <pt x="754" y="802" on="0"/>
        <pt x="754" y="896" on="1"/>
        <pt x="753" y="971" on="0"/>
        <pt x="686" y="1045" on="0"/>
        <pt x="629" y="1045" on="1"/>
      </contour>
    </TTGlyph>
    <TTGlyph name="equal" xMin="80" yMin="338" xMax="983" yMax="1006">
      <contour>
        <pt x="983" y="1006" on="1"/>
        <pt x="965" y="848" on="1"/>
        <pt x="150" y="848" on="1"/>
        <pt x="168" y="1006" on="1"/>
      </contour>
      <contour>
        <pt x="913" y="496" on="1"/>
        <pt x="895" y="338" on="1"/>
        <pt x="80" y="338" on="1"/>
        <pt x="98" y="496" on="1"/>
      </contour>
    </TTGlyph>
    <TTGlyph name="estimated" xMin="115" yMin="-16" xMax="1281" yMax="1359">
      <contour>
        <pt x="380" y="275" on="1"/>
        <pt x="491" y="103" on="0"/>
        <pt x="761" y="103" on="1"/>
        <pt x="858" y="103" on="0"/>
        <pt x="1057" y="163" on="0"/>
        <pt x="1123" y="198" on="1"/>
        <pt x="1163" y="83" on="1"/>
        <pt x="1102" y="39" on="0"/>
        <pt x="851" y="-16" on="0"/>
        <pt x="739" y="-16" on="1"/>
        <pt x="544" y="-16" on="0"/>
        <pt x="264" y="148" on="0"/>
        <pt x="115" y="457" on="0"/>
        <pt x="115" y="671" on="1"/>
        <pt x="115" y="870" on="0"/>
        <pt x="256" y="1177" on="0"/>
        <pt x="538" y="1353" on="0"/>
        <pt x="743" y="1356" on="1"/>
        <pt x="888" y="1359" on="0"/>
        <pt x="1130" y="1232" on="0"/>
        <pt x="1276" y="992" on="0"/>
        <pt x="1281" y="832" on="1"/>
        <pt x="1281" y="751" on="0"/>
        <pt x="1277" y="664" on="0"/>
        <pt x="1270" y="630" on="1"/>
        <pt x="380" y="630" on="1"/>
      </contour>
      <contour>
        <pt x="380" y="768" on="1"/>
        <pt x="1033" y="768" on="1"/>
        <pt x="1033" y="1112" on="1"/>
        <pt x="941" y="1236" on="0"/>
        <pt x="730" y="1236" on="1"/>
        <pt x="618" y="1236" on="0"/>
        <pt x="437" y="1148" on="0"/>
        <pt x="380" y="1056" on="1"/>
      </contour>
    </TTGlyph>
    <TTGlyph name="eth" xMin="85" yMin="-20" xMax="1087" yMax="1799">
      <contour>
        <pt x="545" y="1511" on="1"/>
        <pt x="428" y="1595" on="0"/>
        <pt x="342" y="1616" on="1"/>
        <pt x="386" y="1736" on="1"/>
        <pt x="435" y="1724" on="0"/>
        <pt x="574" y="1658" on="0"/>
        <pt x="642" y="1617" on="1"/>
        <pt x="682" y="1661" on="0"/>
        <pt x="782" y="1780" on="0"/>
        <pt x="797" y="1799" on="1"/>
        <pt x="894" y="1708" on="1"/>
        <pt x="748" y="1545" on="1"/>
        <pt x="761" y="1535" on="0"/>
        <pt x="762" y="1534" on="1"/>
        <pt x="931" y="1392" on="0"/>
        <pt x="1087" y="1036" on="0"/>
        <pt x="1087" y="821" on="1"/>
        <pt x="1087" y="586" on="0"/>
        <pt x="946" y="204" on="0"/>
        <pt x="673" y="-20" on="0"/>
        <pt x="483" y="-20" on="1"/>
        <pt x="354" y="-20" on="0"/>
        <pt x="174" y="108" on="0"/>
        <pt x="85" y="312" on="0"/>
        <pt x="85" y="425" on="1"/>
        <pt x="85" y="630" on="0"/>
        <pt x="241" y="942" on="0"/>
        <pt x="497" y="1110" on="0"/>
        <pt x="641" y="1110" on="1"/>
        <pt x="715" y="1110" on="0"/>
        <pt x="847" y="1055" on="0"/>
        <pt x="881" y="998" on="1"/>
        <pt x="856" y="1106" on="0"/>
        <pt x="809" y="1240" on="0"/>
        <pt x="730" y="1357" on="0"/>
        <pt x="662" y="1417" on="1"/>
        <pt x="646" y="1431" on="1"/>
        <pt x="492" y="1257" on="1"/>
        <pt x="391" y="1346" on="1"/>
      </contour>
      <contour>
        <pt x="858" y="596" on="0"/>
        <pt x="870" y="705" on="0"/>
        <pt x="870" y="733" on="1"/>
        <pt x="870" y="778" on="0"/>
        <pt x="821" y="903" on="0"/>
        <pt x="716" y="997" on="0"/>
        <pt x="636" y="997" on="1"/>
        <pt x="524" y="997" on="0"/>
        <pt x="373" y="821" on="0"/>
        <pt x="301" y="552" on="0"/>
        <pt x="301" y="411" on="1"/>
        <pt x="301" y="321" on="0"/>
        <pt x="348" y="175" on="0"/>
        <pt x="441" y="89" on="0"/>
        <pt x="508" y="89" on="1"/>
        <pt x="591" y="89" on="0"/>
        <pt x="733" y="211" on="0"/>
        <pt x="831" y="422" on="0"/>
        <pt x="851" y="551" on="1"/>
      </contour>
    </TTGlyph>
    <TTGlyph name="exclam" xMin="136" yMin="-22" xMax="639" yMax="1778">
      <contour>
        <pt x="639" y="1778" on="1"/>
        <pt x="395" y="490" on="1"/>
        <pt x="254" y="490" on="1"/>
        <pt x="390" y="1778" on="1"/>
      </contour>
      <contour>
        <pt x="358" y="254" on="0"/>
        <pt x="419" y="194" on="0"/>
        <pt x="419" y="146" on="1"/>
        <pt x="419" y="133" on="0"/>
        <pt x="418" y="127" on="1"/>
        <pt x="412" y="83" on="0"/>
        <pt x="362" y="15" on="0"/>
        <pt x="288" y="-22" on="0"/>
        <pt x="248" y="-22" on="1"/>
        <pt x="198" y="-22" on="0"/>
        <pt x="136" y="37" on="0"/>
        <pt x="136" y="87" on="1"/>
        <pt x="136" y="132" on="0"/>
        <pt x="182" y="209" on="0"/>
        <pt x="256" y="254" on="0"/>
        <pt x="296" y="254" on="1"/>
      </contour>
    </TTGlyph>
    <TTGlyph name="exclamdbl" xMin="136" yMin="-22" xMax="1255" yMax="1778">
      <component glyphName="exclam" x="0" y="0" flags="0x0"/>
      <component glyphName="exclam" x="616" y="0" flags="0x0"/>
    </TTGlyph>
    <TTGlyph name="exclamdown" xMin="81" yMin="-434" xMax="584" yMax="1366">
      <contour>
        <pt x="362" y="1090" on="0"/>
        <pt x="301" y="1150" on="0"/>
        <pt x="301" y="1198" on="1"/>
        <pt x="301" y="1211" on="0"/>
        <pt x="302" y="1217" on="1"/>
        <pt x="308" y="1261" on="0"/>
        <pt x="358" y="1329" on="0"/>
        <pt x="432" y="1366" on="0"/>
        <pt x="472" y="1366" on="1"/>
        <pt x="522" y="1366" on="0"/>
        <pt x="584" y="1307" on="0"/>
        <pt x="584" y="1257" on="1"/>
        <pt x="584" y="1212" on="0"/>
        <pt x="538" y="1135" on="0"/>
        <pt x="464" y="1090" on="0"/>
        <pt x="424" y="1090" on="1"/>
      </contour>
      <contour>
        <pt x="81" y="-434" on="1"/>
        <pt x="325" y="854" on="1"/>
        <pt x="466" y="854" on="1"/>
        <pt x="330" y="-434" on="1"/>
      </contour>
    </TTGlyph>
    <TTGlyph name="f" xMin="-209" yMin="-514" xMax="883" yMax="1670">
      <contour>
        <pt x="128" y="1011" on="1"/>
        <pt x="143" y="1087" on="1"/>
        <pt x="292" y="1149" on="1"/>
        <pt x="304" y="1220" on="1"/>
        <pt x="324" y="1341" on="0"/>
        <pt x="453" y="1548" on="0"/>
        <pt x="632" y="1670" on="0"/>
        <pt x="725" y="1670" on="1"/>
        <pt x="771" y="1670" on="0"/>
        <pt x="848" y="1659" on="0"/>
        <pt x="883" y="1644" on="1"/>
        <pt x="824" y="1476" on="1"/>
        <pt x="794" y="1497" on="0"/>
        <pt x="731" y="1524" on="0"/>
        <pt x="685" y="1524" on="1"/>
        <pt x="610" y="1524" on="0"/>
        <pt x="521" y="1376" on="0"/>
        <pt x="504" y="1245" on="1"/>
        <pt x="492" y="1155" on="1"/>
        <pt x="726" y="1155" on="1"/>
        <pt x="709" y="1011" on="1"/>
        <pt x="474" y="1011" on="1"/>
        <pt x="341" y="-50" on="1"/>
        <pt x="324" y="-186" on="0"/>
        <pt x="216" y="-395" on="0"/>
        <pt x="53" y="-512" on="0"/>
        <pt x="-44" y="-513" on="1"/>
        <pt x="-94" y="-514" on="0"/>
        <pt x="-186" y="-506" on="0"/>
        <pt x="-209" y="-500" on="1"/>
        <pt x="-156" y="-331" on="1"/>
        <pt x="-136" y="-340" on="0"/>
        <pt x="-23" y="-370" on="0"/>
        <pt x="9" y="-369" on="1"/>
        <pt x="55" y="-369" on="0"/>
        <pt x="113" y="-239" on="0"/>
        <pt x="128" y="-128" on="1"/>
        <pt x="266" y="1011" on="1"/>
      </contour>
    </TTGlyph>
    <TTGlyph name="f_f" xMin="-209" yMin="-514" xMax="1590" yMax="1670">
      <contour>
        <pt x="835" y="1011" on="1"/>
        <pt x="850" y="1087" on="1"/>
        <pt x="999" y="1149" on="1"/>
        <pt x="1011" y="1220" on="1"/>
        <pt x="1031" y="1341" on="0"/>
        <pt x="1160" y="1548" on="0"/>
        <pt x="1339" y="1670" on="0"/>
        <pt x="1432" y="1670" on="1"/>
        <pt x="1478" y="1670" on="0"/>
        <pt x="1555" y="1659" on="0"/>
        <pt x="1590" y="1644" on="1"/>
        <pt x="1531" y="1476" on="1"/>
        <pt x="1501" y="1497" on="0"/>
        <pt x="1438" y="1524" on="0"/>
        <pt x="1392" y="1524" on="1"/>
        <pt x="1317" y="1524" on="0"/>
        <pt x="1228" y="1376" on="0"/>
        <pt x="1211" y="1245" on="1"/>
        <pt x="1199" y="1155" on="1"/>
        <pt x="1433" y="1155" on="1"/>
        <pt x="1416" y="1011" on="1"/>
        <pt x="1181" y="1011" on="1"/>
        <pt x="1048" y="-50" on="1"/>
        <pt x="1031" y="-186" on="0"/>
        <pt x="923" y="-395" on="0"/>
        <pt x="760" y="-512" on="0"/>
        <pt x="663" y="-513" on="1"/>
        <pt x="613" y="-514" on="0"/>
        <pt x="521" y="-506" on="0"/>
        <pt x="498" y="-500" on="1"/>
        <pt x="551" y="-331" on="1"/>
        <pt x="571" y="-340" on="0"/>
        <pt x="684" y="-370" on="0"/>
        <pt x="716" y="-369" on="1"/>
        <pt x="762" y="-369" on="0"/>
        <pt x="820" y="-239" on="0"/>
        <pt x="835" y="-128" on="1"/>
        <pt x="973" y="1011" on="1"/>
      </contour>
      <contour>
        <pt x="128" y="1011" on="1"/>
        <pt x="143" y="1087" on="1"/>
        <pt x="292" y="1149" on="1"/>
        <pt x="299" y="1191" on="1"/>
        <pt x="319" y="1312" on="0"/>
        <pt x="448" y="1519" on="0"/>
        <pt x="627" y="1640" on="0"/>
        <pt x="720" y="1640" on="1"/>
        <pt x="766" y="1640" on="0"/>
        <pt x="843" y="1629" on="0"/>
        <pt x="879" y="1614" on="1"/>
        <pt x="819" y="1446" on="1"/>
        <pt x="788" y="1467" on="0"/>
        <pt x="726" y="1494" on="0"/>
        <pt x="680" y="1494" on="1"/>
        <pt x="605" y="1494" on="0"/>
        <pt x="516" y="1347" on="0"/>
        <pt x="499" y="1216" on="1"/>
        <pt x="492" y="1155" on="1"/>
        <pt x="725" y="1155" on="1"/>
        <pt x="709" y="1011" on="1"/>
        <pt x="474" y="1011" on="1"/>
        <pt x="341" y="-53" on="1"/>
        <pt x="324" y="-187" on="0"/>
        <pt x="216" y="-395" on="0"/>
        <pt x="53" y="-512" on="0"/>
        <pt x="-44" y="-513" on="1"/>
        <pt x="-94" y="-514" on="0"/>
        <pt x="-186" y="-506" on="0"/>
        <pt x="-209" y="-500" on="1"/>
        <pt x="-156" y="-331" on="1"/>
        <pt x="-136" y="-340" on="0"/>
        <pt x="-23" y="-370" on="0"/>
        <pt x="9" y="-369" on="1"/>
        <pt x="55" y="-369" on="0"/>
        <pt x="113" y="-239" on="0"/>
        <pt x="128" y="-128" on="1"/>
        <pt x="266" y="1011" on="1"/>
      </contour>
    </TTGlyph>
    <TTGlyph name="f_f_i" xMin="-209" yMin="-514" xMax="1995" yMax="1670">
      <contour>
        <pt x="835" y="1011" on="1"/>
        <pt x="850" y="1087" on="1"/>
        <pt x="999" y="1149" on="1"/>
        <pt x="1011" y="1220" on="1"/>
        <pt x="1031" y="1341" on="0"/>
        <pt x="1156" y="1548" on="0"/>
        <pt x="1331" y="1670" on="0"/>
        <pt x="1422" y="1670" on="1"/>
        <pt x="1466" y="1670" on="0"/>
        <pt x="1538" y="1659" on="0"/>
        <pt x="1571" y="1644" on="1"/>
        <pt x="1512" y="1476" on="1"/>
        <pt x="1484" y="1497" on="0"/>
        <pt x="1425" y="1524" on="0"/>
        <pt x="1382" y="1524" on="1"/>
        <pt x="1311" y="1524" on="0"/>
        <pt x="1227" y="1377" on="0"/>
        <pt x="1211" y="1245" on="1"/>
        <pt x="1199" y="1155" on="1"/>
        <pt x="1432" y="1155" on="1"/>
        <pt x="1415" y="1011" on="1"/>
        <pt x="1181" y="1011" on="1"/>
        <pt x="1048" y="-53" on="1"/>
        <pt x="1031" y="-187" on="0"/>
        <pt x="923" y="-395" on="0"/>
        <pt x="760" y="-512" on="0"/>
        <pt x="663" y="-513" on="1"/>
        <pt x="613" y="-514" on="0"/>
        <pt x="521" y="-506" on="0"/>
        <pt x="498" y="-500" on="1"/>
        <pt x="551" y="-331" on="1"/>
        <pt x="571" y="-340" on="0"/>
        <pt x="684" y="-370" on="0"/>
        <pt x="716" y="-369" on="1"/>
        <pt x="762" y="-369" on="0"/>
        <pt x="820" y="-239" on="0"/>
        <pt x="835" y="-128" on="1"/>
        <pt x="973" y="1011" on="1"/>
      </contour>
      <contour>
        <pt x="1725" y="1542" on="0"/>
        <pt x="1769" y="1611" on="0"/>
        <pt x="1837" y="1653" on="0"/>
        <pt x="1871" y="1653" on="1"/>
        <pt x="1927" y="1653" on="0"/>
        <pt x="1995" y="1588" on="0"/>
        <pt x="1995" y="1541" on="1"/>
        <pt x="1995" y="1501" on="0"/>
        <pt x="1953" y="1429" on="0"/>
        <pt x="1882" y="1386" on="0"/>
        <pt x="1842" y="1386" on="1"/>
        <pt x="1794" y="1386" on="0"/>
        <pt x="1725" y="1455" on="0"/>
        <pt x="1725" y="1503" on="1"/>
      </contour>
      <contour>
        <pt x="128" y="1011" on="1"/>
        <pt x="143" y="1087" on="1"/>
        <pt x="292" y="1149" on="1"/>
        <pt x="299" y="1191" on="1"/>
        <pt x="319" y="1312" on="0"/>
        <pt x="448" y="1519" on="0"/>
        <pt x="627" y="1640" on="0"/>
        <pt x="720" y="1640" on="1"/>
        <pt x="766" y="1640" on="0"/>
        <pt x="843" y="1629" on="0"/>
        <pt x="879" y="1614" on="1"/>
        <pt x="819" y="1446" on="1"/>
        <pt x="788" y="1467" on="0"/>
        <pt x="726" y="1494" on="0"/>
        <pt x="680" y="1494" on="1"/>
        <pt x="605" y="1494" on="0"/>
        <pt x="516" y="1347" on="0"/>
        <pt x="499" y="1216" on="1"/>
        <pt x="492" y="1155" on="1"/>
        <pt x="725" y="1155" on="1"/>
        <pt x="709" y="1011" on="1"/>
        <pt x="474" y="1011" on="1"/>
        <pt x="341" y="-53" on="1"/>
        <pt x="324" y="-187" on="0"/>
        <pt x="216" y="-395" on="0"/>
        <pt x="53" y="-512" on="0"/>
        <pt x="-44" y="-513" on="1"/>
        <pt x="-94" y="-514" on="0"/>
        <pt x="-186" y="-506" on="0"/>
        <pt x="-209" y="-500" on="1"/>
        <pt x="-156" y="-331" on="1"/>
        <pt x="-136" y="-340" on="0"/>
        <pt x="-23" y="-370" on="0"/>
        <pt x="9" y="-369" on="1"/>
        <pt x="55" y="-369" on="0"/>
        <pt x="113" y="-239" on="0"/>
        <pt x="128" y="-128" on="1"/>
        <pt x="266" y="1011" on="1"/>
      </contour>
      <contour>
        <pt x="1549" y="1031" on="1"/>
        <pt x="1567" y="1112" on="1"/>
        <pt x="1873" y="1163" on="1"/>
        <pt x="1922" y="1139" on="1"/>
        <pt x="1783" y="189" on="1"/>
        <pt x="1781" y="177" on="0"/>
        <pt x="1781" y="158" on="1"/>
        <pt x="1781" y="113" on="0"/>
        <pt x="1806" y="113" on="1"/>
        <pt x="1823" y="113" on="0"/>
        <pt x="1873" y="142" on="0"/>
        <pt x="1912" y="179" on="1"/>
        <pt x="1944" y="125" on="1"/>
        <pt x="1930" y="104" on="0"/>
        <pt x="1857" y="35" on="0"/>
        <pt x="1753" y="-20" on="0"/>
        <pt x="1697" y="-20" on="1"/>
        <pt x="1570" y="-20" on="0"/>
        <pt x="1570" y="96" on="1"/>
        <pt x="1571" y="113" on="1"/>
        <pt x="1576" y="178" on="0"/>
        <pt x="1602" y="361" on="0"/>
        <pt x="1633" y="562" on="1"/>
        <pt x="1680" y="872" on="0"/>
        <pt x="1695" y="979" on="1"/>
      </contour>
    </TTGlyph>
    <TTGlyph name="f_f_i_dflt" xMin="-209" yMin="-514" xMax="1944" yMax="1670">
      <contour>
        <pt x="835" y="1011" on="1"/>
        <pt x="850" y="1087" on="1"/>
        <pt x="999" y="1149" on="1"/>
        <pt x="1011" y="1220" on="1"/>
        <pt x="1031" y="1341" on="0"/>
        <pt x="1156" y="1548" on="0"/>
        <pt x="1331" y="1670" on="0"/>
        <pt x="1422" y="1670" on="1"/>
        <pt x="1466" y="1670" on="0"/>
        <pt x="1538" y="1659" on="0"/>
        <pt x="1571" y="1644" on="1"/>
        <pt x="1512" y="1476" on="1"/>
        <pt x="1484" y="1497" on="0"/>
        <pt x="1425" y="1524" on="0"/>
        <pt x="1382" y="1524" on="1"/>
        <pt x="1311" y="1524" on="0"/>
        <pt x="1227" y="1377" on="0"/>
        <pt x="1211" y="1245" on="1"/>
        <pt x="1199" y="1155" on="1"/>
        <pt x="1432" y="1155" on="1"/>
        <pt x="1415" y="1011" on="1"/>
        <pt x="1181" y="1011" on="1"/>
        <pt x="1048" y="-53" on="1"/>
        <pt x="1031" y="-187" on="0"/>
        <pt x="923" y="-395" on="0"/>
        <pt x="760" y="-512" on="0"/>
        <pt x="663" y="-513" on="1"/>
        <pt x="613" y="-514" on="0"/>
        <pt x="521" y="-506" on="0"/>
        <pt x="498" y="-500" on="1"/>
        <pt x="551" y="-331" on="1"/>
        <pt x="571" y="-340" on="0"/>
        <pt x="684" y="-370" on="0"/>
        <pt x="716" y="-369" on="1"/>
        <pt x="762" y="-369" on="0"/>
        <pt x="820" y="-239" on="0"/>
        <pt x="835" y="-128" on="1"/>
        <pt x="973" y="1011" on="1"/>
      </contour>
      <contour>
        <pt x="128" y="1011" on="1"/>
        <pt x="143" y="1087" on="1"/>
        <pt x="292" y="1149" on="1"/>
        <pt x="299" y="1191" on="1"/>
        <pt x="319" y="1312" on="0"/>
        <pt x="448" y="1519" on="0"/>
        <pt x="627" y="1640" on="0"/>
        <pt x="720" y="1640" on="1"/>
        <pt x="766" y="1640" on="0"/>
        <pt x="843" y="1629" on="0"/>
        <pt x="879" y="1614" on="1"/>
        <pt x="819" y="1446" on="1"/>
        <pt x="788" y="1467" on="0"/>
        <pt x="726" y="1494" on="0"/>
        <pt x="680" y="1494" on="1"/>
        <pt x="605" y="1494" on="0"/>
        <pt x="516" y="1347" on="0"/>
        <pt x="499" y="1216" on="1"/>
        <pt x="492" y="1155" on="1"/>
        <pt x="725" y="1155" on="1"/>
        <pt x="709" y="1011" on="1"/>
        <pt x="474" y="1011" on="1"/>
        <pt x="341" y="-53" on="1"/>
        <pt x="324" y="-187" on="0"/>
        <pt x="216" y="-395" on="0"/>
        <pt x="53" y="-512" on="0"/>
        <pt x="-44" y="-513" on="1"/>
        <pt x="-94" y="-514" on="0"/>
        <pt x="-186" y="-506" on="0"/>
        <pt x="-209" y="-500" on="1"/>
        <pt x="-156" y="-331" on="1"/>
        <pt x="-136" y="-340" on="0"/>
        <pt x="-23" y="-370" on="0"/>
        <pt x="9" y="-369" on="1"/>
        <pt x="55" y="-369" on="0"/>
        <pt x="113" y="-239" on="0"/>
        <pt x="128" y="-128" on="1"/>
        <pt x="266" y="1011" on="1"/>
      </contour>
      <contour>
        <pt x="1549" y="1031" on="1"/>
        <pt x="1567" y="1112" on="1"/>
        <pt x="1873" y="1163" on="1"/>
        <pt x="1922" y="1139" on="1"/>
        <pt x="1783" y="189" on="1"/>
        <pt x="1781" y="177" on="0"/>
        <pt x="1781" y="158" on="1"/>
        <pt x="1781" y="113" on="0"/>
        <pt x="1806" y="113" on="1"/>
        <pt x="1823" y="113" on="0"/>
        <pt x="1873" y="142" on="0"/>
        <pt x="1912" y="179" on="1"/>
        <pt x="1944" y="125" on="1"/>
        <pt x="1930" y="104" on="0"/>
        <pt x="1857" y="35" on="0"/>
        <pt x="1753" y="-20" on="0"/>
        <pt x="1697" y="-20" on="1"/>
        <pt x="1570" y="-20" on="0"/>
        <pt x="1570" y="96" on="1"/>
        <pt x="1571" y="113" on="1"/>
        <pt x="1576" y="178" on="0"/>
        <pt x="1602" y="361" on="0"/>
        <pt x="1633" y="562" on="1"/>
        <pt x="1680" y="872" on="0"/>
        <pt x="1695" y="979" on="1"/>
      </contour>
    </TTGlyph>
    <TTGlyph name="f_f_l" xMin="-209" yMin="-514" xMax="1953" yMax="1670">
      <contour>
        <pt x="835" y="1011" on="1"/>
        <pt x="850" y="1087" on="1"/>
        <pt x="999" y="1149" on="1"/>
        <pt x="1011" y="1220" on="1"/>
        <pt x="1031" y="1341" on="0"/>
        <pt x="1156" y="1548" on="0"/>
        <pt x="1331" y="1670" on="0"/>
        <pt x="1422" y="1670" on="1"/>
        <pt x="1466" y="1670" on="0"/>
        <pt x="1538" y="1659" on="0"/>
        <pt x="1571" y="1644" on="1"/>
        <pt x="1512" y="1476" on="1"/>
        <pt x="1484" y="1497" on="0"/>
        <pt x="1425" y="1524" on="0"/>
        <pt x="1382" y="1524" on="1"/>
        <pt x="1311" y="1524" on="0"/>
        <pt x="1227" y="1377" on="0"/>
        <pt x="1211" y="1245" on="1"/>
        <pt x="1199" y="1155" on="1"/>
        <pt x="1432" y="1155" on="1"/>
        <pt x="1415" y="1011" on="1"/>
        <pt x="1181" y="1011" on="1"/>
        <pt x="1048" y="-53" on="1"/>
        <pt x="1031" y="-187" on="0"/>
        <pt x="923" y="-395" on="0"/>
        <pt x="760" y="-512" on="0"/>
        <pt x="663" y="-513" on="1"/>
        <pt x="613" y="-514" on="0"/>
        <pt x="521" y="-506" on="0"/>
        <pt x="498" y="-500" on="1"/>
        <pt x="551" y="-331" on="1"/>
        <pt x="571" y="-340" on="0"/>
        <pt x="684" y="-370" on="0"/>
        <pt x="716" y="-369" on="1"/>
        <pt x="762" y="-369" on="0"/>
        <pt x="820" y="-239" on="0"/>
        <pt x="835" y="-128" on="1"/>
        <pt x="973" y="1011" on="1"/>
      </contour>
      <contour>
        <pt x="1739" y="1482" on="1"/>
        <pt x="1616" y="1525" on="1"/>
        <pt x="1637" y="1608" on="1"/>
        <pt x="1905" y="1650" on="1"/>
        <pt x="1953" y="1623" on="1"/>
        <pt x="1752" y="189" on="1"/>
        <pt x="1750" y="178" on="0"/>
        <pt x="1750" y="159" on="1"/>
        <pt x="1750" y="137" on="0"/>
        <pt x="1762" y="113" on="0"/>
        <pt x="1773" y="113" on="1"/>
        <pt x="1791" y="113" on="0"/>
        <pt x="1840" y="140" on="0"/>
        <pt x="1880" y="178" on="1"/>
        <pt x="1911" y="125" on="1"/>
        <pt x="1899" y="105" on="0"/>
        <pt x="1827" y="35" on="0"/>
        <pt x="1724" y="-20" on="0"/>
        <pt x="1669" y="-20" on="1"/>
        <pt x="1607" y="-20" on="0"/>
        <pt x="1550" y="43" on="0"/>
        <pt x="1550" y="115" on="1"/>
        <pt x="1550" y="155" on="0"/>
        <pt x="1556" y="192" on="1"/>
      </contour>
      <contour>
        <pt x="128" y="1011" on="1"/>
        <pt x="143" y="1087" on="1"/>
        <pt x="292" y="1149" on="1"/>
        <pt x="299" y="1191" on="1"/>
        <pt x="319" y="1312" on="0"/>
        <pt x="448" y="1519" on="0"/>
        <pt x="627" y="1640" on="0"/>
        <pt x="720" y="1640" on="1"/>
        <pt x="766" y="1640" on="0"/>
        <pt x="843" y="1629" on="0"/>
        <pt x="879" y="1614" on="1"/>
        <pt x="819" y="1446" on="1"/>
        <pt x="788" y="1467" on="0"/>
        <pt x="726" y="1494" on="0"/>
        <pt x="680" y="1494" on="1"/>
        <pt x="605" y="1494" on="0"/>
        <pt x="516" y="1347" on="0"/>
        <pt x="499" y="1216" on="1"/>
        <pt x="492" y="1155" on="1"/>
        <pt x="725" y="1155" on="1"/>
        <pt x="709" y="1011" on="1"/>
        <pt x="474" y="1011" on="1"/>
        <pt x="341" y="-53" on="1"/>
        <pt x="324" y="-187" on="0"/>
        <pt x="216" y="-395" on="0"/>
        <pt x="53" y="-512" on="0"/>
        <pt x="-44" y="-513" on="1"/>
        <pt x="-94" y="-514" on="0"/>
        <pt x="-186" y="-506" on="0"/>
        <pt x="-209" y="-500" on="1"/>
        <pt x="-156" y="-331" on="1"/>
        <pt x="-136" y="-340" on="0"/>
        <pt x="-23" y="-370" on="0"/>
        <pt x="9" y="-369" on="1"/>
        <pt x="55" y="-369" on="0"/>
        <pt x="113" y="-239" on="0"/>
        <pt x="128" y="-128" on="1"/>
        <pt x="266" y="1011" on="1"/>
      </contour>
    </TTGlyph>
    <TTGlyph name="fi" xMin="-209" yMin="-514" xMax="1290" yMax="1670">
      <contour>
        <pt x="128" y="1011" on="1"/>
        <pt x="143" y="1087" on="1"/>
        <pt x="292" y="1149" on="1"/>
        <pt x="304" y="1220" on="1"/>
        <pt x="324" y="1341" on="0"/>
        <pt x="449" y="1548" on="0"/>
        <pt x="624" y="1670" on="0"/>
        <pt x="715" y="1670" on="1"/>
        <pt x="759" y="1670" on="0"/>
        <pt x="831" y="1659" on="0"/>
        <pt x="864" y="1644" on="1"/>
        <pt x="805" y="1476" on="1"/>
        <pt x="777" y="1497" on="0"/>
        <pt x="718" y="1524" on="0"/>
        <pt x="675" y="1524" on="1"/>
        <pt x="604" y="1524" on="0"/>
        <pt x="520" y="1377" on="0"/>
        <pt x="504" y="1245" on="1"/>
        <pt x="492" y="1155" on="1"/>
        <pt x="725" y="1155" on="1"/>
        <pt x="708" y="1011" on="1"/>
        <pt x="474" y="1011" on="1"/>
        <pt x="341" y="-53" on="1"/>
        <pt x="324" y="-187" on="0"/>
        <pt x="216" y="-395" on="0"/>
        <pt x="53" y="-512" on="0"/>
        <pt x="-44" y="-513" on="1"/>
        <pt x="-94" y="-514" on="0"/>
        <pt x="-186" y="-506" on="0"/>
        <pt x="-209" y="-500" on="1"/>
        <pt x="-156" y="-331" on="1"/>
        <pt x="-136" y="-340" on="0"/>
        <pt x="-23" y="-370" on="0"/>
        <pt x="9" y="-369" on="1"/>
        <pt x="55" y="-369" on="0"/>
        <pt x="113" y="-239" on="0"/>
        <pt x="128" y="-128" on="1"/>
        <pt x="266" y="1011" on="1"/>
      </contour>
      <contour>
        <pt x="1020" y="1542" on="0"/>
        <pt x="1064" y="1611" on="0"/>
        <pt x="1132" y="1653" on="0"/>
        <pt x="1166" y="1653" on="1"/>
        <pt x="1222" y="1653" on="0"/>
        <pt x="1290" y="1588" on="0"/>
        <pt x="1290" y="1541" on="1"/>
        <pt x="1290" y="1501" on="0"/>
        <pt x="1248" y="1429" on="0"/>
        <pt x="1177" y="1386" on="0"/>
        <pt x="1137" y="1386" on="1"/>
        <pt x="1089" y="1386" on="0"/>
        <pt x="1020" y="1455" on="0"/>
        <pt x="1020" y="1503" on="1"/>
      </contour>
      <contour>
        <pt x="844" y="1031" on="1"/>
        <pt x="862" y="1112" on="1"/>
        <pt x="1168" y="1163" on="1"/>
        <pt x="1217" y="1139" on="1"/>
        <pt x="1078" y="189" on="1"/>
        <pt x="1076" y="177" on="0"/>
        <pt x="1076" y="158" on="1"/>
        <pt x="1076" y="113" on="0"/>
        <pt x="1101" y="113" on="1"/>
        <pt x="1118" y="113" on="0"/>
        <pt x="1168" y="142" on="0"/>
        <pt x="1207" y="179" on="1"/>
        <pt x="1239" y="125" on="1"/>
        <pt x="1225" y="104" on="0"/>
        <pt x="1152" y="35" on="0"/>
        <pt x="1048" y="-20" on="0"/>
        <pt x="992" y="-20" on="1"/>
        <pt x="865" y="-20" on="0"/>
        <pt x="865" y="96" on="1"/>
        <pt x="866" y="113" on="1"/>
        <pt x="871" y="178" on="0"/>
        <pt x="897" y="361" on="0"/>
        <pt x="928" y="562" on="1"/>
        <pt x="975" y="872" on="0"/>
        <pt x="990" y="979" on="1"/>
      </contour>
    </TTGlyph>
    <TTGlyph name="five" xMin="38" yMin="-346" xMax="1043" yMax="1162">
      <contour>
        <pt x="281" y="-243" on="0"/>
        <pt x="551" y="-126" on="0"/>
        <pt x="715" y="77" on="0"/>
        <pt x="715" y="199" on="1"/>
        <pt x="715" y="295" on="0"/>
        <pt x="660" y="410" on="0"/>
        <pt x="545" y="462" on="0"/>
        <pt x="452" y="462" on="1"/>
        <pt x="351" y="462" on="0"/>
        <pt x="192" y="408" on="1"/>
        <pt x="143" y="447" on="1"/>
        <pt x="313" y="1146" on="1"/>
        <pt x="882" y="1146" on="1"/>
        <pt x="904" y="1162" on="1"/>
        <pt x="1043" y="1162" on="1"/>
        <pt x="985" y="975" on="1"/>
        <pt x="451" y="975" on="1"/>
        <pt x="335" y="551" on="1"/>
        <pt x="383" y="564" on="0"/>
        <pt x="509" y="581" on="0"/>
        <pt x="558" y="581" on="1"/>
        <pt x="670" y="581" on="0"/>
        <pt x="847" y="505" on="0"/>
        <pt x="951" y="344" on="0"/>
        <pt x="951" y="222" on="1"/>
        <pt x="951" y="49" on="0"/>
        <pt x="722" y="-210" on="0"/>
        <pt x="361" y="-346" on="0"/>
        <pt x="171" y="-346" on="1"/>
        <pt x="87" y="-346" on="0"/>
        <pt x="38" y="-329" on="1"/>
        <pt x="52" y="-237" on="1"/>
        <pt x="88" y="-243" on="0"/>
        <pt x="132" y="-243" on="1"/>
      </contour>
    </TTGlyph>
    <TTGlyph name="fl" xMin="-209" yMin="-514" xMax="1248" yMax="1670">
      <contour>
        <pt x="128" y="1011" on="1"/>
        <pt x="143" y="1087" on="1"/>
        <pt x="292" y="1149" on="1"/>
        <pt x="304" y="1220" on="1"/>
        <pt x="324" y="1341" on="0"/>
        <pt x="449" y="1548" on="0"/>
        <pt x="624" y="1670" on="0"/>
        <pt x="715" y="1670" on="1"/>
        <pt x="759" y="1670" on="0"/>
        <pt x="831" y="1659" on="0"/>
        <pt x="864" y="1644" on="1"/>
        <pt x="805" y="1476" on="1"/>
        <pt x="777" y="1497" on="0"/>
        <pt x="718" y="1524" on="0"/>
        <pt x="675" y="1524" on="1"/>
        <pt x="604" y="1524" on="0"/>
        <pt x="520" y="1377" on="0"/>
        <pt x="504" y="1245" on="1"/>
        <pt x="492" y="1155" on="1"/>
        <pt x="725" y="1155" on="1"/>
        <pt x="708" y="1011" on="1"/>
        <pt x="474" y="1011" on="1"/>
        <pt x="341" y="-53" on="1"/>
        <pt x="324" y="-187" on="0"/>
        <pt x="216" y="-395" on="0"/>
        <pt x="53" y="-512" on="0"/>
        <pt x="-44" y="-513" on="1"/>
        <pt x="-94" y="-514" on="0"/>
        <pt x="-186" y="-506" on="0"/>
        <pt x="-209" y="-500" on="1"/>
        <pt x="-156" y="-331" on="1"/>
        <pt x="-136" y="-340" on="0"/>
        <pt x="-23" y="-370" on="0"/>
        <pt x="9" y="-369" on="1"/>
        <pt x="55" y="-369" on="0"/>
        <pt x="113" y="-239" on="0"/>
        <pt x="128" y="-128" on="1"/>
        <pt x="266" y="1011" on="1"/>
      </contour>
      <contour>
        <pt x="1034" y="1482" on="1"/>
        <pt x="911" y="1525" on="1"/>
        <pt x="932" y="1608" on="1"/>
        <pt x="1200" y="1650" on="1"/>
        <pt x="1248" y="1623" on="1"/>
        <pt x="1047" y="189" on="1"/>
        <pt x="1045" y="178" on="0"/>
        <pt x="1045" y="159" on="1"/>
        <pt x="1045" y="137" on="0"/>
        <pt x="1057" y="113" on="0"/>
        <pt x="1068" y="113" on="1"/>
        <pt x="1086" y="113" on="0"/>
        <pt x="1135" y="140" on="0"/>
        <pt x="1175" y="178" on="1"/>
        <pt x="1206" y="125" on="1"/>
        <pt x="1194" y="105" on="0"/>
        <pt x="1122" y="35" on="0"/>
        <pt x="1019" y="-20" on="0"/>
        <pt x="964" y="-20" on="1"/>
        <pt x="902" y="-20" on="0"/>
        <pt x="845" y="43" on="0"/>
        <pt x="845" y="115" on="1"/>
        <pt x="845" y="155" on="0"/>
        <pt x="851" y="192" on="1"/>
      </contour>
    </TTGlyph>
</ttFont>
